<?xml version="1.0" standalone="no"?>
<!DOCTYPE svg PUBLIC "-//W3C//DTD SVG 1.1//EN" "http://www.w3.org/Graphics/SVG/1.1/DTD/svg11.dtd" >
<svg xmlns="http://www.w3.org/2000/svg" xmlns:xlink="http://www.w3.org/1999/xlink" version="1.1">
<metadata>
Created by FontForge 20170731 at Mon Jun 28 18:07:17 2021
 By Aleksey,,,
Copyright 2021 The Stick No Bills Project Authors (https://github.com/mooniak/stick-no-bills-font)
</metadata>
<defs>
<font id="StickNoBills-ExtraLight" horiz-adv-x="620" >
  <font-face 
    font-family="Stick No Bills ExtraLight"
    font-weight="200"
    font-stretch="normal"
    units-per-em="1000"
    panose-1="0 0 0 0 0 0 0 0 0 0"
    ascent="800"
    descent="-200"
    x-height="514"
    cap-height="700"
    bbox="-584 -311 1510 929"
    underline-thickness="50"
    underline-position="-175"
    unicode-range="U+000D-111F4"
  />
<missing-glyph horiz-adv-x="631" 
d="M50 -93v847h531v-847h-531zM294 36q-11 0 -19.5 8t-8.5 19t8.5 19.5t19.5 8.5t19.5 -8.5t8.5 -19.5t-8.5 -19t-19.5 -8zM88 -56h454v774h-454v-774zM270 122v187q70 1 108.5 25.5t38.5 84.5q0 45 -28.5 79.5t-80.5 34.5q-32 0 -53 -10.5t-33.5 -24.5t-21.5 -26l-31 27
q12 15 31 32t46.5 29.5t63.5 12.5q72 0 112 -42.5t41 -106.5q1 -51 -21 -85.5t-56 -52t-70 -18.5v-146h-46z" />
    <glyph glyph-name="fi" unicode="fi" horiz-adv-x="374" 
d="M129 0v439h-63v38h63v75q0 17 4 41t16 47.5t35.5 39.5t63.5 16h11l-9 -38l-11 -1q-30 -2 -45 -18.5t-20 -40t-5 -46.5v-76h146v-476h-40v439h-106v-439h-40zM295 556q-11 0 -19.5 8t-8.5 19t8.5 19t19.5 8t19 -8t8 -19t-8 -19t-19 -8z" />
    <glyph glyph-name="fl" unicode="fl" horiz-adv-x="394" 
d="M129 0v439h-63v38h63v75q0 17 4 41t16 47.5t35.5 39.5t63.5 16h85v-696h-40v658h-47q-29 0 -46 -17.5t-24 -41.5t-7 -47v-76l63 1v-38h-63v-439h-40z" />
    <glyph glyph-name=".notdef" horiz-adv-x="631" 
d="M50 -93v847h531v-847h-531zM294 36q-11 0 -19.5 8t-8.5 19t8.5 19.5t19.5 8.5t19.5 -8.5t8.5 -19.5t-8.5 -19t-19.5 -8zM88 -56h454v774h-454v-774zM270 122v187q70 1 108.5 25.5t38.5 84.5q0 45 -28.5 79.5t-80.5 34.5q-32 0 -53 -10.5t-33.5 -24.5t-21.5 -26l-31 27
q12 15 31 32t46.5 29.5t63.5 12.5q72 0 112 -42.5t41 -106.5q1 -51 -21 -85.5t-56 -52t-70 -18.5v-146h-46z" />
    <glyph glyph-name=".null" horiz-adv-x="0" 
 />
    <glyph glyph-name="nonmarkingreturn" horiz-adv-x="333" 
 />
    <glyph glyph-name="CR" unicode="&#xd;" horiz-adv-x="682" 
 />
    <glyph glyph-name="space" unicode=" " horiz-adv-x="240" 
 />
    <glyph glyph-name="exclam" unicode="!" horiz-adv-x="132" 
d="M46 166v534h40v-534h-40zM66 -3q-10 0 -18 8t-8 18q0 11 8 18.5t18 7.5q11 0 18.5 -7.5t7.5 -18.5q0 -10 -7.5 -18t-18.5 -8z" />
    <glyph glyph-name="quotedbl" unicode="&#x22;" horiz-adv-x="213" 
d="M133 465v271h40v-271h-40zM40 465v271h40v-271h-40z" />
    <glyph glyph-name="numbersign" unicode="#" horiz-adv-x="750" 
d="M184 22l35 196h-179l7 38h179l33 190h-186l6 38h186l35 198h40l-35 -198h187l34 198h40l-34 -198h178l-6 -39l-179 1l-33 -191h183l-5 -38l-185 1l-34 -196h-40l34 196h-186l-35 -196h-40zM452 255l33 191h-186l-33 -190z" />
    <glyph glyph-name="dollar" unicode="$" horiz-adv-x="521" 
d="M273 -47v82q20 0 48 12t55.5 34.5t46 54.5t18.5 73q0 46 -25.5 72t-64 39t-78.5 20v40q23 -4 43.5 -7t36.5 -8q35 -9 64 -26.5t46.5 -49.5t17.5 -86q0 -47 -23.5 -91t-63.5 -74.5t-91 -38.5v-46h-30zM198 -47v46q-48 8 -83.5 36.5t-54.5 63t-20 59.5l37 13
q10 -47 35.5 -76.5t57 -43.5t58.5 -16v-82h-30zM228 348q-17 3 -31.5 5.5t-25.5 6.5q-37 14 -64.5 32t-43 47t-15.5 75q0 57 25 95t60 59t65 28v54h30v-88q-12 0 -35 -8t-47 -26t-41 -47.5t-17 -72.5q0 -37 20 -60.5t52 -37t68 -21.5v-41zM415 541q-11 43 -36 69t-53.5 38.5
t-52.5 13.5v88h30v-53q46 -8 78 -35.5t50.5 -58.5t21.5 -50z" />
    <glyph glyph-name="percent" unicode="%" horiz-adv-x="295" 
d="M40 -13l175 739h40l-174 -739h-41zM212 99q-10 0 -18 8t-8 18q0 11 8 18.5t18 7.5q11 0 18.5 -7.5t7.5 -18.5q0 -10 -7.5 -18t-18.5 -8zM81 560q-10 0 -18 8t-8 18q0 11 8 18.5t18 7.5q11 0 18.5 -7.5t7.5 -18.5q0 -10 -7.5 -18t-18.5 -8z" />
    <glyph glyph-name="ampersand" unicode="&#x26;" horiz-adv-x="636" 
d="M552 15l-374 387q-31 33 -48.5 60t-17.5 70q0 45 20.5 82t56 61.5t80.5 30.5v-40q-27 -2 -54 -18.5t-45 -45.5t-18 -70q0 -28 11.5 -48.5t26 -34.5t22.5 -23l252 -262q19 19 36 49.5t27.5 65t10.5 66.5h40q0 -42 -13 -83t-32.5 -74t-39.5 -54l103 -107zM261 -1
q-57 0 -107.5 26t-82 74.5t-31.5 113.5q0 47 21 89.5t62 76.5l28 -28q-12 -9 -28.5 -27t-29.5 -45.5t-13 -65.5q0 -55 27 -94t69.5 -59.5t88.5 -20.5q36 0 71.5 14.5t60.5 42.5l28 -29q-36 -35 -78.5 -51.5t-85.5 -16.5zM439 549q-3 25 -18 50.5t-39.5 44t-57.5 22.5v40
q59 -7 101 -48t53 -99z" />
    <glyph glyph-name="quotesingle" unicode="'" horiz-adv-x="120" 
d="M40 465v271h40v-271h-40z" />
    <glyph glyph-name="parenleft" unicode="(" horiz-adv-x="212" 
d="M172 -5q-55 29 -83 56.5t-38.5 60t-10.5 77.5v321q0 53 12 86.5t31 53.5t42.5 32t45.5 23v-23q-19 -11 -40.5 -25.5t-36 -44.5t-14.5 -90l1 -334q0 -55 15.5 -88.5t37 -52t38.5 -29.5v-23z" />
    <glyph glyph-name="parenright" unicode=")" horiz-adv-x="220" 
d="M40 -9v23q14 9 31.5 21t33 32.5t25.5 54.5t10 86v313q0 56 -17 87.5t-40.5 49t-42.5 28.5v23q54 -20 84.5 -49t43 -66.5t12.5 -83.5v-314q0 -10 -3 -35t-16 -56.5t-41.5 -62t-79.5 -51.5z" />
    <glyph glyph-name="asterisk" unicode="*" horiz-adv-x="355" 
d="M157 478v117l-95 -64l-22 32l109 71l-107 71l23 32l92 -58v106h40v-111l96 63l22 -32l-108 -72l108 -74l-23 -32l-95 68v-117h-40z" />
    <glyph glyph-name="plus" unicode="+" horiz-adv-x="455" 
d="M206 87v188h-166v38h166v185h40v-185h169v-38h-169v-188h-40z" />
    <glyph glyph-name="comma" unicode="," horiz-adv-x="156" 
d="M40 -23l37 152h39l-37 -152h-39z" />
    <glyph glyph-name="hyphen" unicode="-" horiz-adv-x="396" 
d="M40 275v38h316v-38h-316z" />
    <glyph glyph-name="period" unicode="." horiz-adv-x="158" 
d="M79 -4q-16 0 -27.5 11.5t-11.5 27.5t11.5 27.5t27.5 11.5t27.5 -11.5t11.5 -27.5t-11.5 -27.5t-27.5 -11.5z" />
    <glyph glyph-name="slash" unicode="/" horiz-adv-x="295" 
d="M40 -13l175 739h40l-174 -739h-41z" />
    <glyph glyph-name="zero" unicode="0" horiz-adv-x="506" 
d="M284 0v38q21 3 45.5 16t46.5 44.5t36 89.5t14 151v59q0 67 -14.5 116.5t-37.5 81.5t-47 48t-44 16v38q33 -2 65.5 -21t59 -59.5t42.5 -106t16 -158.5q0 -110 -18.5 -179t-47.5 -106.5t-60 -52t-56 -15.5zM222 0q-25 1 -56 15.5t-60 52t-47.5 106.5t-18.5 179
q0 93 16 158.5t42.5 106t59 59.5t65.5 21v-38q-19 0 -43.5 -15t-47 -46.5t-37 -81.5t-14.5 -119v-59q0 -92 16 -151t39.5 -91.5t47 -45.5t38.5 -13v-38z" />
    <glyph glyph-name="one" unicode="1" horiz-adv-x="160" 
d="M80 0v624h-40v43l40 33h40v-700h-40z" />
    <glyph glyph-name="two" unicode="2" horiz-adv-x="510" 
d="M60 80q0 53 21.5 94t54 71t67.5 50.5t63 33t39 17.5q28 14 57 31.5t48.5 45.5t19.5 71t-13.5 81t-50 62.5t-104.5 24.5v38q79 0 125 -29.5t65 -76.5t18 -100q-1 -63 -32.5 -101t-82.5 -64q-22 -11 -54.5 -26t-67 -34.5t-65 -46.5t-49.5 -62t-19 -80h-40zM60 0v38h404v-38
h-404zM78 512l-37 8q5 42 26.5 81.5t59 67t90.5 31.5v-38q-24 0 -53 -15.5t-53 -48t-33 -86.5z" />
    <glyph glyph-name="three" unicode="3" horiz-adv-x="509" 
d="M272 -4v38q47 0 82 17.5t55 52t20 84.5q0 23 -6 47.5t-23 46t-49 35t-84 13.5v36q52 0 84 13.5t49 35t23 46.5t6 47q0 76 -43.5 115t-113.5 39v38q49 0 85.5 -14.5t61.5 -41t37.5 -60.5t12.5 -73q0 -49 -16.5 -90t-63.5 -73q47 -32 63.5 -72.5t16.5 -90.5
q0 -39 -12.5 -73t-37.5 -60.5t-61.5 -41t-85.5 -14.5zM217 -4q-53 5 -90.5 32t-59 66.5t-26.5 81.5l37 8q9 -53 33 -86t53 -48t53 -16v-38zM78 512l-37 8q5 42 26.5 81.5t59 67t90.5 31.5v-38q-24 0 -53 -15.5t-53 -48t-33 -86.5z" />
    <glyph glyph-name="four" unicode="4" horiz-adv-x="501" 
d="M366 0v701h41v-518h54v-38h-54v-145h-41zM30 145v38l291 494v-69l-248 -425h248v-38h-291z" />
    <glyph glyph-name="five" unicode="5" horiz-adv-x="520" 
d="M79 330l-39 24l29 346h354v-38l-318 -1l-21 -263q21 17 55 33t83 16v-38q-39 0 -75 -18.5t-68 -60.5zM222 0q-42 0 -77 14t-61 38.5t-42 54.5l33 22q18 -30 37.5 -49t46 -29t63.5 -13v-38zM267 0v38q24 0 54 11t57 34t45 58t18 83q0 53 -18 89t-45 57t-57 30t-54 9v38
q74 0 121 -33t69.5 -84.5t22.5 -106.5q0 -72 -31.5 -121.5t-80 -75t-101.5 -26.5z" />
    <glyph glyph-name="six" unicode="6" horiz-adv-x="534" 
d="M247 -1q-65 3 -106 32.5t-63 79t-30 111t-8 127.5q0 35 4.5 79t17 89t36 84t60 65t89.5 31v-38q-57 -9 -90.5 -44.5t-50 -85.5t-21.5 -104t-5 -101q27 56 74 78.5t93 22.5v-38q-50 0 -84 -24.5t-51.5 -64.5t-17.5 -87q0 -18 7 -46.5t24 -58t47 -49.5t75 -20v-38zM302 -1
v38q49 0 83 28t52 68.5t18 77.5q0 62 -23.5 101.5t-58.5 58t-71 18.5v36q62 0 105 -28.5t65 -77t22 -107.5q0 -62 -27 -110t-70.5 -75t-94.5 -28zM434 572q-8 18 -24.5 38.5t-43 35t-65.5 14.5v38q59 0 102.5 -30.5t63.5 -73.5z" />
    <glyph glyph-name="seven" unicode="7" horiz-adv-x="439" 
d="M220 0q6 59 18.5 133t32.5 156t49.5 165.5t70.5 161.5h43q-42 -79 -72 -163t-50 -166t-31.5 -155.5t-17.5 -131.5h-43zM40 660v40h399v-39z" />
    <glyph glyph-name="eight" unicode="8" horiz-adv-x="519" 
d="M287 0v38q40 2 74.5 19.5t56.5 52.5t22 89q0 41 -15 66.5t-38.5 39.5t-50.5 19.5t-51 5.5v38q53 0 86 19.5t48 50t15 63.5q0 36 -16 71.5t-49 60.5t-85 27v38q44 0 79 -17t60 -45.5t38.5 -64t13.5 -72.5q0 -43 -19.5 -83t-60.5 -67q51 -29 67.5 -69.5t16.5 -85.5
q0 -36 -13 -71t-37.5 -62.5t-60 -44t-81.5 -16.5zM232 0q-46 0 -81.5 16.5t-60 44t-37.5 62.5t-13 71q0 45 16.5 85.5t67.5 69.5q-41 27 -60.5 67t-19.5 83q0 37 13.5 72.5t38.5 64t60 45.5t79 17v-38q-52 -2 -85 -27t-49 -60.5t-16 -71.5q0 -33 15 -63.5t48 -50t86 -19.5
v-38q-24 0 -51 -5.5t-50.5 -19.5t-38.5 -39.5t-15 -66.5q0 -54 22 -89t57 -52.5t74 -19.5v-38z" />
    <glyph glyph-name="nine" unicode="9" horiz-adv-x="531" 
d="M281 2v39q24 0 53 14t55.5 49.5t44 99t17.5 162.5q-5 -7 -14.5 -22t-27 -31t-48.5 -27.5t-80 -11.5v40q76 0 115 47t39 129q0 23 -9 52t-27.5 55.5t-47.5 44.5t-70 18v40q66 0 107 -29.5t63.5 -79.5t31 -114.5t8.5 -135.5q0 -32 -5 -76t-18 -90t-36.5 -85.5t-60.5 -64
t-90 -23.5zM237 1q-58 0 -106.5 33t-73.5 81l33 21q20 -40 60 -67.5t87 -27.5v-40zM237 274q-64 0 -108 26.5t-66.5 74t-22.5 110.5t28 111t73.5 76t95.5 28v-40q-42 -1 -72 -19t-49.5 -45t-28.5 -57t-9 -54q0 -79 42.5 -125t116.5 -46v-40z" />
    <glyph glyph-name="colon" unicode=":" horiz-adv-x="153" 
d="M77 285q-10 0 -18 8t-8 18q0 11 8 18.5t18 7.5q11 0 18.5 -7.5t7.5 -18.5q0 -10 -7.5 -18t-18.5 -8zM76 -5q-10 0 -18 8t-8 18q0 11 8 18.5t18 7.5q11 0 18.5 -7.5t7.5 -18.5q0 -10 -7.5 -18t-18.5 -8z" />
    <glyph glyph-name="semicolon" unicode=";" horiz-adv-x="199" 
d="M50 -23l37 152h39l-37 -152h-39zM123 285q-10 0 -18 8t-8 18q0 11 8 18.5t18 7.5q11 0 18.5 -7.5t7.5 -18.5q0 -10 -7.5 -18t-18.5 -8z" />
    <glyph glyph-name="less" unicode="&#x3c;" horiz-adv-x="434" 
d="M394 79l-354 197v32l354 192v-40l-308 -168l308 -173v-40z" />
    <glyph glyph-name="equal" unicode="=" horiz-adv-x="418" 
d="M50 325v40h318v-40h-318zM50 218v40h318v-40h-318z" />
    <glyph glyph-name="greater" unicode="&#x3e;" horiz-adv-x="434" 
d="M40 79v40l308 173l-308 168v40l354 -192v-32z" />
    <glyph glyph-name="question" unicode="?" horiz-adv-x="480" 
d="M187 71v245q59 1 107.5 19.5t78 57t29.5 98.5q0 48 -21 87t-59.5 62t-93.5 23q-44 0 -76.5 -14t-53 -33t-31.5 -33l-27 28q15 19 38.5 40.5t59.5 36.5t90 15q96 0 152.5 -57.5t59.5 -154.5q0 -54 -20.5 -93.5t-52.5 -65.5t-69.5 -39.5t-72.5 -16.5v-205h-38zM207 -22
q-10 0 -18 8t-8 18q0 11 8 18.5t18 7.5q11 0 18.5 -7.5t7.5 -18.5q0 -10 -7.5 -18t-18.5 -8z" />
    <glyph glyph-name="at" unicode="@" horiz-adv-x="769" 
d="M405 -52q-85 0 -153 28.5t-115 78.5t-72 115t-25 139q0 79 30 146t83.5 117t125 78t153.5 28q51 0 103.5 -16.5t96 -49.5t70.5 -83t27 -116q0 -69 -17 -115t-43 -73.5t-54 -41t-51.5 -18t-34.5 -4.5q-18 0 -35.5 10.5t-30 24t-15.5 23.5q-8 -13 -33 -31.5t-62 -18.5
q-29 0 -54 18t-39.5 49t-14.5 68q0 61 26.5 100.5t63.5 59t69 19.5q25 0 40 -5.5t24 -13.5t15 -14l6 21h39l-41 -163q-2 -8 -5 -19.5t-5 -22.5q-2 -8 4 -25t20 -30.5t34 -13.5q15 0 41 8t52.5 30t44.5 64.5t18 112.5q0 53 -23 95.5t-61 72t-84 45t-91 15.5q-72 0 -135.5 -25
t-112 -69.5t-76.5 -105t-28 -131.5q0 -95 43 -168t116.5 -114t165.5 -41q77 0 139.5 23.5t122.5 65.5l18 -34q-35 -26 -78.5 -47t-93.5 -33.5t-108 -12.5z" />
    <glyph glyph-name="A" unicode="A" horiz-adv-x="429" 
d="M359 0l-28 135h-187l8 38h170l-115 526h40l152 -699h-40zM30 0l137 599h17l10 -45l-124 -554h-40z" />
    <glyph glyph-name="B" unicode="B" horiz-adv-x="512" 
d="M125 -1v38h96q61 0 102 15.5t65 41t34 55t10 56.5q0 54 -32 91t-114 37h-161v38h161q56 0 86.5 16.5t43 45.5t12.5 64t-17.5 73.5t-55.5 65t-101 26.5h-129v38h131q57 0 97.5 -18.5t65.5 -49t37 -66t12 -69.5q0 -52 -21.5 -88.5t-47.5 -56.5q19 -15 35.5 -33t27 -45
t10.5 -69q0 -60 -28 -106.5t-75.5 -73t-108.5 -26.5h-135zM40 0v700h40v-700h-40z" />
    <glyph glyph-name="C" unicode="C" horiz-adv-x="516" 
d="M241 -5q-55 0 -93.5 20t-62.5 50.5t-34.5 62t-10.5 53.5v337q0 23 11 54.5t34.5 62t62 51t93.5 20.5v-39q-43 0 -73.5 -16t-50 -40t-28.5 -49t-9 -44v-337q0 -19 9.5 -44t29 -49t50 -39.5t72.5 -15.5v-38zM286 -5v38q25 1 55 11.5t55.5 33.5t36.5 61q2 8 4 16.5t3 15.5
t1.5 12.5t0.5 6.5l34 -8q0 -53 -27.5 -95.5t-70.5 -67t-92 -24.5zM440 507v8.5t-1 8.5q-1 6 -2.5 12.5t-3.5 13.5q-15 44 -38 68t-46.5 34t-41 12.5t-21.5 2.5v39q36 0 70 -16t61 -43t43 -61t16 -70z" />
    <glyph glyph-name="D" unicode="D" horiz-adv-x="472" 
d="M125 0v38q54 0 102 3.5t85 17.5t58.5 47t21.5 91v306q0 62 -22.5 95t-60 46.5t-85.5 15.5t-99 2v38q58 0 112.5 -3t98.5 -19.5t70 -57.5t26 -117v-306q0 -74 -25 -114.5t-68.5 -58t-98.5 -21t-115 -3.5zM40 0v700h40v-700h-40z" />
    <glyph glyph-name="E" unicode="E" horiz-adv-x="444" 
d="M40 0v700h364v-38h-324v-294h230v-38h-230v-292h324v-38h-364z" />
    <glyph glyph-name="F" unicode="F" horiz-adv-x="444" 
d="M40 1v699h364v-38h-324v-294h230v-38h-230v-329h-40z" />
    <glyph glyph-name="G" unicode="G" horiz-adv-x="515" 
d="M240 -5q-24 0 -58 10.5t-66.5 34t-54 61t-21.5 91.5v332q0 23 12 54t37 60t62.5 48t88.5 19v-38q-41 0 -78 -21.5t-59.5 -57.5t-22.5 -80v-316q0 -43 19 -73.5t46 -49.5t53.5 -27.5t41.5 -8.5v-38zM285 -5v38q20 0 45.5 12t49.5 33.5t39.5 50t15.5 61.5v125h-150v38h190
v-177q0 -30 -17 -62t-45 -59t-61.5 -43.5t-66.5 -16.5zM436 502l-1 16q-3 41 -21 69.5t-42.5 46t-48 25.5t-38.5 8v38q49 1 92.5 -26.5t70.5 -71t27 -91.5z" />
    <glyph glyph-name="H" unicode="H" horiz-adv-x="474" 
d="M394 0v333h-134v38h134v329h40v-700h-40zM40 0v700h40v-329h134v-38h-134v-333h-40z" />
    <glyph glyph-name="I" unicode="I" horiz-adv-x="124" 
d="M42 0v700h40v-700h-40z" />
    <glyph glyph-name="J" unicode="J" horiz-adv-x="497" 
d="M257 -5v38q16 0 42.5 9.5t53.5 29.5t45.5 50t18.5 71v507h40v-507q0 -54 -22 -92t-55.5 -61t-66.5 -34t-56 -11zM211 -5q-22 0 -54.5 11.5t-63.5 35.5t-52 61.5t-21 89.5v49h40v-42q0 -43 16 -74.5t40.5 -52t50 -30.5t44.5 -10v-38z" />
    <glyph glyph-name="K" unicode="K" horiz-adv-x="491" 
d="M421 0l-296 341l292 359h50l-292 -359l296 -341h-50zM40 0v700h40v-700h-40z" />
    <glyph glyph-name="L" unicode="L" horiz-adv-x="436" 
d="M40 0v700h40v-662h336v-38h-376z" />
    <glyph glyph-name="M" unicode="M" horiz-adv-x="696" 
d="M324 0l-282 678v22h37l264 -641l216 488h10v-78l-207 -469h-38zM42 0v549h9l31 -77v-472h-40zM614 0v700h40v-700h-40z" />
    <glyph glyph-name="N" unicode="N" horiz-adv-x="529" 
d="M466 0l-424 676v24h39l406 -647v-53h-21zM42 0v596h8l32 -52v-544h-40zM479 136l-32 53v511h40v-564h-8z" />
    <glyph glyph-name="O" unicode="O" horiz-adv-x="528" 
d="M291 -5v39q21 0 48 10.5t51.5 31t41 50.5t16.5 69v313q0 24 -10.5 51t-31 51.5t-49.5 40t-66 15.5v39q49 0 86 -19.5t61.5 -49t37 -60t12.5 -52.5v-329q0 -54 -22 -92t-54 -62t-65 -35t-56 -11zM236 -5q-22 0 -55 11t-65.5 35t-54 62t-21.5 92v329q0 23 12 53.5t37 59.5
t62 48.5t86 19.5v-39q-37 0 -66 -16t-49.5 -41t-31 -52t-10.5 -49v-313q0 -38 16.5 -68t41.5 -50.5t51.5 -31.5t46.5 -11v-39z" />
    <glyph glyph-name="P" unicode="P" horiz-adv-x="484" 
d="M42 0v700h40v-700h-40zM127 308v37h150q51 0 83 16.5t47.5 52.5t15.5 94q0 53 -14.5 87.5t-46.5 51.5t-86 17h-149v36h171q43 -2 80.5 -18.5t61.5 -57.5t24 -119t-23.5 -120t-61 -58.5t-81.5 -18.5h-171z" />
    <glyph glyph-name="Q" unicode="Q" horiz-adv-x="528" 
d="M362 -107l-75 102v38q8 0 33 7.5t54.5 25.5t51 49.5t21.5 79.5v313q0 33 -19 70t-54.5 63t-86.5 26v38q51 0 88.5 -19.5t62.5 -48.5t37.5 -60t12.5 -53v-329q0 -59 -25 -97t-60.5 -60.5t-66.5 -35.5l58 -86zM241 -5q-25 0 -59 11t-66.5 35t-54 62t-21.5 92v329
q0 23 12.5 53.5t37 60t62.5 48.5t89 19v-38q-51 0 -87 -26t-55 -63t-19 -70v-313q0 -49 21 -80.5t50.5 -49.5t55 -25t34.5 -7v-38z" />
    <glyph glyph-name="R" unicode="R" horiz-adv-x="509" 
d="M439 0l-15 178q-4 44 -14.5 76t-36 49t-75.5 15h-171v39h160q67 0 96.5 35.5t29.5 115.5t-34.5 119.5t-117.5 39.5h-134v33h156q44 -2 83 -18.5t63.5 -57.5t24.5 -119q0 -72 -19 -111.5t-50 -56.5q28 -12 50.5 -39.5t26.5 -80.5l17 -217h-40zM42 0v700h40v-700h-40z" />
    <glyph glyph-name="S" unicode="S" horiz-adv-x="501" 
d="M263 -3v38q20 0 48 12t55.5 34.5t46 54.5t18.5 73q0 42 -21.5 67t-55 39t-71 21t-70.5 12t-52 12q-37 14 -64.5 32t-43 47t-15.5 75q0 51 20 86.5t49.5 57.5t60 32t50.5 10v-38q-12 0 -35 -8t-47 -26t-41 -47.5t-17 -72.5q0 -36 19.5 -59.5t50.5 -37t67 -21.5t70 -13
t58 -12q35 -9 64 -26.5t46.5 -49.5t17.5 -86q0 -52 -28 -99t-75 -77t-105 -30zM218 -3q-43 0 -77.5 17t-59 43t-38 53t-13.5 48l37 13q10 -47 35.5 -76.5t57 -43.5t58.5 -16v-38zM405 541q-11 43 -36 69t-53.5 38.5t-52.5 13.5v38q41 0 73.5 -16.5t55 -41t35.5 -49t16 -40.5
z" />
    <glyph glyph-name="T" unicode="T" horiz-adv-x="473" 
d="M216 0v662h-196v38h433v-38h-197v-662h-40z" />
    <glyph glyph-name="U" unicode="U" horiz-adv-x="527" 
d="M241 -5q-22 0 -56 11t-67 34t-55.5 61t-22.5 92v507h40v-507q0 -41 19 -71.5t46.5 -50t54 -29t41.5 -9.5v-38zM287 -5v38q16 0 42.5 9t53.5 28t45.5 49.5t18.5 73.5v507h40v-507q0 -54 -22 -92t-55 -61.5t-66.5 -34t-56.5 -10.5z" />
    <glyph glyph-name="V" unicode="V" horiz-adv-x="476" 
d="M213 0l-203 700h39l194 -666l-13 -34h-17zM257 115l-14 50l184 535h39l-199 -585h-10z" />
    <glyph glyph-name="W" unicode="W" horiz-adv-x="792" 
d="M213 0l-203 700h39l190 -656l-11 -44h-15zM557 0l-184 700h39l173 -662l-13 -38h-15zM249 130l-14 52l138 518h39l-153 -570h-10zM605 130l-15 51l153 519h39l-167 -570h-10z" />
    <glyph glyph-name="X" unicode="X" horiz-adv-x="472" 
d="M30 0l187 362l-175 338h39l155 -302l155 302h39l-175 -338l187 -362h-39l-167 325l-167 -325h-39z" />
    <glyph glyph-name="Y" unicode="Y" horiz-adv-x="487" 
d="M214 0v252l-184 448h41l183 -447v-253h-40zM276 311l-19 46l159 343h41l-177 -389h-4z" />
    <glyph glyph-name="Z" unicode="Z" horiz-adv-x="447" 
d="M40 0v35l323 627h-323v38h366v-35l-323 -627h324l-1 -38h-366z" />
    <glyph glyph-name="bracketleft" unicode="[" horiz-adv-x="180" 
d="M50 -36v775h80v-38h-39l-3 -699h42v-38h-80z" />
    <glyph glyph-name="backslash" unicode="\" horiz-adv-x="296" 
d="M214 -23l-174 739h41l175 -739h-42z" />
    <glyph glyph-name="bracketright" unicode="]" horiz-adv-x="180" 
d="M50 -36v38h42l-3 699h-39v38h80v-775h-80z" />
    <glyph glyph-name="asciicircum" unicode="^" horiz-adv-x="426" 
d="M50 460l149 296h28l149 -296h-41l-123 243l-121 -243h-41z" />
    <glyph glyph-name="underscore" unicode="_" horiz-adv-x="530" 
d="M40 -205v38h450v-38h-450z" />
    <glyph glyph-name="grave" unicode="`" horiz-adv-x="157" 
d="M88 605l-48 152h40l37 -152h-29z" />
    <glyph glyph-name="a" unicode="a" horiz-adv-x="464" 
d="M196 1q-48 0 -83 18t-54 46t-19 56v46q0 17 3.5 33.5t14 31t31.5 25.5q16 8 47.5 16t69 16t72 17t57 19t22.5 22v16q0 39 -19 66t-45.5 40.5t-51.5 13.5v36q54 0 88.5 -24.5t51.5 -61t17 -72.5v-287q0 -6 4.5 -20t21.5 -14v-39q-29 0 -42.5 11.5t-23.5 26.5
q-19 -19 -53 -28.5t-64 -9.5v38q26 0 53 8t45.5 32t18.5 70v143q-24 -13 -63 -22.5t-81 -18t-75.5 -18t-46.5 -23.5q-11 -11 -11 -39v-39q1 -34 18 -54.5t43.5 -29.5t53.5 -9v-38zM84 375l-37 14q0 37 22 66.5t56.5 46.5t70.5 17v-38q-27 0 -53 -13.5t-42.5 -37t-16.5 -55.5
z" />
    <glyph glyph-name="b" unicode="b" horiz-adv-x="428" 
d="M125 0v38h118q24 0 51 14.5t45.5 38.5t18.5 52v230q0 27 -17.5 51t-43.5 39t-54 15h-118v38h119q31 0 58.5 -12t49 -32t34 -44.5t12.5 -50.5v-236q0 -18 -9.5 -42t-29 -46.5t-49 -37.5t-69.5 -15h-116zM40 0v699h40v-699h-40z" />
    <glyph glyph-name="c" unicode="c" horiz-adv-x="432" 
d="M199 0q-45 0 -76 15t-49 38t-26 46.5t-8 41.5v231q0 22 10 47t30 47t50 36t70 14v-38q-35 0 -62 -18t-42 -43t-15 -48v-228q0 -20 15 -44.5t41.5 -41.5t61.5 -17v-38zM243 -1v38q28 0 54 14.5t44 39t21 54.5l1 14l39 -15q0 -39 -23 -72t-59.5 -53t-76.5 -20zM352 358
l-1 16q-3 36 -20.5 58.5t-41 33.5t-45.5 11v39q41 0 74 -19.5t53 -52t20 -72.5z" />
    <glyph glyph-name="d" unicode="d" horiz-adv-x="428" 
d="M187 0q-40 0 -69.5 15t-49 37.5t-29 46.5t-9.5 42v236q0 26 12.5 50.5t34 44.5t49 32t58.5 12h119v-38h-118q-27 0 -53.5 -15t-44 -39t-17.5 -51v-230q0 -28 19 -52t45.5 -38.5t50.5 -14.5h118v-38h-116zM348 0v699h40v-699h-40z" />
    <glyph glyph-name="e" unicode="e" horiz-adv-x="452" 
d="M204 0q-40 0 -70.5 15t-51.5 37.5t-31.5 46.5t-10.5 42v236q0 18 10.5 41.5t31 46t51 37t70.5 14.5v-38q-36 0 -63.5 -18.5t-43.5 -44t-16 -46.5v-84h291v84q0 30 -18 55t-46 40.5t-59 15.5v36q38 0 75.5 -19t62.5 -50t25 -69v-131h-331v-106q0 -18 17 -42t45.5 -42.5
t61.5 -18.5v-38zM248 0v41q36 0 62 16t42.5 37.5t20.5 39.5l39 -14q-9 -32 -31 -59.5t-55.5 -44t-77.5 -16.5z" />
    <glyph glyph-name="f" unicode="f" horiz-adv-x="243" 
d="M93 0v439h-63v38h63v75q0 17 4 41t16 47.5t35.5 39.5t63.5 16h11l-9 -38h-5q-33 -1 -49 -17.5t-21.5 -40.5t-5.5 -48v-76l63 1v-38h-63v-439h-40z" />
    <glyph glyph-name="g" unicode="g" horiz-adv-x="433" 
d="M30 -181l11 38h180q42 2 71.5 18.5t45 40t15.5 44.5v94q-5 -7 -20 -20t-39 -23.5t-56 -11.5v35q26 0 52.5 15.5t44.5 40t18 49.5v235q0 36 -20.5 59t-47.5 34t-47 11v38q26 0 50 -9t41.5 -20.5t23.5 -21.5v51h40v-556q0 -16 -9.5 -39.5t-28.5 -46.5t-47.5 -39t-67.5 -16
h-210zM193 -1q-41 0 -70 15.5t-47.5 38t-27.5 46t-9 40.5v239q0 17 9.5 40.5t28 46t47.5 37t69 14.5v-38q-32 0 -58 -17.5t-41 -41.5t-15 -44v-235q0 -19 14.5 -43t40.5 -42t59 -18v-38z" />
    <glyph glyph-name="h" unicode="h" horiz-adv-x="445" 
d="M40 1v697h39v-244q13 18 43.5 37.5t80.5 19.5v-38q-29 0 -57.5 -15.5t-47 -40t-18.5 -52.5v-364h-40zM365 1v364q0 27 -12.5 51.5t-38.5 40.5t-66 16v38q50 0 85 -20t53.5 -51t18.5 -66v-373h-40z" />
    <glyph glyph-name="i" unicode="i" horiz-adv-x="139" 
d="M50 0v516h40v-516h-40zM70 556q-11 0 -19.5 8t-8.5 19t8.5 19t19.5 8t19 -8t8 -19t-8 -19t-19 -8z" />
    <glyph glyph-name="j" unicode="j" horiz-adv-x="174" 
d="M-42 -181l9 38h11q28 2 52 18t39.5 40.5t15.5 49.5v551h40v-551q0 -18 -9 -42.5t-27.5 -48t-47 -39.5t-66.5 -16h-17zM107 556q-11 0 -19.5 8t-8.5 19t8.5 19t19.5 8t19 -8t8 -19t-8 -19t-19 -8z" />
    <glyph glyph-name="k" unicode="k" horiz-adv-x="458" 
d="M378 0l-276 257l276 257h60l-276 -257l276 -257h-60zM40 0v698h40v-698h-40z" />
    <glyph glyph-name="l" unicode="l" horiz-adv-x="124" 
d="M42 0v698h40v-698h-40z" />
    <glyph glyph-name="m" unicode="m" horiz-adv-x="700" 
d="M330 0v372q0 44 -28.5 76.5t-76.5 32.5v38q54 0 80.5 -19.5t44.5 -49.5q18 30 44 49.5t80 19.5v-38q-48 0 -76 -32.5t-28 -76.5v-372h-40zM38 0v377q0 20 6.5 44t22.5 46.5t44 37t70 14.5v-38q-48 0 -75.5 -32.5t-27.5 -76.5v-372h-40zM622 0v372q0 46 -28.5 77.5
t-75.5 31.5v38q41 0 69 -15t44.5 -37.5t23.5 -47t7 -42.5v-377h-40z" />
    <glyph glyph-name="n" unicode="n" horiz-adv-x="450" 
d="M38 377q0 19 10.5 43.5t31.5 47t52 37t72 14.5v-40q-31 0 -60 -15.5t-47.5 -40t-18.5 -51.5v-372h-40v377zM372 372q0 17 -14.5 42t-42.5 45t-69 20v40q41 0 72 -15t52 -38t31.5 -47t10.5 -42v-377h-40v372z" />
    <glyph glyph-name="o" unicode="o" horiz-adv-x="440" 
d="M202 -1q-42 0 -73 15t-51 38t-30 47t-10 42v235q0 18 10 42t30.5 46.5t51.5 37t72 14.5v-38q-40 0 -67.5 -19t-42 -45.5t-14.5 -50.5v-209q0 -21 16 -48.5t44 -48t64 -20.5v-38zM243 -1v38q38 0 64.5 19.5t40.5 46.5t14 49v211q0 23 -14 49.5t-40.5 46t-64.5 19.5v38
q41 0 70.5 -14.5t49.5 -37t29.5 -46.5t9.5 -42v-235q0 -18 -9.5 -42.5t-29.5 -47t-49.5 -37.5t-70.5 -15z" />
    <glyph glyph-name="p" unicode="p" horiz-adv-x="444" 
d="M134 0v38h111q39 0 66.5 15.5t42 40t14.5 49.5v229q0 21 -15.5 45.5t-45 42.5t-72.5 18h-108v38h108q44 0 76.5 -14.5t54 -36.5t32 -46t10.5 -44v-236q0 -20 -10 -44t-30 -45.5t-51.5 -35.5t-73.5 -14h-109zM42 -182v698h40v-698h-40z" />
    <glyph glyph-name="q" unicode="q" horiz-adv-x="438" 
d="M203 0q-42 0 -73.5 14t-51.5 35.5t-30 45.5t-10 44v236q0 20 9.5 44t29 46t51 36.5t75.5 14.5h108v-38h-108q-43 0 -70.5 -18t-41 -42.5t-13.5 -45.5v-229q0 -25 14.5 -49.5t42 -40t66.5 -15.5h103v-38h-101zM356 -182v698h40v-698h-40z" />
    <glyph glyph-name="r" unicode="r" horiz-adv-x="233" 
d="M42 0v516h40v-85q7 17 23.5 36.5t41.5 33.5t55 14h5.5h5.5l-10 -37q-30 0 -57.5 -25.5t-45.5 -64.5t-18 -80v-308h-40z" />
    <glyph glyph-name="s" unicode="s" horiz-adv-x="415" 
d="M223 -5v37q27 0 58 13.5t52.5 40.5t21.5 67q0 26 -20 43t-53.5 28t-75 19.5t-83.5 18.5q-15 4 -38.5 13.5t-42 30.5t-18.5 59q0 40 15 69t39 47.5t51 27t51 8.5v-38q-23 0 -50 -14t-46.5 -39.5t-19.5 -60.5q0 -30 26 -45t75 -25.5t118 -28.5q12 -3 30.5 -9.5t37.5 -19.5
t31.5 -33.5t12.5 -50.5q0 -48 -23 -83.5t-62 -55t-87 -19.5zM182 -5q-48 0 -84.5 21.5t-57 54.5t-20.5 65l39 7q0 -32 20 -57t48.5 -39t54.5 -14v-38zM347 368q0 37 -22.5 61.5t-52 36.5t-50.5 12v39q49 0 85.5 -22t57.5 -54.5t21 -66.5z" />
    <glyph glyph-name="t" unicode="t" horiz-adv-x="252" 
d="M237 0q-61 1 -94.5 21.5t-46.5 58t-13 88.5v297h-63v39h63v196h40v-196h63v-39h-63v-306q0 -57 24.5 -89t94.5 -32h1l9 -38h-15z" />
    <glyph glyph-name="u" unicode="u" horiz-adv-x="450" 
d="M246 -5v40q36 0 64.5 17t45 41.5t16.5 48.5v372h40v-377q0 -18 -10 -42t-31 -47t-52 -38t-73 -15zM204 -5q-42 0 -73.5 14.5t-52 37t-30.5 47t-10 43.5v377h40v-372q0 -23 17 -48t45.5 -42t63.5 -17v-40z" />
    <glyph glyph-name="v" unicode="v" horiz-adv-x="404" 
d="M188 0l-178 515h45l166 -484l-13 -31h-20zM231 92l-16 48l134 375h45l-151 -423h-12z" />
    <glyph glyph-name="w" unicode="w" horiz-adv-x="723" 
d="M519 1l-180 515h45l166 -484l-11 -31h-20zM190 1l-180 515h45l166 -484l-11 -31h-20zM231 93l-16 48l124 375h45l-141 -423h-12zM560 93l-16 48l124 375h45l-141 -423h-12z" />
    <glyph glyph-name="x" unicode="x" horiz-adv-x="379" 
d="M8 0l158 262l-153 254h39l138 -223l137 222h40l-152 -253l156 -262h-39l-142 232l-143 -232h-39z" />
    <glyph glyph-name="y" unicode="y" horiz-adv-x="390" 
d="M76 -182l97 293l-169 404h39l169 -404l-97 -293h-39zM230 156l-17 41l134 318h39l-151 -359h-5z" />
    <glyph glyph-name="z" unicode="z" horiz-adv-x="356" 
d="M30 0l1 37l253 439h-254v38h296v-32l-254 -444h254v-38h-296z" />
    <glyph glyph-name="braceleft" unicode="{" horiz-adv-x="219" 
d="M199 -38q-30 0 -53 9t-38.5 29t-23 54t-7.5 84v152q0 24 -17.5 34t-44.5 24q27 11 44 21.5t18 38.5v149q0 56 7.5 91t22.5 54t38 26t54 7v-34q-27 0 -43.5 -6.5t-24.5 -29t-11 -69t-3 -127.5v-86q0 -13 -6 -21.5t-24 -13.5q19 -6 24.5 -17t5.5 -27v-97q0 -74 6.5 -116.5
t17.5 -63t26 -26t32 -5.5v-34z" />
    <glyph glyph-name="bar" unicode="|" horiz-adv-x="135" 
d="M50 -134v888h35v-888h-35z" />
    <glyph glyph-name="braceright" unicode="}" horiz-adv-x="219" 
d="M20 -38v34q17 0 32 5.5t26 26t17.5 63t6.5 116.5v97q0 16 5.5 27t24.5 17q-18 5 -24 13.5t-6 21.5v86q0 81 -3 127.5t-11 69t-24.5 29t-43.5 6.5v34q31 0 54 -7t38 -26t22.5 -54t7.5 -91v-149q1 -28 18 -38.5t44 -21.5q-27 -14 -44.5 -24t-17.5 -34v-152q0 -50 -7.5 -84
t-23 -54t-38.5 -29t-53 -9z" />
    <glyph glyph-name="asciitilde" unicode="~" horiz-adv-x="628" 
d="M411 283q-34 0 -62 11t-53.5 25.5t-51.5 25.5t-57 11q-22 0 -48.5 -8t-58.5 -28v38q34 20 62 27.5t51 7.5q33 0 59.5 -11t52 -25.5t52.5 -25.5t60 -11q26 0 58.5 10t72.5 35v-36q-42 -25 -75.5 -35.5t-61.5 -10.5z" />
    <glyph glyph-name="uni00A0" unicode="&#xa0;" horiz-adv-x="240" 
 />
    <glyph glyph-name="exclamdown" unicode="&#xa1;" horiz-adv-x="138" 
d="M28 -94v516h40v-516h-40zM48 462q-11 0 -19.5 8t-8.5 19t8.5 19t19.5 8t19 -8t8 -19t-8 -19t-19 -8z" />
    <glyph glyph-name="cent" unicode="&#xa2;" horiz-adv-x="420" 
d="M350 358v12q-3 37 -20.5 60.5t-41 35t-46.5 11.5v39q41 0 74 -19.5t53 -52t20 -72.5zM198 0q-45 0 -76 15t-49.5 38t-26.5 46.5t-8 41.5v231q0 22 10 47t30 47t50 36t70 14v-38q-35 0 -62 -18t-42 -43t-15 -48v-228q0 -20 15 -44.5t42 -41.5t62 -17v-38zM242 -1v38
q41 0 76 30t42 74q1 5 1 9.5v8.5l39 -15q0 -39 -23 -72t-59 -53t-76 -20zM165 492v85h33v-85h-33zM165 -61v85h33v-85h-33zM242 492v85h33v-85h-33zM242 -61v85h33v-85h-33z" />
    <glyph glyph-name="sterling" unicode="&#xa3;" horiz-adv-x="372" 
d="M82 0v322h-62v38h62v193q0 38 15.5 72.5t46.5 56.5t77 22h2q17 0 31 -3t27 -8q26 -10 42.5 -27t26.5 -37l-35 -17q-13 20 -34.5 36t-53.5 16q-44 0 -74.5 -29t-30.5 -79v-194h146v-38h-146v-286h230v-38h-270z" />
    <glyph glyph-name="currency" unicode="&#xa4;" horiz-adv-x="598" 
d="M275 132q-49 0 -82.5 21t-53.5 48l-74 -66l-25 29l79 72q-4 11 -6 20.5t-2 17.5v182q0 8 2.5 18.5t6.5 20.5l-80 72l25 29l74 -66q20 26 54 46t82 20v-38q-40 0 -67.5 -19t-42 -45.5t-14.5 -50.5v-156q0 -21 16 -48.5t44 -48t64 -20.5v-38zM316 132v38q38 0 64.5 19.5
t40.5 46.5t14 49v158q0 23 -14 49.5t-40.5 46t-64.5 19.5v38q47 0 80 -20t52 -47l75 67l25 -29l-81 -73q4 -10 6 -20t2 -18v-182q0 -8 -2 -17.5t-6 -20.5l81 -72l-26 -29l-74 66q-19 -27 -52 -48t-80 -21z" />
    <glyph glyph-name="yen" unicode="&#xa5;" horiz-adv-x="452" 
d="M207 0v288l-150 410h41l129 -355l128 355h41l-149 -410v-288h-40zM21 153v33h415v-33h-415zM21 243v33h415v-33h-415z" />
    <glyph glyph-name="brokenbar" unicode="&#xa6;" horiz-adv-x="132" 
d="M42 399v355h40v-355h-40zM42 -134v355h40v-355h-40z" />
    <glyph glyph-name="section" unicode="&#xa7;" horiz-adv-x="602" 
d="M278 183q-20 4 -39 6.5t-35 5.5t-27 7q-37 14 -64.5 32t-43 47t-15.5 75q0 53 22 89.5t53 58.5q-7 14 -10.5 32t-3.5 40q0 54 19.5 89.5t49.5 56.5t62.5 29.5t59.5 8.5h98v-38h-69q-93 0 -136.5 -40t-43.5 -104q0 -34 17 -57t45 -37.5t61 -24.5v-47q-12 2 -22 4.5
t-18 5.5q-26 10 -47.5 21t-37.5 27q-23 -18 -41 -47t-18 -73t28.5 -69t71 -37.5t84.5 -20.5v-40zM197 -137v38h65q83 0 134 38.5t51 111.5q0 37 -17.5 61t-45.5 38.5t-61 22.5v42q10 -1 19.5 -3.5t16.5 -4.5q28 -7 53 -19.5t43 -34.5q23 22 38 51.5t15 66.5t-17 60.5
t-44.5 38t-60 22.5t-63.5 13v42q28 -6 53 -10.5t44 -9.5q35 -9 64 -26.5t46.5 -49.5t17.5 -86q0 -43 -19 -83t-52 -69q5 -14 7.5 -31t2.5 -37q0 -33 -12.5 -65.5t-37 -59t-61 -42t-84.5 -15.5h-95z" />
    <glyph glyph-name="dieresis" unicode="&#xa8;" horiz-adv-x="266" 
d="M184 652q-11 0 -19.5 8t-8.5 19t8.5 19t19.5 8t19 -8t8 -19t-8 -19t-19 -8zM83 652q-11 0 -19.5 8t-8.5 19t8.5 19t19.5 8t19 -8t8 -19t-8 -19t-19 -8z" />
    <glyph glyph-name="copyright" unicode="&#xa9;" horiz-adv-x="764" 
d="M370 -16q-67 0 -127 27t-107 75.5t-74 113t-27 139.5q0 71 22 128.5t58.5 100t81 71t89.5 42.5t84 13v-30q-51 0 -104.5 -22t-99 -64t-74 -102t-28.5 -137q0 -62 23 -119.5t65 -103.5t97.5 -72.5t120.5 -26.5v-33zM405 -16v33q62 0 116 27t95.5 72.5t65 103.5t23.5 119
q0 68 -25.5 127t-68 103.5t-96 69.5t-110.5 25v30q46 0 92.5 -16.5t89 -47t76 -74.5t52.5 -98.5t19 -118.5q0 -75 -28 -140t-75 -113t-105.5 -75t-120.5 -27zM488 435v6q0 29 -13 49.5t-32.5 32t-37.5 11.5v31q32 0 58 -17t41 -44t15 -58zM371 113q-38 0 -63.5 14t-40 35
t-20.5 44t-6 41v182q0 29 14 60.5t43 53.5t73 22v-30q-35 0 -56.5 -18t-31.5 -43.5t-10 -47.5v-179q0 -26 12 -50t34.5 -39.5t51.5 -15.5v-29zM405 112v30q33 0 59 27.5t27 64.5v9l30 -11q0 -31 -16 -58.5t-42 -44.5t-58 -17z" />
    <glyph glyph-name="ordfeminine" unicode="&#xaa;" horiz-adv-x="230" 
d="M20 393v17h188v-17h-188zM102 447q-24 0 -41.5 9t-27 22.5t-9.5 28.5v23q0 8 1.5 16t7 15.5t16.5 13.5q7 4 23 7.5t35 8t36 9t28.5 9.5t11.5 11v8q0 19 -9.5 32.5t-23 20.5t-25.5 7v18q26 0 43.5 -12.5t26 -31t8.5 -35.5v-144q0 -3 2 -10t11 -7v-19q-15 0 -21.5 5.5
t-11.5 13.5q-9 -10 -26 -14.5t-32 -4.5v19q13 0 26.5 4t22.5 15.5t9 35.5v71q-12 -6 -31.5 -11t-40.5 -9t-38 -9t-23 -12q-5 -5 -5 -19v-20q0 -17 8.5 -27t22 -14.5t26.5 -4.5v-19zM46 634l-18 7q-1 18 10 32.5t28.5 23.5t35.5 9v-19q-14 0 -26.5 -7t-21 -19t-8.5 -27z" />
    <glyph glyph-name="guillemotleft" unicode="&#xab;" horiz-adv-x="475" 
d="M449 124l-211 157v18l211 156v-50l-156 -113l156 -118v-50zM238 124l-211 157v18l211 156v-50l-156 -113l156 -118v-50z" />
    <glyph glyph-name="logicalnot" unicode="&#xac;" horiz-adv-x="501" 
d="M411 208v160h-371v38h411v-198h-40z" />
    <glyph glyph-name="uni00AD" unicode="&#xad;" horiz-adv-x="376" 
d="M20 275v38h316v-38h-316z" />
    <glyph glyph-name="registered" unicode="&#xae;" horiz-adv-x="384" 
d="M184 369q-42 2 -76 24t-54.5 57.5t-20.5 77.5q0 32 11.5 60t32.5 50t48.5 35t58.5 14v-24q-35 -2 -64 -20.5t-46 -48.5t-17 -66t17 -66t46 -48.5t64 -20.5v-24zM200 369v24q36 2 64.5 20.5t45.5 48.5t17 66t-17 66t-45.5 48.5t-64.5 20.5v24q32 -1 59 -14t48 -35
t32.5 -50t11.5 -60q0 -42 -20 -77.5t-54.5 -57.5t-76.5 -24zM133 432v195h21v-195h-21zM236 432l-4 49q-2 26 -18.5 31.5t-47.5 5.5v19h19q24 0 35 9.5t11 23.5q0 22 -14.5 30t-42.5 8h-8v19q17 0 36.5 -2.5t34 -14t14.5 -40.5q0 -31 -21 -42q9 -4 14.5 -15t6.5 -21l5 -60
h-20z" />
    <glyph glyph-name="macron" unicode="&#xaf;" horiz-adv-x="510" 
d="M40 712v38h450v-38h-450z" />
    <glyph glyph-name="degree" unicode="&#xb0;" horiz-adv-x="209" 
d="M104 514q-19 0 -34.5 9.5t-25 25t-9.5 34.5t9.5 34.5t25 25t34.5 9.5t35 -9.5t25.5 -25t9.5 -34.5t-9.5 -34.5t-25.5 -25t-35 -9.5zM104 545q17 0 28 11t11 27q0 17 -11 28t-28 11q-16 0 -27 -11t-11 -28q0 -16 11 -27t27 -11z" />
    <glyph glyph-name="plusminus" unicode="&#xb1;" horiz-adv-x="435" 
d="M30 129v38h375v-38h-375zM221 248v188h-166v38h166v185h40v-185h169v-38h-169v-188h-40z" />
    <glyph glyph-name="uni00B2" unicode="&#xb2;" horiz-adv-x="231" 
d="M25 432q0 30 14.5 50.5t34 34t37 21.5t23.5 11q23 12 37 26.5t14 38.5q0 11 -5.5 25t-19.5 24.5t-40 10.5v26q48 0 69.5 -26t21.5 -61t-20 -55.5t-43 -32.5q-17 -8 -39 -18.5t-38 -28t-16 -46.5h-30zM25 387v26h180v-26h-180zM46 619l-25 5q3 27 24 50t55 26v-26
q-15 -1 -32 -13.5t-22 -41.5z" />
    <glyph glyph-name="uni00B3" unicode="&#xb3;" horiz-adv-x="225" 
d="M117 387v26q20 0 40.5 15t20.5 46q0 19 -15.5 38t-47.5 19v25q32 0 47.5 19.5t15.5 38.5q0 32 -20.5 46t-40.5 14v26q28 0 47.5 -12t30 -31.5t10.5 -41.5q0 -20 -7 -39t-27 -33q20 -13 27 -31t7 -39q0 -22 -10.5 -41.5t-30 -32t-47.5 -12.5zM94 387q-34 3 -52.5 26.5
t-21.5 49.5l25 5q5 -29 20.5 -41.5t28.5 -13.5v-26zM45 619l-25 5q3 27 21.5 50t52.5 26v-26q-13 -1 -28.5 -13.5t-20.5 -41.5z" />
    <glyph glyph-name="acute" unicode="&#xb4;" horiz-adv-x="308" 
d="M115 605l37 152h40l-49 -152h-28z" />
    <glyph glyph-name="uni00B5" unicode="&#xb5;" horiz-adv-x="491" 
d="M35 0v698h40v-382q0 -15 18 -28t47 -21.5t61 -8.5v-38q-52 0 -84.5 16t-41.5 21v-257h-40zM243 220v38q32 0 60.5 8t47 21.5t18.5 28.5v384h40v-385q0 -26 7 -40t35 -14v-39q-32 0 -47.5 9t-27.5 26q-20 -16 -55 -26.5t-78 -10.5z" />
    <glyph glyph-name="paragraph" unicode="&#xb6;" horiz-adv-x="363" 
d="M204 -5v334q-78 0 -123.5 51.5t-45.5 136.5q0 50 21 93t59 69t89 26h30v-710h-30zM279 -5v710h30v-710h-30z" />
    <glyph glyph-name="periodcentered" unicode="&#xb7;" horiz-adv-x="152" 
d="M104 288q-16 0 -27.5 11.5t-11.5 27.5t11.5 27.5t27.5 11.5t27.5 -11.5t11.5 -27.5t-11.5 -27.5t-27.5 -11.5z" />
    <glyph glyph-name="cedilla" unicode="&#xb8;" horiz-adv-x="399" 
d="M123 -9v38q44 0 72.5 26.5t28.5 67.5h40q0 -28 -14 -58.5t-45 -52t-82 -21.5z" />
    <glyph glyph-name="uni00B9" unicode="&#xb9;" horiz-adv-x="102" 
d="M27 386v279h-18v19l18 15h26v-313h-26z" />
    <glyph glyph-name="ordmasculine" unicode="&#xba;" horiz-adv-x="230" 
d="M26 413v19h178v-19h-178zM111 471q-19 0 -32.5 6.5t-22.5 16.5t-13.5 21t-4.5 19v104q0 8 4.5 18.5t13.5 20.5t22.5 16.5t32.5 6.5v-17q-18 0 -30.5 -8.5t-18.5 -20.5t-6 -22v-93q0 -9 7 -21.5t19 -21.5t29 -9v-16zM129 471v16q16 0 28 9t18.5 21t6.5 21v94q0 10 -6.5 22
t-18.5 20.5t-28 8.5v17q18 0 31 -6.5t22 -16.5t13 -20.5t4 -18.5v-104q0 -9 -4 -19.5t-13 -20.5t-22 -16.5t-31 -6.5z" />
    <glyph glyph-name="guillemotright" unicode="&#xbb;" horiz-adv-x="457" 
d="M226 144v40l176 108l-176 102v40l211 -125v-38zM15 144v40l176 108l-176 102v40l211 -125v-38z" />
    <glyph glyph-name="onequarter" unicode="&#xbc;" horiz-adv-x="498" 
d="M0 0l432 700h36l-432 -700h-36zM231 61v30l146 247v-58l-110 -189h110v-30h-146zM399 0v350h31v-259h27v-30h-27v-61h-31zM83 350v312h-20v22l20 16h30v-350h-30z" />
    <glyph glyph-name="onehalf" unicode="&#xbd;" horiz-adv-x="554" 
d="M83 350v312h-20v22l20 16h30v-350h-30zM0 0l432 700h36l-432 -700h-36zM328 254l-29 7q3 21 13.5 41t29.5 33.5t45 15.5v-30q-16 0 -35 -15t-24 -52zM309 51q0 33 16 55.5t38 36t41.5 21t26.5 10.5q21 11 37 26.5t16 47.5t-16 52.5t-58 20.5v30q40 0 62.5 -14.5t32 -38
t9.5 -50.5q0 -37 -16 -58t-42 -34q-14 -7 -33.5 -14.5t-38.5 -18.5t-32 -28.5t-13 -43.5h-30zM309 0v30h202v-30h-202z" />
    <glyph glyph-name="threequarters" unicode="&#xbe;" horiz-adv-x="624" 
d="M69 603l-29 7q2 21 13 41t30 33.5t45 15.5v-30q-16 0 -35 -15t-24 -52zM155 345v30q35 0 52 19t17 49q0 5 -3.5 21t-18 30.5t-49.5 14.5h-10v27h10q35 0 49.5 14.5t18 31t3.5 20.5q0 30 -17 49t-52 19v30q33 0 55 -13.5t33 -35.5t11 -48q0 -25 -8.5 -45t-31.5 -35
q23 -16 31.5 -36t8.5 -45q0 -26 -11 -48t-33 -35.5t-55 -13.5zM128 345q-26 3 -45 16.5t-30 33t-13 40.5l29 7q5 -37 24 -52t35 -15v-30zM126 0l432 700h36l-432 -700h-36zM357 61v30l146 247v-58l-110 -189h110v-30h-146zM525 0v350h31v-259h27v-30h-27v-61h-31z" />
    <glyph glyph-name="questiondown" unicode="&#xbf;" horiz-adv-x="445" 
d="M263 617v-245q-58 -1 -107 -19.5t-78.5 -56.5t-29.5 -99q0 -48 21 -87t60 -62t93 -23q45 0 77 14t53 33t31 33l27 -28q-15 -19 -38 -40.5t-59.5 -36.5t-90.5 -15q-96 0 -152.5 57.5t-59.5 154.5q0 54 20.5 93.5t52.5 65.5t70 39.5t72 16.5v205h38zM243 710
q11 0 18.5 -7.5t7.5 -18.5q0 -10 -7.5 -18t-18.5 -8q-10 0 -18 8t-8 18q0 11 8 18.5t18 7.5z" />
    <glyph glyph-name="Agrave" unicode="&#xc0;" horiz-adv-x="429" 
d="M213 766l-48 152h40l37 -152h-29zM359 0l-28 135h-187l8 38h170l-115 526h40l152 -699h-40zM30 0l137 599h17l10 -45l-124 -554h-40z" />
    <glyph glyph-name="Aacute" unicode="&#xc1;" horiz-adv-x="429" 
d="M215 766l37 152h40l-49 -152h-28zM359 0l-28 135h-187l8 38h170l-115 526h40l152 -699h-40zM30 0l137 599h17l10 -45l-124 -554h-40z" />
    <glyph glyph-name="Acircumflex" unicode="&#xc2;" horiz-adv-x="429" 
d="M138 766l75 152h32l76 -152h-36l-56 113l-55 -113h-36zM359 0l-28 135h-187l8 38h170l-115 526h40l152 -699h-40zM30 0l137 599h17l10 -45l-124 -554h-40z" />
    <glyph glyph-name="Atilde" unicode="&#xc3;" horiz-adv-x="429" 
d="M286 766q-26 0 -47 10t-40.5 20t-43.5 10q-13 0 -29.5 -5t-36.5 -17v39q21 12 38.5 17t31.5 5q26 0 46 -10t40 -20.5t45 -10.5q17 0 36 6.5t44 21.5v-38q-25 -16 -46 -22t-38 -6zM359 0l-28 135h-187l8 38h170l-115 526h40l152 -699h-40zM30 0l137 599h17l10 -45
l-124 -554h-40z" />
    <glyph glyph-name="Adieresis" unicode="&#xc4;" horiz-adv-x="429" 
d="M280 766q-11 0 -19.5 8t-8.5 19t8.5 19t19.5 8t19 -8t8 -19t-8 -19t-19 -8zM179 766q-11 0 -19.5 8t-8.5 19t8.5 19t19.5 8t19 -8t8 -19t-8 -19t-19 -8zM359 0l-28 135h-187l8 38h170l-115 526h40l152 -699h-40zM30 0l137 599h17l10 -45l-124 -554h-40z" />
    <glyph glyph-name="Aring" unicode="&#xc5;" horiz-adv-x="516" 
d="M403 0l-28 135h-187l8 38h170l-114 521q-24 5 -40 25.5t-16 45.5q0 30 21 51t51 21t51.5 -21t21.5 -51q0 -24 -13.5 -42.5t-35.5 -26.5l151 -696h-40zM74 0l137 599h17l10 -45l-124 -554h-40zM268 727q17 0 28 11t11 27q0 17 -11 28t-28 11q-16 0 -27 -11t-11 -28
q0 -16 11 -27t27 -11z" />
    <glyph glyph-name="AE" unicode="&#xc6;" horiz-adv-x="727" 
d="M81 0l180 700h440v-39h-274v-294h180v-38h-180v-291h274v-38h-314v188h-169l10 40h159v433h-94l-168 -661h-44z" />
    <glyph glyph-name="Ccedilla" unicode="&#xc7;" horiz-adv-x="516" 
d="M141 -174v38q44 0 72.5 26.5t28.5 67.5h40q0 -28 -14 -58.5t-45 -52t-82 -21.5zM241 -5q-55 0 -93.5 20t-62.5 50.5t-34.5 62t-10.5 53.5v337q0 23 11 54.5t34.5 62t62 51t93.5 20.5v-39q-43 0 -73.5 -16t-50 -40t-28.5 -49t-9 -44v-337q0 -19 9.5 -44t29 -49t50 -39.5
t72.5 -15.5v-38zM286 -5v38q25 1 55 11.5t55.5 33.5t36.5 61q2 8 4 16.5t3 15.5t1.5 12.5t0.5 6.5l34 -8q0 -53 -27.5 -95.5t-70.5 -67t-92 -24.5zM440 507v8.5t-1 8.5q-1 6 -2.5 12.5t-3.5 13.5q-15 44 -38 68t-46.5 34t-41 12.5t-21.5 2.5v39q36 0 70 -16t61 -43t43 -61
t16 -70z" />
    <glyph glyph-name="Egrave" unicode="&#xc8;" horiz-adv-x="444" 
d="M208 766l-48 152h40l37 -152h-29zM40 0v700h364v-38h-324v-294h230v-38h-230v-292h324v-38h-364z" />
    <glyph glyph-name="Eacute" unicode="&#xc9;" horiz-adv-x="444" 
d="M239 766l37 152h40l-49 -152h-28zM40 0v700h364v-38h-324v-294h230v-38h-230v-292h324v-38h-364z" />
    <glyph glyph-name="Ecircumflex" unicode="&#xca;" horiz-adv-x="444" 
d="M132 766l75 152h32l76 -152h-36l-56 113l-55 -113h-36zM40 0v700h364v-38h-324v-294h230v-38h-230v-292h324v-38h-364z" />
    <glyph glyph-name="Edieresis" unicode="&#xcb;" horiz-adv-x="444" 
d="M275 766q-11 0 -19.5 8t-8.5 19t8.5 19t19.5 8t19 -8t8 -19t-8 -19t-19 -8zM174 766q-11 0 -19.5 8t-8.5 19t8.5 19t19.5 8t19 -8t8 -19t-8 -19t-19 -8zM40 0v700h364v-38h-324v-294h230v-38h-230v-292h324v-38h-364z" />
    <glyph glyph-name="Igrave" unicode="&#xcc;" horiz-adv-x="124" 
d="M45 766l-48 152h40l37 -152h-29zM42 0v700h40v-700h-40z" />
    <glyph glyph-name="Iacute" unicode="&#xcd;" horiz-adv-x="124" 
d="M48 766l37 152h40l-49 -152h-28zM42 0v700h40v-700h-40z" />
    <glyph glyph-name="Icircumflex" unicode="&#xce;" horiz-adv-x="124" 
d="M-29 766l75 152h32l76 -152h-36l-56 113l-55 -113h-36zM42 0v700h40v-700h-40z" />
    <glyph glyph-name="Idieresis" unicode="&#xcf;" horiz-adv-x="124" 
d="M113 766q-11 0 -19.5 8t-8.5 19t8.5 19t19.5 8t19 -8t8 -19t-8 -19t-19 -8zM12 766q-11 0 -19.5 8t-8.5 19t8.5 19t19.5 8t19 -8t8 -19t-8 -19t-19 -8zM42 0v700h40v-700h-40z" />
    <glyph glyph-name="Eth" unicode="&#xd0;" horiz-adv-x="504" 
d="M82 0v335h-56v38h56v327h40v-327h56v-38h-56v-335h-40zM167 0v38q54 0 102 3.5t85 17.5t58.5 47t21.5 91v306q0 62 -22.5 95t-60 46.5t-85.5 15.5t-99 2v38q58 0 112.5 -3t98.5 -19.5t70 -57.5t26 -117v-306q0 -74 -25 -114.5t-68.5 -58t-98.5 -21t-115 -3.5z" />
    <glyph glyph-name="Ntilde" unicode="&#xd1;" horiz-adv-x="529" 
d="M321 766q-26 0 -47 10t-40.5 20t-43.5 10q-13 0 -29.5 -5t-36.5 -17v39q21 12 38.5 17t31.5 5q26 0 46 -10t40 -20.5t45 -10.5q17 0 36 6.5t44 21.5v-38q-25 -16 -46 -22t-38 -6zM466 0l-424 676v24h39l406 -647v-53h-21zM42 0v596h8l32 -52v-544h-40zM479 136l-32 53
v511h40v-564h-8z" />
    <glyph glyph-name="Ograve" unicode="&#xd2;" horiz-adv-x="528" 
d="M246 766l-48 152h40l37 -152h-29zM291 -5v39q21 0 48 10.5t51.5 31t41 50.5t16.5 69v313q0 24 -10.5 51t-31 51.5t-49.5 40t-66 15.5v39q49 0 86 -19.5t61.5 -49t37 -60t12.5 -52.5v-329q0 -54 -22 -92t-54 -62t-65 -35t-56 -11zM236 -5q-22 0 -55 11t-65.5 35t-54 62
t-21.5 92v329q0 23 12 53.5t37 59.5t62 48.5t86 19.5v-39q-37 0 -66 -16t-49.5 -41t-31 -52t-10.5 -49v-313q0 -38 16.5 -68t41.5 -50.5t51.5 -31.5t46.5 -11v-39z" />
    <glyph glyph-name="Oacute" unicode="&#xd3;" horiz-adv-x="528" 
d="M248 766l37 152h40l-49 -152h-28zM291 -5v39q21 0 48 10.5t51.5 31t41 50.5t16.5 69v313q0 24 -10.5 51t-31 51.5t-49.5 40t-66 15.5v39q49 0 86 -19.5t61.5 -49t37 -60t12.5 -52.5v-329q0 -54 -22 -92t-54 -62t-65 -35t-56 -11zM236 -5q-22 0 -55 11t-65.5 35t-54 62
t-21.5 92v329q0 23 12 53.5t37 59.5t62 48.5t86 19.5v-39q-37 0 -66 -16t-49.5 -41t-31 -52t-10.5 -49v-313q0 -38 16.5 -68t41.5 -50.5t51.5 -31.5t46.5 -11v-39z" />
    <glyph glyph-name="Ocircumflex" unicode="&#xd4;" horiz-adv-x="528" 
d="M171 766l75 152h32l76 -152h-36l-56 113l-55 -113h-36zM291 -5v39q21 0 48 10.5t51.5 31t41 50.5t16.5 69v313q0 24 -10.5 51t-31 51.5t-49.5 40t-66 15.5v39q49 0 86 -19.5t61.5 -49t37 -60t12.5 -52.5v-329q0 -54 -22 -92t-54 -62t-65 -35t-56 -11zM236 -5
q-22 0 -55 11t-65.5 35t-54 62t-21.5 92v329q0 23 12 53.5t37 59.5t62 48.5t86 19.5v-39q-37 0 -66 -16t-49.5 -41t-31 -52t-10.5 -49v-313q0 -38 16.5 -68t41.5 -50.5t51.5 -31.5t46.5 -11v-39z" />
    <glyph glyph-name="Otilde" unicode="&#xd5;" horiz-adv-x="528" 
d="M318 780q-26 0 -47 10t-40.5 20t-43.5 10q-13 0 -29.5 -5t-36.5 -17v39q21 12 38.5 17t31.5 5q26 0 46 -10t40 -20.5t45 -10.5q17 0 36 6.5t44 21.5v-38q-25 -16 -46 -22t-38 -6zM291 -5v39q21 0 48 10.5t51.5 31t41 50.5t16.5 69v313q0 24 -10.5 51t-31 51.5t-49.5 40
t-66 15.5v39q49 0 86 -19.5t61.5 -49t37 -60t12.5 -52.5v-329q0 -54 -22 -92t-54 -62t-65 -35t-56 -11zM236 -5q-22 0 -55 11t-65.5 35t-54 62t-21.5 92v329q0 23 12 53.5t37 59.5t62 48.5t86 19.5v-39q-37 0 -66 -16t-49.5 -41t-31 -52t-10.5 -49v-313q0 -38 16.5 -68
t41.5 -50.5t51.5 -31.5t46.5 -11v-39z" />
    <glyph glyph-name="Odieresis" unicode="&#xd6;" horiz-adv-x="528" 
d="M313 766q-11 0 -19.5 8t-8.5 19t8.5 19t19.5 8t19 -8t8 -19t-8 -19t-19 -8zM212 766q-11 0 -19.5 8t-8.5 19t8.5 19t19.5 8t19 -8t8 -19t-8 -19t-19 -8zM291 -5v39q21 0 48 10.5t51.5 31t41 50.5t16.5 69v313q0 24 -10.5 51t-31 51.5t-49.5 40t-66 15.5v39q49 0 86 -19.5
t61.5 -49t37 -60t12.5 -52.5v-329q0 -54 -22 -92t-54 -62t-65 -35t-56 -11zM236 -5q-22 0 -55 11t-65.5 35t-54 62t-21.5 92v329q0 23 12 53.5t37 59.5t62 48.5t86 19.5v-39q-37 0 -66 -16t-49.5 -41t-31 -52t-10.5 -49v-313q0 -38 16.5 -68t41.5 -50.5t51.5 -31.5t46.5 -11
v-39z" />
    <glyph glyph-name="multiply" unicode="&#xd7;" horiz-adv-x="493" 
d="M520 197l-190 191l-189 -189l-29 30l188 188l-187 188l29 30l188 -188l190 189l29 -30l-189 -189l189 -190z" />
    <glyph glyph-name="Oslash" unicode="&#xd8;" horiz-adv-x="674" 
d="M304 -5q-25 0 -63 14t-73 45t-51 80l-66 -60l-27 26l84 77v347q0 23 12 53.5t37 59.5t62 48.5t86 19.5v-39q-37 0 -66 -16t-49.5 -41t-31 -52t-10.5 -49v-296l364 327q-7 30 -27.5 59t-52 48.5t-73.5 19.5v39q51 0 88.5 -21t62.5 -52t36 -62l64 57l26 -27l-80 -72v-333
q0 -54 -22 -92t-54 -62t-65 -35t-56 -11v39q21 0 48 10.5t51.5 31t41 50.5t16.5 69v297l-365 -328q9 -41 36.5 -70.5t60 -44.5t56.5 -15v-39z" />
    <glyph glyph-name="Ugrave" unicode="&#xd9;" horiz-adv-x="527" 
d="M239 766l-48 152h40l37 -152h-29zM241 -5q-22 0 -56 11t-67 34t-55.5 61t-22.5 92v507h40v-507q0 -41 19 -71.5t46.5 -50t54 -29t41.5 -9.5v-38zM287 -5v38q16 0 42.5 9t53.5 28t45.5 49.5t18.5 73.5v507h40v-507q0 -54 -22 -92t-55 -61.5t-66.5 -34t-56.5 -10.5z" />
    <glyph glyph-name="Uacute" unicode="&#xda;" horiz-adv-x="527" 
d="M242 766l37 152h40l-49 -152h-28zM241 -5q-22 0 -56 11t-67 34t-55.5 61t-22.5 92v507h40v-507q0 -41 19 -71.5t46.5 -50t54 -29t41.5 -9.5v-38zM287 -5v38q16 0 42.5 9t53.5 28t45.5 49.5t18.5 73.5v507h40v-507q0 -54 -22 -92t-55 -61.5t-66.5 -34t-56.5 -10.5z" />
    <glyph glyph-name="Ucircumflex" unicode="&#xdb;" horiz-adv-x="527" 
d="M164 766l75 152h32l76 -152h-36l-56 113l-55 -113h-36zM241 -5q-22 0 -56 11t-67 34t-55.5 61t-22.5 92v507h40v-507q0 -41 19 -71.5t46.5 -50t54 -29t41.5 -9.5v-38zM287 -5v38q16 0 42.5 9t53.5 28t45.5 49.5t18.5 73.5v507h40v-507q0 -54 -22 -92t-55 -61.5t-66.5 -34
t-56.5 -10.5z" />
    <glyph glyph-name="Udieresis" unicode="&#xdc;" horiz-adv-x="527" 
d="M307 766q-11 0 -19.5 8t-8.5 19t8.5 19t19.5 8t19 -8t8 -19t-8 -19t-19 -8zM206 766q-11 0 -19.5 8t-8.5 19t8.5 19t19.5 8t19 -8t8 -19t-8 -19t-19 -8zM241 -5q-22 0 -56 11t-67 34t-55.5 61t-22.5 92v507h40v-507q0 -41 19 -71.5t46.5 -50t54 -29t41.5 -9.5v-38z
M287 -5v38q16 0 42.5 9t53.5 28t45.5 49.5t18.5 73.5v507h40v-507q0 -54 -22 -92t-55 -61.5t-66.5 -34t-56.5 -10.5z" />
    <glyph glyph-name="Yacute" unicode="&#xdd;" horiz-adv-x="487" 
d="M212 766l37 152h40l-49 -152h-28zM214 0v252l-184 448h41l183 -447v-253h-40zM276 311l-19 46l159 343h41l-177 -389h-4z" />
    <glyph glyph-name="Thorn" unicode="&#xde;" horiz-adv-x="474" 
d="M76 0v700h40v-700h-40zM167 208v38h43q35 0 70 5t64 20.5t46.5 46t17.5 80.5t-17 80.5t-45.5 46.5t-64 21.5t-73.5 5.5h-41v38q105 4 166 -13.5t87.5 -60.5t27.5 -118q1 -80 -32.5 -123t-96.5 -57.5t-152 -9.5z" />
    <glyph glyph-name="germandbls" unicode="&#xdf;" horiz-adv-x="522" 
d="M26 0v457q0 22 1 53.5t9 65.5t29 63t59.5 47.5t101.5 18.5q51 0 84 -13.5t52.5 -35.5t29 -47.5t12 -49.5t2.5 -41v-112h-51q-16 1 -27.5 -5t-17 -14t-5.5 -16q0 -11 4.5 -22.5t23 -23.5t58.5 -26q25 -8 49 -24.5t40 -45.5t16 -76q0 -46 -23 -80.5t-61 -53.5t-85 -19h-128
v38h100q39 0 75.5 10t60 35.5t23.5 69.5q0 35 -6.5 53t-22 29.5t-43.5 25.5q-24 12 -52 23t-48.5 30.5t-20.5 56.5q0 31 15.5 47t39 22t46.5 4v12q0 37 -0.5 74t-11 68t-40 50t-88.5 19q-55 0 -87.5 -18t-48 -45.5t-20 -56t-4.5 -49.5v-498h-40z" />
    <glyph glyph-name="agrave" unicode="&#xe0;" horiz-adv-x="464" 
d="M187 580l-48 152h40l37 -152h-29zM196 1q-48 0 -83 18t-54 46t-19 56v46q0 17 3.5 33.5t14 31t31.5 25.5q16 8 47.5 16t69 16t72 17t57 19t22.5 22v16q0 39 -19 66t-45.5 40.5t-51.5 13.5v36q54 0 88.5 -24.5t51.5 -61t17 -72.5v-287q0 -6 4.5 -20t21.5 -14v-39
q-29 0 -42.5 11.5t-23.5 26.5q-19 -19 -53 -28.5t-64 -9.5v38q26 0 53 8t45.5 32t18.5 70v143q-24 -13 -63 -22.5t-81 -18t-75.5 -18t-46.5 -23.5q-11 -11 -11 -39v-39q1 -34 18 -54.5t43.5 -29.5t53.5 -9v-38zM84 375l-37 14q0 37 22 66.5t56.5 46.5t70.5 17v-38
q-27 0 -53 -13.5t-42.5 -37t-16.5 -55.5z" />
    <glyph glyph-name="aacute" unicode="&#xe1;" horiz-adv-x="464" 
d="M190 580l37 152h40l-49 -152h-28zM196 1q-48 0 -83 18t-54 46t-19 56v46q0 17 3.5 33.5t14 31t31.5 25.5q16 8 47.5 16t69 16t72 17t57 19t22.5 22v16q0 39 -19 66t-45.5 40.5t-51.5 13.5v36q54 0 88.5 -24.5t51.5 -61t17 -72.5v-287q0 -6 4.5 -20t21.5 -14v-39
q-29 0 -42.5 11.5t-23.5 26.5q-19 -19 -53 -28.5t-64 -9.5v38q26 0 53 8t45.5 32t18.5 70v143q-24 -13 -63 -22.5t-81 -18t-75.5 -18t-46.5 -23.5q-11 -11 -11 -39v-39q1 -34 18 -54.5t43.5 -29.5t53.5 -9v-38zM84 375l-37 14q0 37 22 66.5t56.5 46.5t70.5 17v-38
q-27 0 -53 -13.5t-42.5 -37t-16.5 -55.5z" />
    <glyph glyph-name="acircumflex" unicode="&#xe2;" horiz-adv-x="464" 
d="M112 580l75 152h32l76 -152h-36l-56 113l-55 -113h-36zM196 1q-48 0 -83 18t-54 46t-19 56v46q0 17 3.5 33.5t14 31t31.5 25.5q16 8 47.5 16t69 16t72 17t57 19t22.5 22v16q0 39 -19 66t-45.5 40.5t-51.5 13.5v36q54 0 88.5 -24.5t51.5 -61t17 -72.5v-287q0 -6 4.5 -20
t21.5 -14v-39q-29 0 -42.5 11.5t-23.5 26.5q-19 -19 -53 -28.5t-64 -9.5v38q26 0 53 8t45.5 32t18.5 70v143q-24 -13 -63 -22.5t-81 -18t-75.5 -18t-46.5 -23.5q-11 -11 -11 -39v-39q1 -34 18 -54.5t43.5 -29.5t53.5 -9v-38zM84 375l-37 14q0 37 22 66.5t56.5 46.5t70.5 17
v-38q-27 0 -53 -13.5t-42.5 -37t-16.5 -55.5z" />
    <glyph glyph-name="atilde" unicode="&#xe3;" horiz-adv-x="464" 
d="M270 580q-26 0 -47 10t-40.5 20t-43.5 10q-13 0 -29.5 -5t-36.5 -17v39q21 12 38.5 17t31.5 5q26 0 46 -10t40 -20.5t45 -10.5q17 0 36 6.5t44 21.5v-38q-25 -16 -46 -22t-38 -6zM196 1q-48 0 -83 18t-54 46t-19 56v46q0 17 3.5 33.5t14 31t31.5 25.5q16 8 47.5 16t69 16
t72 17t57 19t22.5 22v16q0 39 -19 66t-45.5 40.5t-51.5 13.5v36q54 0 88.5 -24.5t51.5 -61t17 -72.5v-287q0 -6 4.5 -20t21.5 -14v-39q-29 0 -42.5 11.5t-23.5 26.5q-19 -19 -53 -28.5t-64 -9.5v38q26 0 53 8t45.5 32t18.5 70v143q-24 -13 -63 -22.5t-81 -18t-75.5 -18
t-46.5 -23.5q-11 -11 -11 -39v-39q1 -34 18 -54.5t43.5 -29.5t53.5 -9v-38zM84 375l-37 14q0 37 22 66.5t56.5 46.5t70.5 17v-38q-27 0 -53 -13.5t-42.5 -37t-16.5 -55.5z" />
    <glyph glyph-name="adieresis" unicode="&#xe4;" horiz-adv-x="464" 
d="M255 580q-11 0 -19.5 8t-8.5 19t8.5 19t19.5 8t19 -8t8 -19t-8 -19t-19 -8zM154 580q-11 0 -19.5 8t-8.5 19t8.5 19t19.5 8t19 -8t8 -19t-8 -19t-19 -8zM196 1q-48 0 -83 18t-54 46t-19 56v46q0 17 3.5 33.5t14 31t31.5 25.5q16 8 47.5 16t69 16t72 17t57 19t22.5 22v16
q0 39 -19 66t-45.5 40.5t-51.5 13.5v36q54 0 88.5 -24.5t51.5 -61t17 -72.5v-287q0 -6 4.5 -20t21.5 -14v-39q-29 0 -42.5 11.5t-23.5 26.5q-19 -19 -53 -28.5t-64 -9.5v38q26 0 53 8t45.5 32t18.5 70v143q-24 -13 -63 -22.5t-81 -18t-75.5 -18t-46.5 -23.5q-11 -11 -11 -39
v-39q1 -34 18 -54.5t43.5 -29.5t53.5 -9v-38zM84 375l-37 14q0 37 22 66.5t56.5 46.5t70.5 17v-38q-27 0 -53 -13.5t-42.5 -37t-16.5 -55.5z" />
    <glyph glyph-name="aring" unicode="&#xe5;" horiz-adv-x="464" 
d="M216 609q-28 0 -47.5 19.5t-19.5 47.5t19.5 47.5t47.5 19.5t47.5 -19.5t19.5 -47.5t-19.5 -47.5t-47.5 -19.5zM216 644q14 0 23 9.5t9 22.5q0 14 -9 23t-23 9q-13 0 -22.5 -9t-9.5 -23q0 -13 9.5 -22.5t22.5 -9.5zM196 1q-48 0 -83 18t-54 46t-19 56v46q0 17 3.5 33.5
t14 31t31.5 25.5q16 8 47.5 16t69 16t72 17t57 19t22.5 22v16q0 39 -19 66t-45.5 40.5t-51.5 13.5v36q54 0 88.5 -24.5t51.5 -61t17 -72.5v-287q0 -6 4.5 -20t21.5 -14v-39q-29 0 -42.5 11.5t-23.5 26.5q-19 -19 -53 -28.5t-64 -9.5v38q26 0 53 8t45.5 32t18.5 70v143
q-24 -13 -63 -22.5t-81 -18t-75.5 -18t-46.5 -23.5q-11 -11 -11 -39v-39q1 -34 18 -54.5t43.5 -29.5t53.5 -9v-38zM84 375l-37 14q0 37 22 66.5t56.5 46.5t70.5 17v-38q-27 0 -53 -13.5t-42.5 -37t-16.5 -55.5z" />
    <glyph glyph-name="ae" unicode="&#xe6;" horiz-adv-x="435" 
d="M530 0q-56 0 -97.5 19.5t-61.5 53.5q-23 -40 -60 -56.5t-84 -15.5v38q29 0 55.5 7.5t43.5 31t17 71.5v159q-12 -13 -43.5 -22t-71 -18.5t-76.5 -22t-61 -32.5t-24 -51v-20q0 -38 17 -60.5t43.5 -32.5t54.5 -10v-38q-48 0 -83 18t-54 46t-19 56v36q0 40 23 66t59 42
t76.5 27t76.5 20t59 20.5t23 30.5v19q0 27 -19 50t-51 37t-70 14q-33 0 -63.5 -10.5t-50 -34.5t-19.5 -63l-37 14q0 45 25.5 74t65 43t81.5 14q52 0 94 -20t66 -62q19 30 54.5 54t87.5 24v-38q-36 0 -64 -18.5t-43.5 -45.5t-15.5 -55v-74h291v84q0 30 -18 55t-46 40.5
t-59 15.5v36q38 0 75.5 -19t62.5 -50t25 -69v-131h-331v-106q0 -29 22 -53t56 -38t70 -14q53 0 93.5 27t53.5 70l37 -13q-16 -56 -62.5 -88t-123.5 -32z" />
    <glyph glyph-name="ccedilla" unicode="&#xe7;" horiz-adv-x="432" 
d="M104 -172v38q44 0 72.5 26.5t28.5 67.5h40q0 -28 -14 -58.5t-45 -52t-82 -21.5zM199 0q-45 0 -76 15t-49 38t-26 46.5t-8 41.5v231q0 22 10 47t30 47t50 36t70 14v-38q-35 0 -62 -18t-42 -43t-15 -48v-228q0 -20 15 -44.5t41.5 -41.5t61.5 -17v-38zM243 -1v38
q28 0 54 14.5t44 39t21 54.5l1 14l39 -15q0 -39 -23 -72t-59.5 -53t-76.5 -20zM352 358l-1 16q-3 36 -20.5 58.5t-41 33.5t-45.5 11v39q41 0 74 -19.5t53 -52t20 -72.5z" />
    <glyph glyph-name="egrave" unicode="&#xe8;" horiz-adv-x="452" 
d="M207 577l-48 152h40l37 -152h-29zM204 0q-40 0 -70.5 15t-51.5 37.5t-31.5 46.5t-10.5 42v236q0 18 10.5 41.5t31 46t51 37t70.5 14.5v-38q-36 0 -63.5 -18.5t-43.5 -44t-16 -46.5v-84h291v84q0 30 -18 55t-46 40.5t-59 15.5v36q38 0 75.5 -19t62.5 -50t25 -69v-131h-331
v-106q0 -18 17 -42t45.5 -42.5t61.5 -18.5v-38zM248 0v41q36 0 62 16t42.5 37.5t20.5 39.5l39 -14q-9 -32 -31 -59.5t-55.5 -44t-77.5 -16.5z" />
    <glyph glyph-name="eacute" unicode="&#xe9;" horiz-adv-x="452" 
d="M210 577l37 152h40l-49 -152h-28zM204 0q-40 0 -70.5 15t-51.5 37.5t-31.5 46.5t-10.5 42v236q0 18 10.5 41.5t31 46t51 37t70.5 14.5v-38q-36 0 -63.5 -18.5t-43.5 -44t-16 -46.5v-84h291v84q0 30 -18 55t-46 40.5t-59 15.5v36q38 0 75.5 -19t62.5 -50t25 -69v-131h-331
v-106q0 -18 17 -42t45.5 -42.5t61.5 -18.5v-38zM248 0v41q36 0 62 16t42.5 37.5t20.5 39.5l39 -14q-9 -32 -31 -59.5t-55.5 -44t-77.5 -16.5z" />
    <glyph glyph-name="ecircumflex" unicode="&#xea;" horiz-adv-x="452" 
d="M132 577l75 152h32l76 -152h-36l-56 113l-55 -113h-36zM204 0q-40 0 -70.5 15t-51.5 37.5t-31.5 46.5t-10.5 42v236q0 18 10.5 41.5t31 46t51 37t70.5 14.5v-38q-36 0 -63.5 -18.5t-43.5 -44t-16 -46.5v-84h291v84q0 30 -18 55t-46 40.5t-59 15.5v36q38 0 75.5 -19
t62.5 -50t25 -69v-131h-331v-106q0 -18 17 -42t45.5 -42.5t61.5 -18.5v-38zM248 0v41q36 0 62 16t42.5 37.5t20.5 39.5l39 -14q-9 -32 -31 -59.5t-55.5 -44t-77.5 -16.5z" />
    <glyph glyph-name="edieresis" unicode="&#xeb;" horiz-adv-x="452" 
d="M275 577q-11 0 -19.5 8t-8.5 19t8.5 19t19.5 8t19 -8t8 -19t-8 -19t-19 -8zM174 577q-11 0 -19.5 8t-8.5 19t8.5 19t19.5 8t19 -8t8 -19t-8 -19t-19 -8zM204 0q-40 0 -70.5 15t-51.5 37.5t-31.5 46.5t-10.5 42v236q0 18 10.5 41.5t31 46t51 37t70.5 14.5v-38
q-36 0 -63.5 -18.5t-43.5 -44t-16 -46.5v-84h291v84q0 30 -18 55t-46 40.5t-59 15.5v36q38 0 75.5 -19t62.5 -50t25 -69v-131h-331v-106q0 -18 17 -42t45.5 -42.5t61.5 -18.5v-38zM248 0v41q36 0 62 16t42.5 37.5t20.5 39.5l39 -14q-9 -32 -31 -59.5t-55.5 -44t-77.5 -16.5z
" />
    <glyph glyph-name="igrave" unicode="&#xec;" horiz-adv-x="174" 
d="M71 577l-48 152h40l37 -152h-29zM68 0v516h40v-516h-40z" />
    <glyph glyph-name="iacute" unicode="&#xed;" horiz-adv-x="174" 
d="M74 577l37 152h40l-49 -152h-28zM68 0v516h40v-516h-40z" />
    <glyph glyph-name="icircumflex" unicode="&#xee;" horiz-adv-x="174" 
d="M-4 577l75 152h32l76 -152h-36l-56 113l-55 -113h-36zM68 0v516h40v-516h-40z" />
    <glyph glyph-name="idieresis" unicode="&#xef;" horiz-adv-x="174" 
d="M139 577q-11 0 -19.5 8t-8.5 19t8.5 19t19.5 8t19 -8t8 -19t-8 -19t-19 -8zM38 577q-11 0 -19.5 8t-8.5 19t8.5 19t19.5 8t19 -8t8 -19t-8 -19t-19 -8zM68 0v516h40v-516h-40z" />
    <glyph glyph-name="eth" unicode="&#xf0;" horiz-adv-x="420" 
d="M233 -1v38q38 0 64.5 19.5t40.5 46.5t14 49l-1 221q0 23 -15 47t-41.5 41t-61.5 17v38q38 0 66.5 -12.5t47.5 -32.5q0 37 -7.5 65.5t-19.5 50.5l-65 -20l-11 37l54 16q-25 29 -54.5 43.5t-51.5 22.5v28q38 -7 77 -25.5t69 -56.5l59 17l11 -36l-49 -15q16 -30 24.5 -69.5
t8.5 -92.5v-295q0 -18 -9.5 -42.5t-29.5 -47t-49.5 -37.5t-70.5 -15zM192 -1q-42 0 -73 15t-51 38t-30 47t-10 42v235q0 18 10 42t30.5 46.5t51.5 37t72 14.5v-38q-40 0 -67.5 -19t-42 -45.5t-14.5 -50.5v-209q0 -21 16 -48.5t44 -48t64 -20.5v-38z" />
    <glyph glyph-name="ntilde" unicode="&#xf1;" horiz-adv-x="450" 
d="M282 580q-26 0 -47 10t-40.5 20t-43.5 10q-13 0 -29.5 -5t-36.5 -17v39q21 12 38.5 17t31.5 5q26 0 46 -10t40 -20.5t45 -10.5q17 0 36 6.5t44 21.5v-38q-25 -16 -46 -22t-38 -6zM38 377q0 19 10.5 43.5t31.5 47t52 37t72 14.5v-40q-31 0 -60 -15.5t-47.5 -40
t-18.5 -51.5v-372h-40v377zM372 372q0 17 -14.5 42t-42.5 45t-69 20v40q41 0 72 -15t52 -38t31.5 -47t10.5 -42v-377h-40v372z" />
    <glyph glyph-name="ograve" unicode="&#xf2;" horiz-adv-x="440" 
d="M206 577l-48 152h40l37 -152h-29zM202 -1q-42 0 -73 15t-51 38t-30 47t-10 42v235q0 18 10 42t30.5 46.5t51.5 37t72 14.5v-38q-40 0 -67.5 -19t-42 -45.5t-14.5 -50.5v-209q0 -21 16 -48.5t44 -48t64 -20.5v-38zM243 -1v38q38 0 64.5 19.5t40.5 46.5t14 49v211
q0 23 -14 49.5t-40.5 46t-64.5 19.5v38q41 0 70.5 -14.5t49.5 -37t29.5 -46.5t9.5 -42v-235q0 -18 -9.5 -42.5t-29.5 -47t-49.5 -37.5t-70.5 -15z" />
    <glyph glyph-name="oacute" unicode="&#xf3;" horiz-adv-x="440" 
d="M209 577l37 152h40l-49 -152h-28zM202 -1q-42 0 -73 15t-51 38t-30 47t-10 42v235q0 18 10 42t30.5 46.5t51.5 37t72 14.5v-38q-40 0 -67.5 -19t-42 -45.5t-14.5 -50.5v-209q0 -21 16 -48.5t44 -48t64 -20.5v-38zM243 -1v38q38 0 64.5 19.5t40.5 46.5t14 49v211
q0 23 -14 49.5t-40.5 46t-64.5 19.5v38q41 0 70.5 -14.5t49.5 -37t29.5 -46.5t9.5 -42v-235q0 -18 -9.5 -42.5t-29.5 -47t-49.5 -37.5t-70.5 -15z" />
    <glyph glyph-name="ocircumflex" unicode="&#xf4;" horiz-adv-x="440" 
d="M131 577l75 152h32l76 -152h-36l-56 113l-55 -113h-36zM202 -1q-42 0 -73 15t-51 38t-30 47t-10 42v235q0 18 10 42t30.5 46.5t51.5 37t72 14.5v-38q-40 0 -67.5 -19t-42 -45.5t-14.5 -50.5v-209q0 -21 16 -48.5t44 -48t64 -20.5v-38zM243 -1v38q38 0 64.5 19.5
t40.5 46.5t14 49v211q0 23 -14 49.5t-40.5 46t-64.5 19.5v38q41 0 70.5 -14.5t49.5 -37t29.5 -46.5t9.5 -42v-235q0 -18 -9.5 -42.5t-29.5 -47t-49.5 -37.5t-70.5 -15z" />
    <glyph glyph-name="otilde" unicode="&#xf5;" horiz-adv-x="440" 
d="M279 577q-26 0 -47 10t-40.5 20t-43.5 10q-13 0 -29.5 -5t-36.5 -17v39q21 12 38.5 17t31.5 5q26 0 46 -10t40 -20.5t45 -10.5q17 0 36 6.5t44 21.5v-38q-25 -16 -46 -22t-38 -6zM202 -1q-42 0 -73 15t-51 38t-30 47t-10 42v235q0 18 10 42t30.5 46.5t51.5 37t72 14.5
v-38q-40 0 -67.5 -19t-42 -45.5t-14.5 -50.5v-209q0 -21 16 -48.5t44 -48t64 -20.5v-38zM243 -1v38q38 0 64.5 19.5t40.5 46.5t14 49v211q0 23 -14 49.5t-40.5 46t-64.5 19.5v38q41 0 70.5 -14.5t49.5 -37t29.5 -46.5t9.5 -42v-235q0 -18 -9.5 -42.5t-29.5 -47t-49.5 -37.5
t-70.5 -15z" />
    <glyph glyph-name="odieresis" unicode="&#xf6;" horiz-adv-x="440" 
d="M274 577q-11 0 -19.5 8t-8.5 19t8.5 19t19.5 8t19 -8t8 -19t-8 -19t-19 -8zM173 577q-11 0 -19.5 8t-8.5 19t8.5 19t19.5 8t19 -8t8 -19t-8 -19t-19 -8zM202 -1q-42 0 -73 15t-51 38t-30 47t-10 42v235q0 18 10 42t30.5 46.5t51.5 37t72 14.5v-38q-40 0 -67.5 -19
t-42 -45.5t-14.5 -50.5v-209q0 -21 16 -48.5t44 -48t64 -20.5v-38zM243 -1v38q38 0 64.5 19.5t40.5 46.5t14 49v211q0 23 -14 49.5t-40.5 46t-64.5 19.5v38q41 0 70.5 -14.5t49.5 -37t29.5 -46.5t9.5 -42v-235q0 -18 -9.5 -42.5t-29.5 -47t-49.5 -37.5t-70.5 -15z" />
    <glyph glyph-name="divide" unicode="&#xf7;" horiz-adv-x="650" 
d="M100 273v38h450v-38h-450zM334 372q-16 0 -27.5 11.5t-11.5 27.5t11.5 27.5t27.5 11.5t27.5 -11.5t11.5 -27.5t-11.5 -27.5t-27.5 -11.5zM334 135q-16 0 -27.5 11.5t-11.5 27.5t11.5 27.5t27.5 11.5t27.5 -11.5t11.5 -27.5t-11.5 -27.5t-27.5 -11.5z" />
    <glyph glyph-name="oslash" unicode="&#xf8;" horiz-adv-x="516" 
d="M230 -1q-54 0 -90 24.5t-54 55.5l-45 -41l-27 30l55 50l-2 12t-1 11v235q0 18 10 42t30.5 46.5t51.5 37t72 14.5v-38q-40 0 -67.5 -19t-42 -45.5t-14.5 -50.5v-211l274 252q-13 28 -40.5 51t-68.5 23v38q54 0 89.5 -25t52.5 -57l46 41l27 -29l-58 -53q1 -4 1.5 -8.5
t0.5 -8.5v-235q0 -18 -9.5 -42.5t-29.5 -47t-49.5 -37.5t-70.5 -15v38q38 0 64.5 19.5t40.5 46.5t14 49v206l-271 -248q15 -28 44 -50.5t67 -22.5v-38z" />
    <glyph glyph-name="ugrave" unicode="&#xf9;" horiz-adv-x="450" 
d="M209 577l-48 152h40l37 -152h-29zM246 -5v40q36 0 64.5 17t45 41.5t16.5 48.5v372h40v-377q0 -18 -10 -42t-31 -47t-52 -38t-73 -15zM204 -5q-42 0 -73.5 14.5t-52 37t-30.5 47t-10 43.5v377h40v-372q0 -23 17 -48t45.5 -42t63.5 -17v-40z" />
    <glyph glyph-name="uacute" unicode="&#xfa;" horiz-adv-x="450" 
d="M211 577l37 152h40l-49 -152h-28zM246 -5v40q36 0 64.5 17t45 41.5t16.5 48.5v372h40v-377q0 -18 -10 -42t-31 -47t-52 -38t-73 -15zM204 -5q-42 0 -73.5 14.5t-52 37t-30.5 47t-10 43.5v377h40v-372q0 -23 17 -48t45.5 -42t63.5 -17v-40z" />
    <glyph glyph-name="ucircumflex" unicode="&#xfb;" horiz-adv-x="450" 
d="M134 577l75 152h32l76 -152h-36l-56 113l-55 -113h-36zM246 -5v40q36 0 64.5 17t45 41.5t16.5 48.5v372h40v-377q0 -18 -10 -42t-31 -47t-52 -38t-73 -15zM204 -5q-42 0 -73.5 14.5t-52 37t-30.5 47t-10 43.5v377h40v-372q0 -23 17 -48t45.5 -42t63.5 -17v-40z" />
    <glyph glyph-name="udieresis" unicode="&#xfc;" horiz-adv-x="450" 
d="M276 577q-11 0 -19.5 8t-8.5 19t8.5 19t19.5 8t19 -8t8 -19t-8 -19t-19 -8zM175 577q-11 0 -19.5 8t-8.5 19t8.5 19t19.5 8t19 -8t8 -19t-8 -19t-19 -8zM246 -5v40q36 0 64.5 17t45 41.5t16.5 48.5v372h40v-377q0 -18 -10 -42t-31 -47t-52 -38t-73 -15zM204 -5
q-42 0 -73.5 14.5t-52 37t-30.5 47t-10 43.5v377h40v-372q0 -23 17 -48t45.5 -42t63.5 -17v-40z" />
    <glyph glyph-name="yacute" unicode="&#xfd;" horiz-adv-x="390" 
d="M181 577l37 152h40l-49 -152h-28zM76 -182l97 293l-169 404h39l169 -404l-97 -293h-39zM230 156l-17 41l134 318h39l-151 -359h-5z" />
    <glyph glyph-name="thorn" unicode="&#xfe;" horiz-adv-x="422" 
d="M30 -182v882h40v-882h-40zM122 0v38h112q30 0 58 13t46 39.5t18 67.5v206q0 53 -37 83.5t-91 30.5h-113v38h113q54 0 91.5 -23.5t57 -56.5t19.5 -61v-236q0 -26 -17.5 -59t-53.5 -56.5t-93 -23.5h-110z" />
    <glyph glyph-name="ydieresis" unicode="&#xff;" horiz-adv-x="390" 
d="M246 577q-11 0 -19.5 8t-8.5 19t8.5 19t19.5 8t19 -8t8 -19t-8 -19t-19 -8zM145 577q-11 0 -19.5 8t-8.5 19t8.5 19t19.5 8t19 -8t8 -19t-8 -19t-19 -8zM76 -182l97 293l-169 404h39l169 -404l-97 -293h-39zM230 156l-17 41l134 318h39l-151 -359h-5z" />
    <glyph glyph-name="Amacron" unicode="&#x100;" horiz-adv-x="429" 
d="M71 766v30h316v-30h-316zM359 0l-28 135h-187l8 38h170l-115 526h40l152 -699h-40zM30 0l137 599h17l10 -45l-124 -554h-40z" />
    <glyph glyph-name="amacron" unicode="&#x101;" horiz-adv-x="464" 
d="M66 580v30h316v-30h-316zM196 1q-48 0 -83 18t-54 46t-19 56v46q0 17 3.5 33.5t14 31t31.5 25.5q16 8 47.5 16t69 16t72 17t57 19t22.5 22v16q0 39 -19 66t-45.5 40.5t-51.5 13.5v36q54 0 88.5 -24.5t51.5 -61t17 -72.5v-287q0 -6 4.5 -20t21.5 -14v-39q-29 0 -42.5 11.5
t-23.5 26.5q-19 -19 -53 -28.5t-64 -9.5v38q26 0 53 8t45.5 32t18.5 70v143q-24 -13 -63 -22.5t-81 -18t-75.5 -18t-46.5 -23.5q-11 -11 -11 -39v-39q1 -34 18 -54.5t43.5 -29.5t53.5 -9v-38zM84 375l-37 14q0 37 22 66.5t56.5 46.5t70.5 17v-38q-27 0 -53 -13.5t-42.5 -37
t-16.5 -55.5z" />
    <glyph glyph-name="Abreve" unicode="&#x102;" horiz-adv-x="429" 
d="M229 766q-22 0 -36 11t-21 26t-7 25h32q0 -13 9.5 -22.5t22.5 -9.5q14 0 23 9.5t9 22.5h32q0 -10 -7 -25t-21 -26t-36 -11zM359 0l-28 135h-187l8 38h170l-115 526h40l152 -699h-40zM30 0l137 599h17l10 -45l-124 -554h-40z" />
    <glyph glyph-name="abreve" unicode="&#x103;" horiz-adv-x="464" 
d="M204 580q-22 0 -36 11t-21 26t-7 25h32q0 -13 9.5 -22.5t22.5 -9.5q14 0 23 9.5t9 22.5h32q0 -10 -7 -25t-21 -26t-36 -11zM196 1q-48 0 -83 18t-54 46t-19 56v46q0 17 3.5 33.5t14 31t31.5 25.5q16 8 47.5 16t69 16t72 17t57 19t22.5 22v16q0 39 -19 66t-45.5 40.5
t-51.5 13.5v36q54 0 88.5 -24.5t51.5 -61t17 -72.5v-287q0 -6 4.5 -20t21.5 -14v-39q-29 0 -42.5 11.5t-23.5 26.5q-19 -19 -53 -28.5t-64 -9.5v38q26 0 53 8t45.5 32t18.5 70v143q-24 -13 -63 -22.5t-81 -18t-75.5 -18t-46.5 -23.5q-11 -11 -11 -39v-39q1 -34 18 -54.5
t43.5 -29.5t53.5 -9v-38zM84 375l-37 14q0 37 22 66.5t56.5 46.5t70.5 17v-38q-27 0 -53 -13.5t-42.5 -37t-16.5 -55.5z" />
    <glyph glyph-name="Aogonek" unicode="&#x104;" horiz-adv-x="429" 
d="M509 -172q-51 0 -82 21.5t-45 52t-14 58.5h40q0 -41 28.5 -67.5t72.5 -26.5v-38zM359 0l-28 135h-187l8 38h170l-115 526h40l152 -699h-40zM30 0l137 599h17l10 -45l-124 -554h-40z" />
    <glyph glyph-name="aogonek" unicode="&#x105;" horiz-adv-x="464" 
d="M484 -172q-51 0 -82 21.5t-45 52t-14 58.5h40q0 -41 28.5 -67.5t72.5 -26.5v-38zM196 1q-48 0 -83 18t-54 46t-19 56v46q0 17 3.5 33.5t14 31t31.5 25.5q16 8 47.5 16t69 16t72 17t57 19t22.5 22v16q0 39 -19 66t-45.5 40.5t-51.5 13.5v36q54 0 88.5 -24.5t51.5 -61
t17 -72.5v-287q0 -6 4.5 -20t21.5 -14v-39q-29 0 -42.5 11.5t-23.5 26.5q-19 -19 -53 -28.5t-64 -9.5v38q26 0 53 8t45.5 32t18.5 70v143q-24 -13 -63 -22.5t-81 -18t-75.5 -18t-46.5 -23.5q-11 -11 -11 -39v-39q1 -34 18 -54.5t43.5 -29.5t53.5 -9v-38zM84 375l-37 14
q0 37 22 66.5t56.5 46.5t70.5 17v-38q-27 0 -53 -13.5t-42.5 -37t-16.5 -55.5z" />
    <glyph glyph-name="Cacute" unicode="&#x106;" horiz-adv-x="516" 
d="M276 766l37 152h40l-49 -152h-28zM241 -5q-55 0 -93.5 20t-62.5 50.5t-34.5 62t-10.5 53.5v337q0 23 11 54.5t34.5 62t62 51t93.5 20.5v-39q-43 0 -73.5 -16t-50 -40t-28.5 -49t-9 -44v-337q0 -19 9.5 -44t29 -49t50 -39.5t72.5 -15.5v-38zM286 -5v38q25 1 55 11.5
t55.5 33.5t36.5 61q2 8 4 16.5t3 15.5t1.5 12.5t0.5 6.5l34 -8q0 -53 -27.5 -95.5t-70.5 -67t-92 -24.5zM440 507v8.5t-1 8.5q-1 6 -2.5 12.5t-3.5 13.5q-15 44 -38 68t-46.5 34t-41 12.5t-21.5 2.5v39q36 0 70 -16t61 -43t43 -61t16 -70z" />
    <glyph glyph-name="cacute" unicode="&#x107;" horiz-adv-x="432" 
d="M206 577l37 152h40l-49 -152h-28zM199 0q-45 0 -76 15t-49 38t-26 46.5t-8 41.5v231q0 22 10 47t30 47t50 36t70 14v-38q-35 0 -62 -18t-42 -43t-15 -48v-228q0 -20 15 -44.5t41.5 -41.5t61.5 -17v-38zM243 -1v38q28 0 54 14.5t44 39t21 54.5l1 14l39 -15q0 -39 -23 -72
t-59.5 -53t-76.5 -20zM352 358l-1 16q-3 36 -20.5 58.5t-41 33.5t-45.5 11v39q41 0 74 -19.5t53 -52t20 -72.5z" />
    <glyph glyph-name="Ccaron" unicode="&#x10c;" horiz-adv-x="516" 
d="M246 766l-76 152h36l56 -113l55 113h36l-75 -152h-32zM241 -5q-55 0 -93.5 20t-62.5 50.5t-34.5 62t-10.5 53.5v337q0 23 11 54.5t34.5 62t62 51t93.5 20.5v-39q-43 0 -73.5 -16t-50 -40t-28.5 -49t-9 -44v-337q0 -19 9.5 -44t29 -49t50 -39.5t72.5 -15.5v-38zM286 -5v38
q25 1 55 11.5t55.5 33.5t36.5 61q2 8 4 16.5t3 15.5t1.5 12.5t0.5 6.5l34 -8q0 -53 -27.5 -95.5t-70.5 -67t-92 -24.5zM440 507v8.5t-1 8.5q-1 6 -2.5 12.5t-3.5 13.5q-15 44 -38 68t-46.5 34t-41 12.5t-21.5 2.5v39q36 0 70 -16t61 -43t43 -61t16 -70z" />
    <glyph glyph-name="ccaron" unicode="&#x10d;" horiz-adv-x="432" 
d="M205 577l-76 152h36l56 -113l55 113h36l-75 -152h-32zM199 0q-45 0 -76 15t-49 38t-26 46.5t-8 41.5v231q0 22 10 47t30 47t50 36t70 14v-38q-35 0 -62 -18t-42 -43t-15 -48v-228q0 -20 15 -44.5t41.5 -41.5t61.5 -17v-38zM243 -1v38q28 0 54 14.5t44 39t21 54.5l1 14
l39 -15q0 -39 -23 -72t-59.5 -53t-76.5 -20zM352 358l-1 16q-3 36 -20.5 58.5t-41 33.5t-45.5 11v39q41 0 74 -19.5t53 -52t20 -72.5z" />
    <glyph glyph-name="Dcaron" unicode="&#x10e;" horiz-adv-x="472" 
d="M223 766l-76 152h36l56 -113l55 113h36l-75 -152h-32zM125 0v38q54 0 102 3.5t85 17.5t58.5 47t21.5 91v306q0 62 -22.5 95t-60 46.5t-85.5 15.5t-99 2v38q58 0 112.5 -3t98.5 -19.5t70 -57.5t26 -117v-306q0 -74 -25 -114.5t-68.5 -58t-98.5 -21t-115 -3.5zM40 0v700h40
v-700h-40z" />
    <glyph glyph-name="dcaron" unicode="&#x10f;" horiz-adv-x="428" 
d="M463 547l37 152h39l-37 -152h-39zM187 0q-40 0 -69.5 15t-49 37.5t-29 46.5t-9.5 42v236q0 26 12.5 50.5t34 44.5t49 32t58.5 12h119v-38h-118q-27 0 -53.5 -15t-44 -39t-17.5 -51v-230q0 -28 19 -52t45.5 -38.5t50.5 -14.5h118v-38h-116zM348 0v699h40v-699h-40z" />
    <glyph glyph-name="Dcroat" unicode="&#x110;" horiz-adv-x="504" 
d="M82 0v335h-56v38h56v327h40v-327h56v-38h-56v-335h-40zM167 0v38q54 0 102 3.5t85 17.5t58.5 47t21.5 91v306q0 62 -22.5 95t-60 46.5t-85.5 15.5t-99 2v38q58 0 112.5 -3t98.5 -19.5t70 -57.5t26 -117v-306q0 -74 -25 -114.5t-68.5 -58t-98.5 -21t-115 -3.5z" />
    <glyph glyph-name="dcroat" unicode="&#x111;" horiz-adv-x="414" 
d="M344 0v587h-64v38h64v74h40v-74h64v-38h-64v-587h-40zM183 0q-40 0 -69.5 15t-49 37.5t-29 46.5t-9.5 42v236q0 26 12.5 50.5t34 44.5t49 32t58.5 12h119v-38h-118q-27 0 -53.5 -15t-44 -39t-17.5 -51v-230q0 -28 19 -52t45.5 -38.5t50.5 -14.5h118v-38h-116z" />
    <glyph glyph-name="Emacron" unicode="&#x112;" horiz-adv-x="444" 
d="M66 766v30h316v-30h-316zM40 0v700h364v-38h-324v-294h230v-38h-230v-292h324v-38h-364z" />
    <glyph glyph-name="emacron" unicode="&#x113;" horiz-adv-x="452" 
d="M66 577v30h316v-30h-316zM204 0q-40 0 -70.5 15t-51.5 37.5t-31.5 46.5t-10.5 42v236q0 18 10.5 41.5t31 46t51 37t70.5 14.5v-38q-36 0 -63.5 -18.5t-43.5 -44t-16 -46.5v-84h291v84q0 30 -18 55t-46 40.5t-59 15.5v36q38 0 75.5 -19t62.5 -50t25 -69v-131h-331v-106
q0 -18 17 -42t45.5 -42.5t61.5 -18.5v-38zM248 0v41q36 0 62 16t42.5 37.5t20.5 39.5l39 -14q-9 -32 -31 -59.5t-55.5 -44t-77.5 -16.5z" />
    <glyph glyph-name="Edotaccent" unicode="&#x116;" horiz-adv-x="444" 
d="M224 766q-13 0 -21.5 8.5t-8.5 21.5t8.5 22t21.5 9t21.5 -9t8.5 -22t-8.5 -21.5t-21.5 -8.5zM40 0v700h364v-38h-324v-294h230v-38h-230v-292h324v-38h-364z" />
    <glyph glyph-name="edotaccent" unicode="&#x117;" horiz-adv-x="452" 
d="M224 577q-13 0 -21.5 8.5t-8.5 21.5t8.5 22t21.5 9t21.5 -9t8.5 -22t-8.5 -21.5t-21.5 -8.5zM204 0q-40 0 -70.5 15t-51.5 37.5t-31.5 46.5t-10.5 42v236q0 18 10.5 41.5t31 46t51 37t70.5 14.5v-38q-36 0 -63.5 -18.5t-43.5 -44t-16 -46.5v-84h291v84q0 30 -18 55
t-46 40.5t-59 15.5v36q38 0 75.5 -19t62.5 -50t25 -69v-131h-331v-106q0 -18 17 -42t45.5 -42.5t61.5 -18.5v-38zM248 0v41q36 0 62 16t42.5 37.5t20.5 39.5l39 -14q-9 -32 -31 -59.5t-55.5 -44t-77.5 -16.5z" />
    <glyph glyph-name="Eogonek" unicode="&#x118;" horiz-adv-x="444" 
d="M410 -172q-50 0 -81.5 21.5t-45.5 52t-14 58.5h40q0 -41 28.5 -67.5t72.5 -26.5v-38zM40 0v700h364v-38h-324v-294h230v-38h-230v-292h324v-38h-364z" />
    <glyph glyph-name="eogonek" unicode="&#x119;" horiz-adv-x="452" 
d="M348 -172q-50 0 -81.5 21.5t-45.5 52t-14 58.5h40q0 -41 28.5 -67.5t72.5 -26.5v-38zM204 0q-40 0 -70.5 15t-51.5 37.5t-31.5 46.5t-10.5 42v236q0 18 10.5 41.5t31 46t51 37t70.5 14.5v-38q-36 0 -63.5 -18.5t-43.5 -44t-16 -46.5v-84h291v84q0 30 -18 55t-46 40.5
t-59 15.5v36q38 0 75.5 -19t62.5 -50t25 -69v-131h-331v-106q0 -18 17 -42t45.5 -42.5t61.5 -18.5v-38zM248 0v41q36 0 62 16t42.5 37.5t20.5 39.5l39 -14q-9 -32 -31 -59.5t-55.5 -44t-77.5 -16.5z" />
    <glyph glyph-name="Ecaron" unicode="&#x11a;" horiz-adv-x="444" 
d="M208 766l-76 152h36l56 -113l55 113h36l-75 -152h-32zM40 0v700h364v-38h-324v-294h230v-38h-230v-292h324v-38h-364z" />
    <glyph glyph-name="ecaron" unicode="&#x11b;" horiz-adv-x="452" 
d="M208 577l-76 152h36l56 -113l55 113h36l-75 -152h-32zM204 0q-40 0 -70.5 15t-51.5 37.5t-31.5 46.5t-10.5 42v236q0 18 10.5 41.5t31 46t51 37t70.5 14.5v-38q-36 0 -63.5 -18.5t-43.5 -44t-16 -46.5v-84h291v84q0 30 -18 55t-46 40.5t-59 15.5v36q38 0 75.5 -19
t62.5 -50t25 -69v-131h-331v-106q0 -18 17 -42t45.5 -42.5t61.5 -18.5v-38zM248 0v41q36 0 62 16t42.5 37.5t20.5 39.5l39 -14q-9 -32 -31 -59.5t-55.5 -44t-77.5 -16.5z" />
    <glyph glyph-name="Gbreve" unicode="&#x11e;" horiz-adv-x="515" 
d="M260 766q-22 0 -36 11t-21 26t-7 25h32q0 -13 9.5 -22.5t22.5 -9.5q14 0 23 9.5t9 22.5h32q0 -10 -7 -25t-21 -26t-36 -11zM240 -5q-24 0 -58 10.5t-66.5 34t-54 61t-21.5 91.5v332q0 23 12 54t37 60t62.5 48t88.5 19v-38q-41 0 -78 -21.5t-59.5 -57.5t-22.5 -80v-316
q0 -43 19 -73.5t46 -49.5t53.5 -27.5t41.5 -8.5v-38zM285 -5v38q20 0 45.5 12t49.5 33.5t39.5 50t15.5 61.5v125h-150v38h190v-177q0 -30 -17 -62t-45 -59t-61.5 -43.5t-66.5 -16.5zM436 502l-1 16q-3 41 -21 69.5t-42.5 46t-48 25.5t-38.5 8v38q49 1 92.5 -26.5t70.5 -71
t27 -91.5z" />
    <glyph glyph-name="gbreve" unicode="&#x11f;" horiz-adv-x="433" 
d="M210 577q-22 0 -36 11t-21 26t-7 25h32q0 -13 9.5 -22.5t22.5 -9.5q14 0 23 9.5t9 22.5h32q0 -10 -7 -25t-21 -26t-36 -11zM30 -181l11 38h180q42 2 71.5 18.5t45 40t15.5 44.5v94q-5 -7 -20 -20t-39 -23.5t-56 -11.5v35q26 0 52.5 15.5t44.5 40t18 49.5v235
q0 36 -20.5 59t-47.5 34t-47 11v38q26 0 50 -9t41.5 -20.5t23.5 -21.5v51h40v-556q0 -16 -9.5 -39.5t-28.5 -46.5t-47.5 -39t-67.5 -16h-210zM193 -1q-41 0 -70 15.5t-47.5 38t-27.5 46t-9 40.5v239q0 17 9.5 40.5t28 46t47.5 37t69 14.5v-38q-32 0 -58 -17.5t-41 -41.5
t-15 -44v-235q0 -19 14.5 -43t40.5 -42t59 -18v-38z" />
    <glyph glyph-name="uni0122" unicode="&#x122;" horiz-adv-x="515" 
d="M200 -218l37 152h39l-37 -152h-39zM240 -5q-24 0 -58 10.5t-66.5 34t-54 61t-21.5 91.5v332q0 23 12 54t37 60t62.5 48t88.5 19v-38q-41 0 -78 -21.5t-59.5 -57.5t-22.5 -80v-316q0 -43 19 -73.5t46 -49.5t53.5 -27.5t41.5 -8.5v-38zM285 -5v38q20 0 45.5 12t49.5 33.5
t39.5 50t15.5 61.5v125h-150v38h190v-177q0 -30 -17 -62t-45 -59t-61.5 -43.5t-66.5 -16.5zM436 502l-1 16q-3 41 -21 69.5t-42.5 46t-48 25.5t-38.5 8v38q49 1 92.5 -26.5t70.5 -71t27 -91.5z" />
    <glyph glyph-name="uni0123" unicode="&#x123;" horiz-adv-x="433" 
d="M203 577l37 152h40l-49 -152h-28zM30 -181l11 38h180q42 2 71.5 18.5t45 40t15.5 44.5v94q-5 -7 -20 -20t-39 -23.5t-56 -11.5v35q26 0 52.5 15.5t44.5 40t18 49.5v235q0 36 -20.5 59t-47.5 34t-47 11v38q26 0 50 -9t41.5 -20.5t23.5 -21.5v51h40v-556q0 -16 -9.5 -39.5
t-28.5 -46.5t-47.5 -39t-67.5 -16h-210zM193 -1q-41 0 -70 15.5t-47.5 38t-27.5 46t-9 40.5v239q0 17 9.5 40.5t28 46t47.5 37t69 14.5v-38q-32 0 -58 -17.5t-41 -41.5t-15 -44v-235q0 -19 14.5 -43t40.5 -42t59 -18v-38z" />
    <glyph glyph-name="Imacron" unicode="&#x12a;" horiz-adv-x="124" 
d="M-96 766v30h316v-30h-316zM42 0v700h40v-700h-40z" />
    <glyph glyph-name="imacron" unicode="&#x12b;" horiz-adv-x="174" 
d="M-70 577v30h316v-30h-316zM68 0v516h40v-516h-40z" />
    <glyph glyph-name="Iogonek" unicode="&#x12e;" horiz-adv-x="124" 
d="M183 -172q-51 0 -82 21.5t-45 52t-14 58.5h40q0 -41 28.5 -67.5t72.5 -26.5v-38zM42 0v700h40v-700h-40z" />
    <glyph glyph-name="iogonek" unicode="&#x12f;" horiz-adv-x="139" 
d="M191 -170q-51 0 -82 21.5t-45 52t-14 58.5h40q0 -41 28.5 -67.5t72.5 -26.5v-38zM50 0v516h40v-516h-40zM70 556q-11 0 -19.5 8t-8.5 19t8.5 19t19.5 8t19 -8t8 -19t-8 -19t-19 -8z" />
    <glyph glyph-name="Idotaccent" unicode="&#x130;" horiz-adv-x="124" 
d="M62 766q-13 0 -21.5 8.5t-8.5 21.5t8.5 22t21.5 9t21.5 -9t8.5 -22t-8.5 -21.5t-21.5 -8.5zM42 0v700h40v-700h-40z" />
    <glyph glyph-name="dotlessi" unicode="&#x131;" horiz-adv-x="174" 
d="M68 0v516h40v-516h-40z" />
    <glyph glyph-name="uni0136" unicode="&#x136;" horiz-adv-x="491" 
d="M164 -213l37 152h39l-37 -152h-39zM421 0l-296 341l292 359h50l-292 -359l296 -341h-50zM40 0v700h40v-700h-40z" />
    <glyph glyph-name="uni0137" unicode="&#x137;" horiz-adv-x="458" 
d="M148 -213l37 152h39l-37 -152h-39zM378 0l-276 257l276 257h60l-276 -257l276 -257h-60zM40 0v698h40v-698h-40z" />
    <glyph glyph-name="Lacute" unicode="&#x139;" horiz-adv-x="436" 
d="M48 766l37 152h40l-49 -152h-28zM40 0v700h40v-662h336v-38h-376z" />
    <glyph glyph-name="lacute" unicode="&#x13a;" horiz-adv-x="124" 
d="M48 759l37 152h40l-49 -152h-28zM42 0v698h40v-698h-40z" />
    <glyph glyph-name="uni013B" unicode="&#x13b;" horiz-adv-x="436" 
d="M181 -213l37 152h39l-37 -152h-39zM40 0v700h40v-662h336v-38h-376z" />
    <glyph glyph-name="uni013C" unicode="&#x13c;" horiz-adv-x="124" 
d="M-4 -213l37 152h39l-37 -152h-39zM42 0v698h40v-698h-40z" />
    <glyph glyph-name="Lcaron" unicode="&#x13d;" horiz-adv-x="436" 
d="M143 553l37 152h39l-37 -152h-39zM40 0v700h40v-662h336v-38h-376z" />
    <glyph glyph-name="lcaron" unicode="&#x13e;" horiz-adv-x="124" 
d="M142 546l37 152h39l-37 -152h-39zM42 0v698h40v-698h-40z" />
    <glyph glyph-name="Lslash" unicode="&#x141;" horiz-adv-x="428" 
d="M129 0v280l-53 -41l-25 32l78 60v369h40v-339l68 53l25 -32l-93 -71v-273h336v-38h-376z" />
    <glyph glyph-name="lslash" unicode="&#x142;" horiz-adv-x="424" 
d="M132 285l-25 32l186 143l25 -32zM191 0v698h40v-698h-40z" />
    <glyph glyph-name="Nacute" unicode="&#x143;" horiz-adv-x="529" 
d="M251 766l37 152h40l-49 -152h-28zM466 0l-424 676v24h39l406 -647v-53h-21zM42 0v596h8l32 -52v-544h-40zM479 136l-32 53v511h40v-564h-8z" />
    <glyph glyph-name="nacute" unicode="&#x144;" horiz-adv-x="450" 
d="M211 580l37 152h40l-49 -152h-28zM38 377q0 19 10.5 43.5t31.5 47t52 37t72 14.5v-40q-31 0 -60 -15.5t-47.5 -40t-18.5 -51.5v-372h-40v377zM372 372q0 17 -14.5 42t-42.5 45t-69 20v40q41 0 72 -15t52 -38t31.5 -47t10.5 -42v-377h-40v372z" />
    <glyph glyph-name="uni0145" unicode="&#x145;" horiz-adv-x="529" 
d="M216 -213l37 152h39l-37 -152h-39zM466 0l-424 676v24h39l406 -647v-53h-21zM42 0v596h8l32 -52v-544h-40zM479 136l-32 53v511h40v-564h-8z" />
    <glyph glyph-name="uni0146" unicode="&#x146;" horiz-adv-x="450" 
d="M176 -213l37 152h39l-37 -152h-39zM38 377q0 19 10.5 43.5t31.5 47t52 37t72 14.5v-40q-31 0 -60 -15.5t-47.5 -40t-18.5 -51.5v-372h-40v377zM372 372q0 17 -14.5 42t-42.5 45t-69 20v40q41 0 72 -15t52 -38t31.5 -47t10.5 -42v-377h-40v372z" />
    <glyph glyph-name="Ncaron" unicode="&#x147;" horiz-adv-x="529" 
d="M249 766l-76 152h36l56 -113l55 113h36l-75 -152h-32zM466 0l-424 676v24h39l406 -647v-53h-21zM42 0v596h8l32 -52v-544h-40zM479 136l-32 53v511h40v-564h-8z" />
    <glyph glyph-name="ncaron" unicode="&#x148;" horiz-adv-x="450" 
d="M209 580l-76 152h36l56 -113l55 113h36l-75 -152h-32zM38 377q0 19 10.5 43.5t31.5 47t52 37t72 14.5v-40q-31 0 -60 -15.5t-47.5 -40t-18.5 -51.5v-372h-40v377zM372 372q0 17 -14.5 42t-42.5 45t-69 20v40q41 0 72 -15t52 -38t31.5 -47t10.5 -42v-377h-40v372z" />
    <glyph glyph-name="Omacron" unicode="&#x14c;" horiz-adv-x="528" 
d="M104 766v30h316v-30h-316zM291 -5v39q21 0 48 10.5t51.5 31t41 50.5t16.5 69v313q0 24 -10.5 51t-31 51.5t-49.5 40t-66 15.5v39q49 0 86 -19.5t61.5 -49t37 -60t12.5 -52.5v-329q0 -54 -22 -92t-54 -62t-65 -35t-56 -11zM236 -5q-22 0 -55 11t-65.5 35t-54 62t-21.5 92
v329q0 23 12 53.5t37 59.5t62 48.5t86 19.5v-39q-37 0 -66 -16t-49.5 -41t-31 -52t-10.5 -49v-313q0 -38 16.5 -68t41.5 -50.5t51.5 -31.5t46.5 -11v-39z" />
    <glyph glyph-name="omacron" unicode="&#x14d;" horiz-adv-x="440" 
d="M65 577v30h316v-30h-316zM202 -1q-42 0 -73 15t-51 38t-30 47t-10 42v235q0 18 10 42t30.5 46.5t51.5 37t72 14.5v-38q-40 0 -67.5 -19t-42 -45.5t-14.5 -50.5v-209q0 -21 16 -48.5t44 -48t64 -20.5v-38zM243 -1v38q38 0 64.5 19.5t40.5 46.5t14 49v211q0 23 -14 49.5
t-40.5 46t-64.5 19.5v38q41 0 70.5 -14.5t49.5 -37t29.5 -46.5t9.5 -42v-235q0 -18 -9.5 -42.5t-29.5 -47t-49.5 -37.5t-70.5 -15z" />
    <glyph glyph-name="Ohungarumlaut" unicode="&#x150;" horiz-adv-x="528" 
d="M292 766l37 152h40l-49 -152h-28zM204 766l37 152h40l-49 -152h-28zM291 -5v39q21 0 48 10.5t51.5 31t41 50.5t16.5 69v313q0 24 -10.5 51t-31 51.5t-49.5 40t-66 15.5v39q49 0 86 -19.5t61.5 -49t37 -60t12.5 -52.5v-329q0 -54 -22 -92t-54 -62t-65 -35t-56 -11zM236 -5
q-22 0 -55 11t-65.5 35t-54 62t-21.5 92v329q0 23 12 53.5t37 59.5t62 48.5t86 19.5v-39q-37 0 -66 -16t-49.5 -41t-31 -52t-10.5 -49v-313q0 -38 16.5 -68t41.5 -50.5t51.5 -31.5t46.5 -11v-39z" />
    <glyph glyph-name="ohungarumlaut" unicode="&#x151;" horiz-adv-x="440" 
d="M253 577l37 152h40l-49 -152h-28zM165 577l37 152h40l-49 -152h-28zM202 -1q-42 0 -73 15t-51 38t-30 47t-10 42v235q0 18 10 42t30.5 46.5t51.5 37t72 14.5v-38q-40 0 -67.5 -19t-42 -45.5t-14.5 -50.5v-209q0 -21 16 -48.5t44 -48t64 -20.5v-38zM243 -1v38
q38 0 64.5 19.5t40.5 46.5t14 49v211q0 23 -14 49.5t-40.5 46t-64.5 19.5v38q41 0 70.5 -14.5t49.5 -37t29.5 -46.5t9.5 -42v-235q0 -18 -9.5 -42.5t-29.5 -47t-49.5 -37.5t-70.5 -15z" />
    <glyph glyph-name="OE" unicode="&#x152;" horiz-adv-x="422" 
d="M303 0v38h31v624h-31v38h395v-38h-324v-294h230v-38h-230v-292h324v-38h-395zM258 0q-60 0 -112 3.5t-90.5 21t-60.5 58t-22 114.5v306q0 76 22.5 117t62 57.5t91 19.5t109.5 3v-38q-51 0 -95.5 -2t-78 -15.5t-52.5 -46.5t-19 -95v-306q0 -58 18 -91t51 -47t77.5 -17.5
t98.5 -3.5v-38z" />
    <glyph glyph-name="oe" unicode="&#x153;" horiz-adv-x="757" 
d="M235 -1v38q38 0 64.5 19.5t40.5 46.5t14 49v211q0 23 -14 49.5t-40.5 46t-64.5 19.5v38q53 0 87.5 -24.5t53.5 -53.5q19 30 54.5 54t87.5 24v-38q-36 0 -64 -18.5t-43.5 -45.5t-15.5 -55v-74h291v84q0 30 -18 55t-46 40.5t-59 15.5v36q38 0 75.5 -19t62.5 -50t25 -69
v-131h-331v-106q0 -29 22 -53t56 -38t70 -14q53 0 93.5 27t53.5 70l37 -13q-16 -56 -62.5 -88t-123.5 -32q-56 0 -101 22.5t-65 56.5q-18 -31 -52.5 -55.5t-87.5 -24.5zM194 -1q-42 0 -73 15t-51 38t-30 47t-10 42v235q0 18 10 42t30.5 46.5t51.5 37t72 14.5v-38
q-40 0 -67.5 -19t-42 -45.5t-14.5 -50.5v-209q0 -21 16 -48.5t44 -48t64 -20.5v-38z" />
    <glyph glyph-name="Racute" unicode="&#x154;" horiz-adv-x="509" 
d="M201 766l37 152h40l-49 -152h-28zM439 0l-15 178q-4 44 -14.5 76t-36 49t-75.5 15h-171v39h160q67 0 96.5 35.5t29.5 115.5t-34.5 119.5t-117.5 39.5h-134v33h156q44 -2 83 -18.5t63.5 -57.5t24.5 -119q0 -72 -19 -111.5t-50 -56.5q28 -12 50.5 -39.5t26.5 -80.5l17 -217
h-40zM42 0v700h40v-700h-40z" />
    <glyph glyph-name="racute" unicode="&#x155;" horiz-adv-x="233" 
d="M106 577l37 152h40l-49 -152h-28zM42 0v516h40v-85q7 17 23.5 36.5t41.5 33.5t55 14h5.5h5.5l-10 -37q-30 0 -57.5 -25.5t-45.5 -64.5t-18 -80v-308h-40z" />
    <glyph glyph-name="uni0156" unicode="&#x156;" horiz-adv-x="509" 
d="M212 -213l37 152h39l-37 -152h-39zM439 0l-15 178q-4 44 -14.5 76t-36 49t-75.5 15h-171v39h160q67 0 96.5 35.5t29.5 115.5t-34.5 119.5t-117.5 39.5h-134v33h156q44 -2 83 -18.5t63.5 -57.5t24.5 -119q0 -72 -19 -111.5t-50 -56.5q28 -12 50.5 -39.5t26.5 -80.5
l17 -217h-40zM42 0v700h40v-700h-40z" />
    <glyph glyph-name="uni0157" unicode="&#x157;" horiz-adv-x="233" 
d="M3 -213l37 152h39l-37 -152h-39zM42 0v516h40v-85q7 17 23.5 36.5t41.5 33.5t55 14h5.5h5.5l-10 -37q-30 0 -57.5 -25.5t-45.5 -64.5t-18 -80v-308h-40z" />
    <glyph glyph-name="Rcaron" unicode="&#x158;" horiz-adv-x="509" 
d="M200 766l-76 152h36l56 -113l55 113h36l-75 -152h-32zM439 0l-15 178q-4 44 -14.5 76t-36 49t-75.5 15h-171v39h160q67 0 96.5 35.5t29.5 115.5t-34.5 119.5t-117.5 39.5h-134v33h156q44 -2 83 -18.5t63.5 -57.5t24.5 -119q0 -72 -19 -111.5t-50 -56.5q28 -12 50.5 -39.5
t26.5 -80.5l17 -217h-40zM42 0v700h40v-700h-40z" />
    <glyph glyph-name="rcaron" unicode="&#x159;" horiz-adv-x="233" 
d="M112 577l-76 152h36l56 -113l55 113h36l-75 -152h-32zM42 0v516h40v-85q7 17 23.5 36.5t41.5 33.5t55 14h5.5h5.5l-10 -37q-30 0 -57.5 -25.5t-45.5 -64.5t-18 -80v-308h-40z" />
    <glyph glyph-name="Sacute" unicode="&#x15a;" horiz-adv-x="501" 
d="M217 766l37 152h40l-49 -152h-28zM263 -3v38q20 0 48 12t55.5 34.5t46 54.5t18.5 73q0 42 -21.5 67t-55 39t-71 21t-70.5 12t-52 12q-37 14 -64.5 32t-43 47t-15.5 75q0 51 20 86.5t49.5 57.5t60 32t50.5 10v-38q-12 0 -35 -8t-47 -26t-41 -47.5t-17 -72.5
q0 -36 19.5 -59.5t50.5 -37t67 -21.5t70 -13t58 -12q35 -9 64 -26.5t46.5 -49.5t17.5 -86q0 -52 -28 -99t-75 -77t-105 -30zM218 -3q-43 0 -77.5 17t-59 43t-38 53t-13.5 48l37 13q10 -47 35.5 -76.5t57 -43.5t58.5 -16v-38zM405 541q-11 43 -36 69t-53.5 38.5t-52.5 13.5
v38q41 0 73.5 -16.5t55 -41t35.5 -49t16 -40.5z" />
    <glyph glyph-name="sacute" unicode="&#x15b;" horiz-adv-x="415" 
d="M187 578l37 152h40l-49 -152h-28zM223 -5v37q27 0 58 13.5t52.5 40.5t21.5 67q0 26 -20 43t-53.5 28t-75 19.5t-83.5 18.5q-15 4 -38.5 13.5t-42 30.5t-18.5 59q0 40 15 69t39 47.5t51 27t51 8.5v-38q-23 0 -50 -14t-46.5 -39.5t-19.5 -60.5q0 -30 26 -45t75 -25.5
t118 -28.5q12 -3 30.5 -9.5t37.5 -19.5t31.5 -33.5t12.5 -50.5q0 -48 -23 -83.5t-62 -55t-87 -19.5zM182 -5q-48 0 -84.5 21.5t-57 54.5t-20.5 65l39 7q0 -32 20 -57t48.5 -39t54.5 -14v-38zM347 368q0 37 -22.5 61.5t-52 36.5t-50.5 12v39q49 0 85.5 -22t57.5 -54.5
t21 -66.5z" />
    <glyph glyph-name="uni015E" unicode="&#x15e;" horiz-adv-x="501" 
d="M109 -172v38q44 0 72.5 26.5t28.5 67.5h40q0 -28 -14 -58.5t-45 -52t-82 -21.5zM263 -3v38q20 0 48 12t55.5 34.5t46 54.5t18.5 73q0 42 -21.5 67t-55 39t-71 21t-70.5 12t-52 12q-37 14 -64.5 32t-43 47t-15.5 75q0 51 20 86.5t49.5 57.5t60 32t50.5 10v-38
q-12 0 -35 -8t-47 -26t-41 -47.5t-17 -72.5q0 -36 19.5 -59.5t50.5 -37t67 -21.5t70 -13t58 -12q35 -9 64 -26.5t46.5 -49.5t17.5 -86q0 -52 -28 -99t-75 -77t-105 -30zM218 -3q-43 0 -77.5 17t-59 43t-38 53t-13.5 48l37 13q10 -47 35.5 -76.5t57 -43.5t58.5 -16v-38z
M405 541q-11 43 -36 69t-53.5 38.5t-52.5 13.5v38q41 0 73.5 -16.5t55 -41t35.5 -49t16 -40.5z" />
    <glyph glyph-name="uni015F" unicode="&#x15f;" horiz-adv-x="415" 
d="M179 -172v38q44 0 72.5 26.5t28.5 67.5h40q0 -28 -14 -58.5t-45 -52t-82 -21.5zM223 -5v37q27 0 58 13.5t52.5 40.5t21.5 67q0 26 -20 43t-53.5 28t-75 19.5t-83.5 18.5q-15 4 -38.5 13.5t-42 30.5t-18.5 59q0 40 15 69t39 47.5t51 27t51 8.5v-38q-23 0 -50 -14
t-46.5 -39.5t-19.5 -60.5q0 -30 26 -45t75 -25.5t118 -28.5q12 -3 30.5 -9.5t37.5 -19.5t31.5 -33.5t12.5 -50.5q0 -48 -23 -83.5t-62 -55t-87 -19.5zM182 -5q-48 0 -84.5 21.5t-57 54.5t-20.5 65l39 7q0 -32 20 -57t48.5 -39t54.5 -14v-38zM347 368q0 37 -22.5 61.5
t-52 36.5t-50.5 12v39q49 0 85.5 -22t57.5 -54.5t21 -66.5z" />
    <glyph glyph-name="Scaron" unicode="&#x160;" horiz-adv-x="501" 
d="M206 766l-76 152h36l56 -113l55 113h36l-75 -152h-32zM256 -3v38q20 0 48 12t55.5 34.5t46 54.5t18.5 73q0 42 -21.5 67t-55 39t-71 21t-70.5 12t-52 12q-37 14 -64.5 32t-43 47t-15.5 75q0 51 20 86.5t49.5 57.5t60 32t50.5 10v-38q-12 0 -35 -8t-47 -26t-41 -47.5
t-17 -72.5q0 -36 19.5 -59.5t50.5 -37t67 -21.5t70 -13t58 -12q35 -9 64 -26.5t46.5 -49.5t17.5 -86q0 -52 -28 -99t-75 -77t-105 -30zM211 -3q-43 0 -77.5 17t-59 43t-38 53t-13.5 48l37 13q10 -47 35.5 -76.5t57 -43.5t58.5 -16v-38zM398 541q-11 43 -36 69t-53.5 38.5
t-52.5 13.5v38q41 0 73.5 -16.5t55 -41t35.5 -49t16 -40.5z" />
    <glyph glyph-name="scaron" unicode="&#x161;" horiz-adv-x="415" 
d="M188 578l-76 152h36l56 -113l55 113h36l-75 -152h-32zM228 -5v37q27 0 58 13.5t52.5 40.5t21.5 67q0 26 -20 43t-53.5 28t-75 19.5t-83.5 18.5q-15 4 -38.5 13.5t-42 30.5t-18.5 59q0 40 15 69t39 47.5t51 27t51 8.5v-38q-23 0 -50 -14t-46.5 -39.5t-19.5 -60.5
q0 -30 26 -45t75 -25.5t118 -28.5q12 -3 30.5 -9.5t37.5 -19.5t31.5 -33.5t12.5 -50.5q0 -48 -23 -83.5t-62 -55t-87 -19.5zM187 -5q-48 0 -84.5 21.5t-57 54.5t-20.5 65l39 7q0 -32 20 -57t48.5 -39t54.5 -14v-38zM352 368q0 37 -22.5 61.5t-52 36.5t-50.5 12v39
q49 0 85.5 -22t57.5 -54.5t21 -66.5z" />
    <glyph glyph-name="uni0162" unicode="&#x162;" horiz-adv-x="473" 
d="M110 -172v38q44 0 72.5 26.5t28.5 67.5h40q0 -28 -14 -58.5t-45 -52t-82 -21.5zM216 0v662h-196v38h433v-38h-197v-662h-40z" />
    <glyph glyph-name="uni0163" unicode="&#x163;" horiz-adv-x="252" 
d="M107 -169v38q44 0 72.5 26.5t28.5 67.5h40q0 -28 -14 -58.5t-45 -52t-82 -21.5zM237 0q-61 1 -94.5 21.5t-46.5 58t-13 88.5v297h-63v39h63v196h40v-196h63v-39h-63v-306q0 -57 24.5 -89t94.5 -32h1l9 -38h-15z" />
    <glyph glyph-name="Tcaron" unicode="&#x164;" horiz-adv-x="473" 
d="M216 766l-76 152h36l56 -113l55 113h36l-75 -152h-32zM216 0v662h-196v38h433v-38h-197v-662h-40z" />
    <glyph glyph-name="tcaron" unicode="&#x165;" horiz-adv-x="252" 
d="M179 548l37 152h39l-37 -152h-39zM237 0q-61 1 -94.5 21.5t-46.5 58t-13 88.5v297h-63v39h63v196h40v-196h63v-39h-63v-306q0 -57 24.5 -89t94.5 -32h1l9 -38h-15z" />
    <glyph glyph-name="Umacron" unicode="&#x16a;" horiz-adv-x="527" 
d="M98 766v30h316v-30h-316zM241 -5q-22 0 -56 11t-67 34t-55.5 61t-22.5 92v507h40v-507q0 -41 19 -71.5t46.5 -50t54 -29t41.5 -9.5v-38zM287 -5v38q16 0 42.5 9t53.5 28t45.5 49.5t18.5 73.5v507h40v-507q0 -54 -22 -92t-55 -61.5t-66.5 -34t-56.5 -10.5z" />
    <glyph glyph-name="umacron" unicode="&#x16b;" horiz-adv-x="450" 
d="M67 577v30h316v-30h-316zM246 -5v40q36 0 64.5 17t45 41.5t16.5 48.5v372h40v-377q0 -18 -10 -42t-31 -47t-52 -38t-73 -15zM204 -5q-42 0 -73.5 14.5t-52 37t-30.5 47t-10 43.5v377h40v-372q0 -23 17 -48t45.5 -42t63.5 -17v-40z" />
    <glyph glyph-name="Uring" unicode="&#x16e;" horiz-adv-x="527" 
d="M256 795q-28 0 -47.5 19.5t-19.5 47.5t19.5 47.5t47.5 19.5t47.5 -19.5t19.5 -47.5t-19.5 -47.5t-47.5 -19.5zM256 830q14 0 23 9.5t9 22.5q0 14 -9 23t-23 9q-13 0 -22.5 -9t-9.5 -23q0 -13 9.5 -22.5t22.5 -9.5zM241 -5q-22 0 -56 11t-67 34t-55.5 61t-22.5 92v507h40
v-507q0 -41 19 -71.5t46.5 -50t54 -29t41.5 -9.5v-38zM287 -5v38q16 0 42.5 9t53.5 28t45.5 49.5t18.5 73.5v507h40v-507q0 -54 -22 -92t-55 -61.5t-66.5 -34t-56.5 -10.5z" />
    <glyph glyph-name="uring" unicode="&#x16f;" horiz-adv-x="450" 
d="M225 606q-28 0 -47.5 19.5t-19.5 47.5t19.5 47.5t47.5 19.5t47.5 -19.5t19.5 -47.5t-19.5 -47.5t-47.5 -19.5zM225 641q14 0 23 9.5t9 22.5q0 14 -9 23t-23 9q-13 0 -22.5 -9t-9.5 -23q0 -13 9.5 -22.5t22.5 -9.5zM246 -5v40q36 0 64.5 17t45 41.5t16.5 48.5v372h40v-377
q0 -18 -10 -42t-31 -47t-52 -38t-73 -15zM204 -5q-42 0 -73.5 14.5t-52 37t-30.5 47t-10 43.5v377h40v-372q0 -23 17 -48t45.5 -42t63.5 -17v-40z" />
    <glyph glyph-name="Uhungarumlaut" unicode="&#x170;" horiz-adv-x="527" 
d="M315 766l37 152h40l-49 -152h-28zM227 766l37 152h40l-49 -152h-28zM241 -5q-22 0 -56 11t-67 34t-55.5 61t-22.5 92v507h40v-507q0 -41 19 -71.5t46.5 -50t54 -29t41.5 -9.5v-38zM287 -5v38q16 0 42.5 9t53.5 28t45.5 49.5t18.5 73.5v507h40v-507q0 -54 -22 -92
t-55 -61.5t-66.5 -34t-56.5 -10.5z" />
    <glyph glyph-name="uhungarumlaut" unicode="&#x171;" horiz-adv-x="450" 
d="M245 577l37 152h40l-49 -152h-28zM157 577l37 152h40l-49 -152h-28zM246 -5v40q36 0 64.5 17t45 41.5t16.5 48.5v372h40v-377q0 -18 -10 -42t-31 -47t-52 -38t-73 -15zM204 -5q-42 0 -73.5 14.5t-52 37t-30.5 47t-10 43.5v377h40v-372q0 -23 17 -48t45.5 -42t63.5 -17
v-40z" />
    <glyph glyph-name="Uogonek" unicode="&#x172;" horiz-adv-x="527" 
d="M377 -172q-51 0 -82 21.5t-45 52t-14 58.5h40q0 -41 28.5 -67.5t72.5 -26.5v-38zM241 -5q-22 0 -56 11t-67 34t-55.5 61t-22.5 92v507h40v-507q0 -41 19 -71.5t46.5 -50t54 -29t41.5 -9.5v-38zM287 -5v38q16 0 42.5 9t53.5 28t45.5 49.5t18.5 73.5v507h40v-507
q0 -54 -22 -92t-55 -61.5t-66.5 -34t-56.5 -10.5z" />
    <glyph glyph-name="uogonek" unicode="&#x173;" horiz-adv-x="450" 
d="M348 -173q-51 0 -82 21.5t-45 52t-14 58.5h40q0 -41 28.5 -67.5t72.5 -26.5v-38zM246 -5v40q36 0 64.5 17t45 41.5t16.5 48.5v372h40v-377q0 -18 -10 -42t-31 -47t-52 -38t-73 -15zM204 -5q-42 0 -73.5 14.5t-52 37t-30.5 47t-10 43.5v377h40v-372q0 -23 17 -48t45.5 -42
t63.5 -17v-40z" />
    <glyph glyph-name="Ydieresis" unicode="&#x178;" horiz-adv-x="487" 
d="M277 766q-11 0 -19.5 8t-8.5 19t8.5 19t19.5 8t19 -8t8 -19t-8 -19t-19 -8zM176 766q-11 0 -19.5 8t-8.5 19t8.5 19t19.5 8t19 -8t8 -19t-8 -19t-19 -8zM214 0v252l-184 448h41l183 -447v-253h-40zM276 311l-19 46l159 343h41l-177 -389h-4z" />
    <glyph glyph-name="Zacute" unicode="&#x179;" horiz-adv-x="447" 
d="M199 766l37 152h40l-49 -152h-28zM40 0v35l323 627h-323v38h366v-35l-323 -627h324l-1 -38h-366z" />
    <glyph glyph-name="zacute" unicode="&#x17a;" horiz-adv-x="356" 
d="M164 577l37 152h40l-49 -152h-28zM30 0l1 37l253 439h-254v38h296v-32l-254 -444h254v-38h-296z" />
    <glyph glyph-name="Zdotaccent" unicode="&#x17b;" horiz-adv-x="447" 
d="M213 766q-13 0 -21.5 8.5t-8.5 21.5t8.5 22t21.5 9t21.5 -9t8.5 -22t-8.5 -21.5t-21.5 -8.5zM40 0v35l323 627h-323v38h366v-35l-323 -627h324l-1 -38h-366z" />
    <glyph glyph-name="zdotaccent" unicode="&#x17c;" horiz-adv-x="356" 
d="M178 577q-13 0 -21.5 8.5t-8.5 21.5t8.5 22t21.5 9t21.5 -9t8.5 -22t-8.5 -21.5t-21.5 -8.5zM30 0l1 37l253 439h-254v38h296v-32l-254 -444h254v-38h-296z" />
    <glyph glyph-name="Zcaron" unicode="&#x17d;" horiz-adv-x="447" 
d="M197 766l-76 152h36l56 -113l55 113h36l-75 -152h-32zM40 0v35l323 627h-323v38h366v-35l-323 -627h324l-1 -38h-366z" />
    <glyph glyph-name="zcaron" unicode="&#x17e;" horiz-adv-x="356" 
d="M164 577l-76 152h36l56 -113l55 113h36l-75 -152h-32zM30 0l1 37l253 439h-254v38h296v-32l-254 -444h254v-38h-296z" />
    <glyph glyph-name="florin" unicode="&#x192;" horiz-adv-x="382" 
d="M26 -168l10 38h29q31 0 47 13t22.5 33t6.5 41v481h-63v38h63v59q0 27 9.5 55t29 52t48 39t67.5 15h61l-9 -38h-27q-75 0 -107 -35t-32 -96v-52l66 1v-38h-66v-468q0 -31 -7.5 -63t-34 -53.5t-82.5 -21.5h-31z" />
    <glyph glyph-name="uni0218" unicode="&#x218;" horiz-adv-x="501" 
d="M184 -216l37 152h39l-37 -152h-39zM263 -3v38q20 0 48 12t55.5 34.5t46 54.5t18.5 73q0 42 -21.5 67t-55 39t-71 21t-70.5 12t-52 12q-37 14 -64.5 32t-43 47t-15.5 75q0 51 20 86.5t49.5 57.5t60 32t50.5 10v-38q-12 0 -35 -8t-47 -26t-41 -47.5t-17 -72.5
q0 -36 19.5 -59.5t50.5 -37t67 -21.5t70 -13t58 -12q35 -9 64 -26.5t46.5 -49.5t17.5 -86q0 -52 -28 -99t-75 -77t-105 -30zM218 -3q-43 0 -77.5 17t-59 43t-38 53t-13.5 48l37 13q10 -47 35.5 -76.5t57 -43.5t58.5 -16v-38zM405 541q-11 43 -36 69t-53.5 38.5t-52.5 13.5
v38q41 0 73.5 -16.5t55 -41t35.5 -49t16 -40.5z" />
    <glyph glyph-name="uni0219" unicode="&#x219;" horiz-adv-x="415" 
d="M139 -218l37 152h39l-37 -152h-39zM223 -5v37q27 0 58 13.5t52.5 40.5t21.5 67q0 26 -20 43t-53.5 28t-75 19.5t-83.5 18.5q-15 4 -38.5 13.5t-42 30.5t-18.5 59q0 40 15 69t39 47.5t51 27t51 8.5v-38q-23 0 -50 -14t-46.5 -39.5t-19.5 -60.5q0 -30 26 -45t75 -25.5
t118 -28.5q12 -3 30.5 -9.5t37.5 -19.5t31.5 -33.5t12.5 -50.5q0 -48 -23 -83.5t-62 -55t-87 -19.5zM182 -5q-48 0 -84.5 21.5t-57 54.5t-20.5 65l39 7q0 -32 20 -57t48.5 -39t54.5 -14v-38zM347 368q0 37 -22.5 61.5t-52 36.5t-50.5 12v39q49 0 85.5 -22t57.5 -54.5
t21 -66.5z" />
    <glyph glyph-name="uni021A" unicode="&#x21a;" horiz-adv-x="473" 
d="M178 -213l37 152h39l-37 -152h-39zM216 0v662h-196v38h433v-38h-197v-662h-40z" />
    <glyph glyph-name="uni021B" unicode="&#x21b;" horiz-adv-x="252" 
d="M127 -213l37 152h39l-37 -152h-39zM237 0q-61 1 -94.5 21.5t-46.5 58t-13 88.5v297h-63v39h63v196h40v-196h63v-39h-63v-306q0 -57 24.5 -89t94.5 -32h1l9 -38h-15z" />
    <glyph glyph-name="circumflex" unicode="&#x2c6;" horiz-adv-x="270" 
d="M43 514l75 152h32l76 -152h-36l-56 113l-55 -113h-36z" />
    <glyph glyph-name="caron" unicode="&#x2c7;" horiz-adv-x="270" 
d="M119 514l-76 152h36l56 -113l55 113h36l-75 -152h-32z" />
    <glyph glyph-name="uni02C9" unicode="&#x2c9;" horiz-adv-x="416" 
d="M50 540v30h316v-30h-316z" />
    <glyph glyph-name="breve" unicode="&#x2d8;" horiz-adv-x="244" 
d="M122 464q-22 0 -36 11t-21 26t-7 25h32q0 -13 9.5 -22.5t22.5 -9.5q14 0 23 9.5t9 22.5h32q0 -10 -7 -25t-21 -26t-36 -11z" />
    <glyph glyph-name="dotaccent" unicode="&#x2d9;" horiz-adv-x="202" 
d="M101 648q-13 0 -21.5 8.5t-8.5 21.5t8.5 22t21.5 9t21.5 -9t8.5 -22t-8.5 -21.5t-21.5 -8.5z" />
    <glyph glyph-name="ring" unicode="&#x2da;" horiz-adv-x="244" 
d="M122 459q-28 0 -47.5 19.5t-19.5 47.5t19.5 47.5t47.5 19.5t47.5 -19.5t19.5 -47.5t-19.5 -47.5t-47.5 -19.5zM122 494q14 0 23 9.5t9 22.5q0 14 -9 23t-23 9q-13 0 -22.5 -9t-9.5 -23q0 -13 9.5 -22.5t22.5 -9.5z" />
    <glyph glyph-name="ogonek" unicode="&#x2db;" horiz-adv-x="219" 
d="M106 -172q-51 0 -82 21.5t-45 52t-14 58.5h40q0 -41 28.5 -67.5t72.5 -26.5v-38z" />
    <glyph glyph-name="tilde" unicode="&#x2dc;" horiz-adv-x="333" 
d="M223 118q-26 0 -47 10t-40.5 20t-43.5 10q-13 0 -29.5 -5t-36.5 -17v39q21 12 38.5 17t31.5 5q26 0 46 -10t40 -20.5t45 -10.5q17 0 36 6.5t44 21.5v-38q-25 -16 -46 -22t-38 -6z" />
    <glyph glyph-name="hungarumlaut" unicode="&#x2dd;" horiz-adv-x="263" 
d="M198 605l37 152h40l-49 -152h-28zM110 605l37 152h40l-49 -152h-28z" />
    <glyph glyph-name="pi" unicode="&#x3c0;" horiz-adv-x="421" 
d="M68 -4v482h-96v38h480v-38h-94v-336q0 -52 12.5 -75t31 -28t36.5 -5v-38q-49 0 -75 20t-35.5 51.5t-9.5 65.5v345h-210v-482h-40z" />
    <glyph glyph-name="sinAnusvara" unicode="&#xd82;" horiz-adv-x="333" 
d="M143 98q-38 0 -64 17.5t-39 42t-13 44.5v160q0 21 13 45t39 41.5t64 17.5v-37q-25 0 -42.5 -12t-26.5 -29.5t-9 -33.5v-143q0 -15 10 -32.5t28 -30.5t40 -13v-37zM173 98v37q24 0 41 12t26 29.5t9 32.5v145q0 15 -9 32.5t-26 30t-41 12.5v37q38 0 63.5 -17.5t38 -41.5
t12.5 -45v-160q0 -20 -13 -44.5t-38.5 -42t-62.5 -17.5z" />
    <glyph glyph-name="sinVisarga" unicode="&#xd83;" horiz-adv-x="384" 
d="M217 298v40q45 0 68 29.5t23 65.5q0 35 -23 65t-68 30v40h14q41 0 68 -20t40.5 -50.5t13.5 -64.5t-13.5 -65t-40.5 -50.5t-68 -19.5h-14zM153 -7q-40 0 -67.5 19.5t-41 50.5t-13.5 65t13.5 64.5t41 50.5t67.5 20h14v-40q-45 0 -68 -30t-23 -65q0 -36 23 -65.5t68 -29.5
v-40h-14zM217 -7v40q45 0 68 29.5t23 65.5q0 35 -23 65t-68 30v40h14q41 0 68 -20t40.5 -50.5t13.5 -64.5t-13.5 -65t-40.5 -50.5t-68 -19.5h-14zM153 298q-40 0 -67.5 19.5t-41 50.5t-13.5 65t13.5 64.5t41 50.5t67.5 20h14v-40q-45 0 -68 -30t-23 -65q0 -36 23 -65.5
t68 -29.5v-40h-14z" />
    <glyph glyph-name="sinA" unicode="&#xd85;" horiz-adv-x="541" 
d="M337 0h-80q-60 0 -111.5 21t-83.5 65t-32 113q0 68 29 113t80.5 67.5t116.5 22.5h136q0 46 -21 76t-55 45t-73 15q-46 0 -84.5 -24t-51.5 -71l-39 13q11 40 37 67.5t61.5 41.5t74.5 14q49 0 92.5 -20.5t71 -62.5t27.5 -107v-27h-186q-58 0 -96.5 -21t-58 -58t-19.5 -84
q0 -68 46 -113.5t139 -45.5h80v-40zM392 -169v602q0 43 16 74t41.5 50.5t53.5 25.5l8 -38q-29 -6 -46.5 -25t-25 -42.5t-7.5 -44.5v-392h62v-41h-62v-169h-40z" />
    <glyph glyph-name="sinAa" unicode="&#xd86;" horiz-adv-x="801" 
d="M571 0v39h20q20 0 43.5 3.5t45.5 18t36 46t14 87.5v167q0 55 -14 86.5t-36 46t-45.5 18t-43.5 3.5h-20v39h20q65 0 104.5 -22t57.5 -65t18 -106v-167q0 -64 -18 -107t-57.5 -65t-104.5 -22h-20zM337 0h-80q-60 0 -111.5 21t-83.5 65t-32 113q0 68 29 113t80.5 67.5
t116.5 22.5h136q0 46 -21 76t-55 45t-73 15q-46 0 -84.5 -24t-51.5 -71l-39 13q11 40 37 67.5t61.5 41.5t74.5 14q49 0 92.5 -20.5t71 -62.5t27.5 -107v-27h-186q-58 0 -96.5 -21t-58 -58t-19.5 -84q0 -68 46 -113.5t139 -45.5h80v-40zM392 -169v602q0 43 16 74t41.5 50.5
t53.5 25.5l8 -38q-29 -6 -46.5 -25t-25 -42.5t-7.5 -44.5v-392h62v-41h-62v-169h-40z" />
    <glyph glyph-name="sinAe" unicode="&#xd87;" horiz-adv-x="798" 
d="M757 0q-58 0 -100 19.5t-64 59.5t-22 104v106q0 41 5 70.5t19 55.5t41 54t72 65h-137v40h197v-40q-57 -47 -89.5 -79.5t-46.5 -57.5t-17.5 -50t-3.5 -58v-106q0 -18 3 -42.5t16 -47.5t43 -38t83 -15h12v-40h-11zM337 0h-80q-60 0 -111.5 21t-83.5 65t-32 113q0 68 29 113
t80.5 67.5t116.5 22.5h136q0 46 -21 76t-55 45t-73 15q-46 0 -84.5 -24t-51.5 -71l-39 13q11 40 37 67.5t61.5 41.5t74.5 14q49 0 92.5 -20.5t71 -62.5t27.5 -107v-27h-186q-58 0 -96.5 -21t-58 -58t-19.5 -84q0 -68 46 -113.5t139 -45.5h80v-40zM392 -169v602q0 43 16 74
t41.5 50.5t53.5 25.5l8 -38q-29 -6 -46.5 -25t-25 -42.5t-7.5 -44.5v-392h62v-41h-62v-169h-40z" />
    <glyph glyph-name="sinAae" unicode="&#xd88;" horiz-adv-x="818" 
d="M737 0q-48 0 -85.5 13t-59 46t-21.5 91v46q0 37 8.5 64t36 55.5t84.5 67.5h-129v40l134 111h-134v40h197v-40l-135 -111h135v-40q-58 -40 -90.5 -66.5t-46.5 -44.5t-17 -33t-3 -33v-56q0 -15 2.5 -33.5t14 -36t37 -29t71.5 -11.5h32v-40h-31zM357 0h-80q-60 0 -111.5 21
t-83.5 65t-32 113q0 68 29 113t80.5 67.5t116.5 22.5h136q0 46 -21 76t-55 45t-73 15q-46 0 -84.5 -24t-51.5 -71l-39 13q11 40 37 67.5t61.5 41.5t74.5 14q49 0 92.5 -20.5t71 -62.5t27.5 -107v-27h-186q-58 0 -96.5 -21t-58 -58t-19.5 -84q0 -68 46 -113.5t139 -45.5h80
v-40zM412 -169v602q0 43 16 74t41.5 50.5t53.5 25.5l8 -38q-29 -6 -46.5 -25t-25 -42.5t-7.5 -44.5v-392h62v-41h-62v-169h-40z" />
    <glyph glyph-name="sinI" unicode="&#xd89;" horiz-adv-x="555" 
d="M192 0v40h91q32 0 67 9.5t66 32.5t50 64t19 103v128q0 50 -19.5 80t-48.5 45.5t-59 21t-50 5.5v40h16q52 0 98 -21t74.5 -63.5t28.5 -107.5v-128q0 -57 -14.5 -103t-44.5 -78.5t-75.5 -50t-107.5 -17.5h-91zM252 -204q-38 0 -76.5 14.5t-67 43t-37.5 70.5l39 10
q8 -34 30 -55.5t51 -32t57 -10.5q33 0 66 14t54.5 40.5t21.5 64.5h40q0 -53 -27 -88.5t-67.5 -53t-83.5 -17.5zM165 174q-33 0 -66.5 14t-56 44.5t-22.5 79.5v72q0 60 32.5 101t82.5 62.5t102 21.5h16v-40h-16q-16 0 -44.5 -6.5t-58.5 -22.5t-51 -44t-21 -71v-73
q0 -35 16 -56t40.5 -30t47.5 -9q35 0 64.5 19t29.5 56v73h40v-73q0 -29 -11.5 -51t-30.5 -37t-43 -22.5t-50 -7.5z" />
    <glyph glyph-name="sinIi" unicode="&#xd8a;" horiz-adv-x="526" 
d="M423 595q-30 0 -51.5 21.5t-21.5 50.5q0 30 21.5 51.5t51.5 21.5t51.5 -21.5t21.5 -51.5q0 -29 -21.5 -50.5t-51.5 -21.5zM123 697q-30 0 -51.5 21.5t-21.5 50.5q0 30 21.5 51.5t51.5 21.5t51.5 -21.5t21.5 -51.5q0 -29 -21.5 -50.5t-51.5 -21.5zM234 -6q-38 0 -74.5 12
t-65.5 39.5t-46.5 74t-17.5 115.5v182q0 34 6 65t26 67.5t60 84.5l135 162l31 -24l-138 -168q-31 -37 -48 -66.5t-24.5 -59t-7.5 -69.5v-174q0 -106 44.5 -153.5t119.5 -47.5v-40zM304 564q67 0 106.5 -25t57 -70.5t17.5 -107.5v-126q0 -96 -25 -148t-69 -72t-101 -20v40
q83 0 119 50.5t36 149.5v125q0 67 -20.5 102.5t-52.5 48.5t-69 13h-150v3l28 37h123z" />
    <glyph glyph-name="sinU" unicode="&#xd8b;" horiz-adv-x="544" 
d="M268 -169q-39 0 -80.5 16t-77.5 48t-58 79.5t-22 110.5v48q0 43 8.5 89t33 86t71.5 64.5t125 24.5h203q-5 50 -28 79.5t-56 43t-69 13.5q-34 0 -66 -10.5t-55 -29t-31 -43.5l-38 14q11 35 40 59.5t68 37.5t80 13q48 0 91.5 -18.5t73 -58t32.5 -102.5v-38h-245
q-30 0 -64 -6.5t-64.5 -28.5t-50 -67t-19.5 -122v-48q0 -54 18 -92t45 -62t55.5 -37t50.5 -18t29 -5v-40zM324 -168v40q20 0 50.5 4t62.5 18t57.5 43t35.5 78l39 -11q-11 -52 -36.5 -85.5t-60 -52.5t-73 -26.5t-75.5 -7.5z" />
    <glyph glyph-name="sinUu" unicode="&#xd8c;" horiz-adv-x="964" 
d="M765 -8q-42 0 -81.5 17.5t-64.5 52.5t-25 87v53h40v-54q0 -36 19.5 -61t49.5 -37.5t63 -12.5q32 0 61.5 12t48 37t18.5 62v318q0 29 -17 43t-38 14q-20 0 -37.5 -14t-17.5 -43v-52q0 -50 -30 -75.5t-65 -25.5q-24 0 -45.5 11t-35.5 33.5t-14 56.5v150h40v-151
q0 -28 17.5 -42.5t37.5 -14.5q21 0 38 14.5t17 42.5v52q0 34 14 56.5t35.5 33.5t45.5 11q35 0 65 -25.5t30 -75.5v-316q0 -52 -24.5 -87t-63 -52.5t-81.5 -17.5zM268 -169q-39 0 -80.5 16t-77.5 48t-58 79.5t-22 110.5v48q0 43 8.5 89t33 86t71.5 64.5t125 24.5h203
q-5 50 -28 79.5t-56 43t-69 13.5q-34 0 -66 -10.5t-55 -29t-31 -43.5l-38 14q11 35 40 59.5t68 37.5t80 13q48 0 91.5 -18.5t73 -58t32.5 -102.5v-38h-245q-30 0 -64 -6.5t-64.5 -28.5t-50 -67t-19.5 -122v-48q0 -54 18 -92t45 -62t55.5 -37t50.5 -18t29 -5v-40zM324 -168
v40q20 0 50.5 4t62.5 18t57.5 43t35.5 78l39 -11q-11 -52 -36.5 -85.5t-60 -52.5t-73 -26.5t-75.5 -7.5z" />
    <glyph glyph-name="sinRVocalic" unicode="&#xd8d;" horiz-adv-x="965" 
d="M182 0q-42 0 -76.5 17.5t-55 49t-20.5 73.5v52h40v-51q0 -50 32.5 -75.5t79.5 -25.5q48 0 80.5 25.5t32.5 75.5v51h40v-51q0 -50 32.5 -75.5t80.5 -25.5q47 0 79.5 25.5t32.5 75.5v51h40v-52q0 -42 -20.5 -73.5t-55 -49t-76.5 -17.5q-43 0 -78 18t-55 49
q-19 -31 -54.5 -49t-78.5 -18zM30 241v47q0 18 3 38t13.5 37.5t34 28t65.5 10.5h338q42 0 65.5 -10.5t34 -28t13.5 -37.5t3 -38v-47h-40v47q0 34 -11 49.5t-28.5 20t-35.5 4.5h-340q-18 0 -35 -4.5t-28.5 -20t-11.5 -49.5v-47h-40zM295 379v36q0 27 -11 52t-35 41t-63 16
q-47 0 -74 -16.5t-37 -43.5l-39 13q20 49 61 68t89 19q19 0 43 -5.5t47.5 -19.5t38.5 -41q16 27 39 41t47.5 19.5t42.5 5.5q48 0 89.5 -19t60.5 -68l-39 -13q-10 27 -37 43.5t-74 16.5q-39 0 -63 -16t-35 -41t-11 -52v-36h-40zM797 0q-37 0 -68.5 18.5t-50 50t-18.5 68.5
q0 38 18.5 69t50 49.5t68.5 18.5h41v-40h-41q-40 0 -68.5 -28.5t-28.5 -68.5t28.5 -68.5t68.5 -28.5t68.5 28.5t28.5 68.5v262q0 40 -10.5 67.5t-29.5 42.5t-45 15h-90v40h88q45 0 73 -20.5t41 -57.5t13 -87v-262q0 -37 -18.5 -68.5t-49.5 -50t-69 -18.5z" />
    <glyph glyph-name="sinLVocalic" unicode="&#xd8f;" horiz-adv-x="884" 
d="M129 -6q-31 0 -53 22t-22 53q0 32 22 53.5t53 21.5q32 0 53.5 -21.5t21.5 -53.5q0 -31 -21.5 -53t-53.5 -22zM63 33q-16 31 -24.5 76.5t-8.5 92.5h40q0 -35 8 -74t18 -59zM30 251v120q0 47 14 80t40 50t60 17q25 0 58 -11v-43l-24 8q-17 5 -32 5q-18 0 -35.5 -9
t-29 -31.5t-11.5 -63.5v-122h-40zM814 251v122q0 41 -11.5 63.5t-29 31.5t-35.5 9q-15 0 -32 -5l-24 -8v43q33 11 58 11q35 0 60.5 -17t39.5 -50t14 -80v-120h-40zM821 33l-33 36q11 20 18.5 59t7.5 74h40q0 -47 -8 -92.5t-25 -76.5zM755 -6q-31 0 -53 22t-22 53
q0 32 22 53.5t53 21.5q32 0 53.5 -21.5t21.5 -53.5q0 -31 -21.5 -53t-53.5 -22zM411 -6q-133 0 -191 46t-58 153h40q0 -66 24.5 -100.5t71.5 -46.5t113 -12h62q67 0 113.5 12.5t71 47t24.5 99.5h40q0 -107 -58 -153t-191 -46h-62zM162 242q0 61 21 96t58 49.5t85 14.5h225
q54 0 92 -13.5t58.5 -48.5t20.5 -98h-40q0 39 -9.5 66t-37 40.5t-82.5 13.5h-226q-54 0 -81 -16t-35.5 -43.5t-8.5 -60.5h-40zM422 379v36q0 27 -11 52t-35 41t-63 16q-47 0 -74 -16.5t-37 -43.5l-39 13q20 49 61 68t89 19q19 0 43 -5.5t47.5 -19.5t38.5 -41q16 27 39 41
t47.5 19.5t42.5 5.5q48 0 89.5 -19t60.5 -68l-39 -13q-10 27 -37 43.5t-74 16.5q-39 0 -63 -16t-35 -41t-11 -52v-36h-40z" />
    <glyph glyph-name="sinLlVocalic" unicode="&#xd90;" horiz-adv-x="1284" 
d="M1085 -8q-42 0 -81.5 17.5t-64.5 52.5t-25 87v53h40v-54q0 -36 19.5 -61t49.5 -37.5t63 -12.5q32 0 61.5 12t48 37t18.5 62v318q0 29 -17 43t-38 14q-20 0 -37.5 -14t-17.5 -43v-52q0 -50 -30 -75.5t-65 -25.5q-24 0 -45.5 11t-35.5 33.5t-14 56.5v150h40v-151
q0 -28 17.5 -42.5t37.5 -14.5q21 0 38 14.5t17 42.5v52q0 34 14 56.5t35.5 33.5t45.5 11q35 0 65 -25.5t30 -75.5v-316q0 -52 -24.5 -87t-63 -52.5t-81.5 -17.5zM129 -6q-31 0 -53 22t-22 53q0 32 22 53.5t53 21.5q32 0 53.5 -21.5t21.5 -53.5q0 -31 -21.5 -53t-53.5 -22z
M63 33q-16 31 -24.5 76.5t-8.5 92.5h40q0 -35 8 -74t18 -59zM30 251v120q0 47 14 80t40 50t60 17q25 0 58 -11v-43l-24 8q-17 5 -32 5q-18 0 -35.5 -9t-29 -31.5t-11.5 -63.5v-122h-40zM814 251v122q0 41 -11.5 63.5t-29 31.5t-35.5 9q-15 0 -32 -5l-24 -8v43q33 11 58 11
q35 0 60.5 -17t39.5 -50t14 -80v-120h-40zM821 33l-33 36q11 20 18.5 59t7.5 74h40q0 -47 -8 -92.5t-25 -76.5zM755 -6q-31 0 -53 22t-22 53q0 32 22 53.5t53 21.5q32 0 53.5 -21.5t21.5 -53.5q0 -31 -21.5 -53t-53.5 -22zM411 -6q-133 0 -191 46t-58 153h40
q0 -66 24.5 -100.5t71.5 -46.5t113 -12h62q67 0 113.5 12.5t71 47t24.5 99.5h40q0 -107 -58 -153t-191 -46h-62zM162 242q0 61 21 96t58 49.5t85 14.5h225q54 0 92 -13.5t58.5 -48.5t20.5 -98h-40q0 39 -9.5 66t-37 40.5t-82.5 13.5h-226q-54 0 -81 -16t-35.5 -43.5
t-8.5 -60.5h-40zM422 379v36q0 27 -11 52t-35 41t-63 16q-47 0 -74 -16.5t-37 -43.5l-39 13q20 49 61 68t89 19q19 0 43 -5.5t47.5 -19.5t38.5 -41q16 27 39 41t47.5 19.5t42.5 5.5q48 0 89.5 -19t60.5 -68l-39 -13q-10 27 -37 43.5t-74 16.5q-39 0 -63 -16t-35 -41t-11 -52
v-36h-40z" />
    <glyph glyph-name="sinE" unicode="&#xd91;" horiz-adv-x="589" 
d="M279 0q-71 0 -117 28.5t-67.5 72.5t-21.5 90q0 34 11 65t31 53h-85v40h265v8q0 24 -14.5 42.5t-37 28.5t-45.5 10q-25 0 -48 -12t-34 -37l-39 10q7 27 25.5 44.5t44 26.5t52.5 9q25 0 49.5 -7.5t43.5 -23.5q20 -16 31.5 -39t11.5 -55v-45h-126q-29 0 -50.5 -17
t-32.5 -43.5t-11 -57.5q0 -36 17 -70.5t53.5 -57.5t93.5 -23v-40zM334 0v40q57 0 98 20t63 64t22 117h42q0 -118 -53 -179.5t-172 -61.5zM332 755q65 0 116.5 -21.5t81 -73t29.5 -143.5v-276h-42v257q0 109 -41 163t-143 54h-1v-78q0 -50 19.5 -79t49.5 -41.5t61 -12.5v-40
q-58 0 -96 23t-56 62.5t-18 87.5v118h40z" />
    <glyph glyph-name="sinEe" unicode="&#xd92;" horiz-adv-x="589" 
d="M517 518v301h42v-301h-42zM279 0q-71 0 -117 28.5t-67.5 72.5t-21.5 90q0 34 11 65t31 53h-85v40h265v8q0 24 -14.5 42.5t-37 28.5t-45.5 10q-25 0 -48 -12t-34 -37l-39 10q7 27 25.5 44.5t44 26.5t52.5 9q25 0 49.5 -7.5t43.5 -23.5q20 -16 31.5 -39t11.5 -55v-45h-126
q-29 0 -50.5 -17t-32.5 -43.5t-11 -57.5q0 -36 17 -70.5t53.5 -57.5t93.5 -23v-40zM334 0v40q57 0 98 20t63 64t22 117h42q0 -118 -53 -179.5t-172 -61.5zM332 755q65 0 116.5 -21.5t81 -73t29.5 -143.5v-276h-42v257q0 109 -41 163t-143 54h-1v-78q0 -50 19.5 -79
t49.5 -41.5t61 -12.5v-40q-58 0 -96 23t-56 62.5t-18 87.5v118h40z" />
    <glyph glyph-name="sinAi" unicode="&#xd93;" horiz-adv-x="1046" 
d="M736 0q-71 0 -117 28.5t-67.5 72.5t-21.5 90q0 34 11 65t31 53h-85v40h265v8q0 24 -14.5 42.5t-37 28.5t-45.5 10q-25 0 -48 -12t-34 -37l-39 10q7 27 25.5 44.5t44 26.5t52.5 9q25 0 49.5 -7.5t43.5 -23.5q20 -16 31.5 -39t11.5 -55v-45h-126q-29 0 -50.5 -17
t-32.5 -43.5t-11 -57.5q0 -36 17 -70.5t53.5 -57.5t93.5 -23v-40zM791 0v40q57 0 98 20t63 64t22 117h42q0 -118 -53 -179.5t-172 -61.5zM789 755q65 0 116.5 -21.5t81 -73t29.5 -143.5v-276h-42v257q0 109 -41 163t-143 54h-1v-78q0 -50 19.5 -79t49.5 -41.5t61 -12.5v-40
q-58 0 -96 23t-56 62.5t-18 87.5v118h40zM188 -5q-54 0 -86 23t-47.5 57t-20 67.5t-4.5 55.5v173q0 29 7.5 62.5t27 63t54.5 48.5t89 19h41v-40h-40q-54 0 -84.5 -22t-42.5 -56.5t-12 -74.5v-173q0 -49 12.5 -86t42.5 -57t84 -20v-40h-21zM257 -5v40q70 0 100 32t30 87v99
q0 29 -11 42t-26.5 16t-29.5 3h-87v40h87q30 0 54 -8t38.5 -29.5t14.5 -61.5v-98q0 -43 -15 -80t-48 -59.5t-86 -22.5h-21zM383 421q-1 8 -5.5 25t-18 35t-39.5 30.5t-71 12.5v40h21q49 0 81.5 -21.5t51 -52.5t21.5 -59z" />
    <glyph glyph-name="sinO" unicode="&#xd94;" horiz-adv-x="580" 
d="M171 0q-41 0 -73 16.5t-50 46.5t-18 70v233q0 38 16.5 63t42 38t53.5 13q26 0 50 -12t39 -36.5t15 -61.5v-55q0 -19 13 -29t28 -10q16 0 29 10t13 29v154h40v-159q0 -26 -12 -44t-30.5 -27t-39.5 -9q-30 0 -55.5 20t-25.5 60v60q0 35 -20.5 52t-45.5 17t-46.5 -18
t-21.5 -55v-227q0 -17 9 -40.5t30.5 -41t59.5 -17.5t59 17.5t30 41t9 40.5v53h42v-53q0 -17 9 -40.5t30.5 -41t58.5 -17.5q38 0 59.5 17.5t30.5 41t9 40.5v62h42v-68q0 -40 -18 -70t-49.5 -46.5t-73.5 -16.5q-81 0 -119 58q-18 -28 -49 -43t-70 -15zM74 553l-39 10
q0 44 19.5 79.5t52.5 60.5t72 38.5t78 13.5v-40q-46 0 -88 -20t-68.5 -56.5t-26.5 -85.5zM508 201v313q0 77 -23.5 121t-66.5 62t-104 18v40q84 0 136 -26t76 -79.5t24 -135.5v-313h-42z" />
    <glyph glyph-name="sinOo" unicode="&#xd95;" horiz-adv-x="580" 
d="M171 0q-41 0 -73 16.5t-50 46.5t-18 70v233q0 38 16.5 63t42 38t52.5 13t51 -12t39 -36.5t15 -61.5v-55q0 -19 13 -29t28 -10q16 0 29 10t13 29v154h40v-159q0 -26 -12 -44t-30.5 -27t-39.5 -9q-30 0 -55.5 20t-25.5 60v60q0 35 -20.5 52t-45.5 17t-46.5 -18t-21.5 -55
v-227q0 -17 9 -40.5t30.5 -41t59.5 -17.5t59 17.5t30 41t9 40.5v53h42v-53q0 -17 9 -40.5t30.5 -41t58.5 -17.5q38 0 59.5 17.5t30.5 41t9 40.5v58h42v-64q0 -40 -18 -70t-49.5 -46.5t-73.5 -16.5q-81 0 -119 58q-18 -28 -49 -43t-70 -15zM508 197v268q0 60 -16 91.5
t-51 43.5t-93 12v40q80 0 124 -20.5t61 -60t17 -97.5v-277h-42zM59 612v40h35q-16 15 -21.5 32t-5.5 34q0 26 15 49t41.5 37.5t60.5 14.5h86v-40h-90q-36 0 -53.5 -20t-17.5 -43q0 -24 17.5 -44t53.5 -20h168v-40h-289zM506 673q0 53 -16 75t-42 26.5t-57 4.5h-65v40h65
q56 0 87.5 -13t45.5 -34t18 -47t4 -52h-40z" />
    <glyph glyph-name="sinAu" unicode="&#xd96;" horiz-adv-x="980" 
d="M781 -8q-42 0 -81.5 17.5t-64.5 52.5t-25 87v53h40v-54q0 -36 19.5 -61t49.5 -37.5t63 -12.5q32 0 61.5 12t48 37t18.5 62v318q0 29 -17 43t-38 14q-20 0 -37.5 -14t-17.5 -43v-52q0 -50 -30 -75.5t-65 -25.5q-24 0 -45.5 11t-35.5 33.5t-14 56.5v150h40v-151
q0 -28 17.5 -42.5t37.5 -14.5q21 0 38 14.5t17 42.5v52q0 34 14 56.5t35.5 33.5t45.5 11q35 0 65 -25.5t30 -75.5v-316q0 -52 -24.5 -87t-63 -52.5t-81.5 -17.5zM171 0q-41 0 -73 16.5t-50 46.5t-18 70v233q0 38 16.5 63t42 38t53.5 13q26 0 50 -12t39 -36.5t15 -61.5v-55
q0 -19 13 -29t28 -10q16 0 29 10t13 29v154h40v-159q0 -26 -12 -44t-30.5 -27t-39.5 -9q-30 0 -55.5 20t-25.5 60v60q0 35 -20.5 52t-45.5 17t-46.5 -18t-21.5 -55v-227q0 -17 9 -40.5t30.5 -41t59.5 -17.5t59 17.5t30 41t9 40.5v53h42v-53q0 -17 9 -40.5t30.5 -41
t58.5 -17.5q38 0 59.5 17.5t30.5 41t9 40.5v62h42v-68q0 -40 -18 -70t-49.5 -46.5t-73.5 -16.5q-81 0 -119 58q-18 -28 -49 -43t-70 -15zM74 553l-39 10q0 44 19.5 79.5t52.5 60.5t72 38.5t78 13.5v-40q-46 0 -88 -20t-68.5 -56.5t-26.5 -85.5zM508 201v313q0 77 -23.5 121
t-66.5 62t-104 18v40q84 0 136 -26t76 -79.5t24 -135.5v-313h-42z" />
    <glyph glyph-name="sinKa" unicode="&#xd9a;" horiz-adv-x="760" 
d="M182 565q47 0 87 -25.5t51 -66.5l-31 -28q-10 35 -40.5 55.5t-67.5 20.5q-31 0 -61.5 -18.5t-47.5 -62.5l-39 12q16 41 39.5 65.5t52 36t57.5 11.5zM508 560q58 0 108.5 -26t82 -80t31.5 -140v-122q0 -63 -15 -106t-53 -65t-108 -22v40q23 0 47 4t44 18.5t32.5 45.5
t12.5 85v122q0 70 -27 116t-70.5 68.5t-93.5 22.5q-39 0 -78.5 -13.5t-71.5 -41.5l-280 -241l-39 -29v42l290 256q41 32 90 49t98 17zM184 -5q-30 0 -57.5 14t-44.5 41t-17 64v32q0 17 -6.5 35t-14.5 18q-2 0 -6.5 -1t-7.5 -2v42q35 -4 51 -18t20.5 -29t4.5 -25v-52
q0 -37 25 -56.5t54 -19.5q27 0 49 18t22 58v78h40v-78q0 -40 24.5 -58t54.5 -18q32 0 60 19.5t28 56.5v126q0 46 -13.5 71.5t-43 38.5t-79.5 20l38 33q38 -6 69.5 -21t50 -48t18.5 -94v-126q0 -39 -17 -65.5t-44.5 -39.5t-59.5 -13q-28 0 -55.5 10.5t-50.5 29.5
q-19 -21 -43 -31t-49 -10z" />
    <glyph glyph-name="sinKha" unicode="&#xd9b;" horiz-adv-x="586" 
d="M412 -4q-36 0 -69 16t-54 48.5t-21 81.5v50h41v-50q0 -50 32.5 -75t70.5 -25t70 25t32 75v372q0 111 -49 156t-134 45h-11v40h11q80 0 129.5 -27.5t72.5 -81t23 -132.5v-372q0 -49 -21 -81.5t-54 -48.5t-69 -16zM268 -65v349q0 57 -30.5 85.5t-67.5 28.5t-68 -28.5
t-31 -85.5v-107q0 -56 16.5 -85.5t48 -40.5t75.5 -11v-40q-60 0 -100 17t-60.5 55.5t-20.5 104.5v107q0 53 20.5 88.5t52.5 53t67 17.5t67 -17.5t52 -52.5t20 -89v-349h-41zM81 553l-39 10q0 44 19.5 79.5t52.5 60.5t72 38.5t78 13.5v-40q-46 0 -88 -20t-68.5 -56.5
t-26.5 -85.5z" />
    <glyph glyph-name="sinGa" unicode="&#xd9c;" horiz-adv-x="703" 
d="M487 -8v40q46 0 78.5 21.5t50 62.5t17.5 100v124q0 59 -16.5 100t-49 62.5t-80.5 21.5v40q60 0 101.5 -27.5t63 -78t21.5 -118.5v-124q0 -68 -21.5 -118.5t-63 -78t-101.5 -27.5zM216 -8q-59 0 -101 27.5t-63.5 78t-21.5 118.5v124q0 68 21.5 118.5t63.5 78t101 27.5v-40
q-47 0 -80 -21.5t-49.5 -62.5t-16.5 -100v-124q0 -59 17.5 -100t50 -62.5t78.5 -21.5v-40zM272 -8v40q40 0 68.5 12t43.5 38.5t15 69.5q0 24 -5.5 51.5t-25 47.5t-62.5 20h-37v40h37q51 0 80 -22.5t41 -56t12 -68.5v-19q0 -76 -46 -114.5t-121 -38.5zM252 271v89
q0 59 19.5 105t59 72.5t100.5 26.5v-40q-53 0 -83.5 -23.5t-42.5 -61t-12 -78.5v-90h-41z" />
    <glyph glyph-name="sinGha" unicode="&#xd9d;" horiz-adv-x="677" 
d="M205 0q-32 0 -61.5 15.5t-48 46.5t-18.5 77v53h40v-53q0 -51 27.5 -76.5t60.5 -25.5q47 0 67 26t20 78q0 32 14.5 47.5t56.5 15.5h5q38 -1 51 -16.5t13 -45.5q0 -53 19.5 -79t67.5 -26q33 0 60.5 26t27.5 76v53h40v-53q0 -46 -18.5 -77t-48 -46.5t-61.5 -15.5
q-62 0 -94.5 35.5t-32.5 106.5q0 13 -5.5 19t-24.5 6t-24.5 -6t-5.5 -20q0 -70 -32 -105.5t-95 -35.5zM77 241v47q0 24 6 45t22 29h-75v40h501q42 0 65.5 -10.5t34 -28t13.5 -37.5t3 -38v-47h-40v47q0 34 -11 49.5t-28.5 20t-35.5 4.5h-340q-18 0 -35.5 -4.5t-28.5 -20
t-11 -49.5v-47h-40zM343 379v36q0 27 -11 52t-35 41t-63 16q-47 0 -74 -16.5t-37 -43.5l-39 13q20 49 61 68t89 19q19 0 43 -5.5t47.5 -19.5t38.5 -41q16 27 39 41t47.5 19.5t42.5 5.5q48 0 89.5 -19t60.5 -68l-39 -13q-10 27 -37 43.5t-74 16.5q-39 0 -63 -16t-35 -41
t-11 -52v-36h-40z" />
    <glyph glyph-name="sinNga" unicode="&#xd9e;" horiz-adv-x="580" 
d="M171 0q-41 0 -73 16.5t-50 46.5t-18 70v94q0 30 7.5 53t23.5 38.5t41 23.5t59 8h89v-40h-39q-63 0 -92.5 -9.5t-38 -28t-8.5 -44.5v-89q0 -17 9 -40.5t30.5 -41t59.5 -17.5t59 17.5t30 41t9 40.5v53h42v-53q0 -17 9 -40.5t30.5 -41t58.5 -17.5q38 0 59.5 17.5t30.5 41
t9 40.5v103h42v-109q0 -61 -39.5 -97t-101.5 -36q-39 0 -70 15t-49 43q-18 -28 -49 -43t-70 -15zM214 310v40h45q29 0 43.5 17.5t14.5 37.5q0 19 -13.5 35t-41.5 16h-88q-39 0 -56 -11t-21 -23.5t-4 -18.5h-40q0 31 13.5 51.5t40 31t66.5 10.5h85q33 0 54.5 -13.5t32 -34.5
t10.5 -44t-11 -45t-32.5 -35.5t-53.5 -13.5h-44zM74 553l-39 10q0 44 19.5 79.5t52.5 60.5t72 38.5t78 13.5v-40q-46 0 -88 -20t-68.5 -56.5t-26.5 -85.5zM508 241v273q0 77 -23.5 121t-66.5 62t-104 18v40q84 0 136 -26t76 -79.5t24 -135.5v-273h-42z" />
    <glyph glyph-name="sinNnga" unicode="&#xd9f;" horiz-adv-x="843" 
d="M94 -8q-30 39 -43.5 71t-17 66.5t-3.5 79.5v78q0 62 8.5 113t32.5 87.5t71 56.5t123 20h91v-40h-118q-64 0 -98.5 -24t-49 -61t-17.5 -78t-3 -74v-78q0 -40 3 -71t17 -61t46 -69zM356 -8q-59 0 -101 27.5t-63.5 78t-21.5 118.5v124q0 68 21.5 118.5t63.5 78t101 27.5v-40
q-47 0 -80 -21.5t-49.5 -62.5t-16.5 -100v-124q0 -59 17.5 -100t50 -62.5t78.5 -21.5v-40zM412 -8v40q40 0 68.5 12t43.5 38.5t15 69.5q0 24 -5.5 51.5t-25 47.5t-62.5 20h-37v40h37q51 0 80 -22.5t41 -56t12 -68.5v-19q0 -76 -46 -114.5t-121 -38.5zM392 271v89
q0 59 19.5 105t59 72.5t100.5 26.5v-40q-53 0 -83.5 -23.5t-42.5 -61t-12 -78.5v-90h-41zM627 -8v40q46 0 78.5 21.5t50 62.5t17.5 100v124q0 59 -16.5 100t-49 62.5t-80.5 21.5v40q60 0 101.5 -27.5t63 -78t21.5 -118.5v-124q0 -68 -21.5 -118.5t-63 -78t-101.5 -27.5z" />
    <glyph glyph-name="sinCa" unicode="&#xda0;" horiz-adv-x="590" 
d="M335 0v40q57 0 98 20t63.5 64t22.5 117v273q0 111 -49.5 156t-134.5 45v40q80 0 129.5 -27.5t72.5 -81t23 -132.5v-273q0 -118 -53 -179.5t-172 -61.5zM279 0q-71 0 -117 28.5t-67.5 72.5t-21.5 90q0 34 11 65t31 53h-85v40h265v5q0 27 -14.5 46t-37 28.5t-45.5 9.5
q-25 0 -48 -12t-34 -37l-39 10q7 27 25.5 44.5t44 26.5t52.5 9q25 0 49.5 -7.5t43.5 -23.5q20 -16 31.5 -39t11.5 -55v-45h-126q-29 0 -50.5 -17t-32.5 -43.5t-11 -57.5q0 -36 17 -70.5t53.5 -57.5t93.5 -23v-40zM108 553l-39 10q0 42 19 77t50 60.5t68 40t73 14.5v-40
q-42 0 -81 -21.5t-64.5 -58t-25.5 -82.5z" />
    <glyph glyph-name="sinCha" unicode="&#xda1;" 
d="M281 -6q-133 0 -191 46t-58 153h40q0 -66 24.5 -100.5t71.5 -46.5t113 -12h62q67 0 113.5 12.5t71 47t24.5 99.5v71h-109q-41 0 -76.5 20.5t-56.5 55t-21 75.5q0 42 21 76t56.5 54.5t76.5 20.5q31 0 58.5 -11.5t48.5 -32.5t32 -48l-36 -12q-13 29 -40.5 47.5t-62.5 18.5
q-31 0 -56.5 -15.5t-41 -41t-15.5 -56.5t15.5 -56.5t41 -41t56.5 -15.5h108q24 0 32.5 -10t8.5 -27v-72q0 -107 -58 -153t-191 -46h-62zM32 242q0 61 21 96t58 49.5t85 14.5h93q0 34 -11 61.5t-35 44t-63 16.5q-47 0 -74 -16.5t-37 -43.5l-39 13q20 49 61 68t89 19
q19 0 44.5 -6t49.5 -22t39.5 -45t15.5 -76v-53h-132q-54 0 -81 -16t-35.5 -43.5t-8.5 -60.5h-40zM312 494l230 302l30 -22l-210 -276z" />
    <glyph glyph-name="sinJa" unicode="&#xda2;" 
d="M279 -6q-133 0 -191 46t-58 153h40q0 -66 24.5 -100.5t71.5 -46.5t113 -12h62q67 0 113.5 12.5t71 47t24.5 99.5h40q0 -107 -58 -153t-191 -46h-62zM30 242q0 61 21 96t58 49.5t85 14.5h225q54 0 92 -13.5t58.5 -48.5t20.5 -98h-40q0 39 -9.5 66t-37 40.5t-82.5 13.5
h-226q-54 0 -81 -16t-35.5 -43.5t-8.5 -60.5h-40zM290 379v36q0 27 -11 52t-35 41t-63 16q-47 0 -74 -16.5t-37 -43.5l-39 13q20 49 61 68t89 19q19 0 43 -5.5t47.5 -19.5t38.5 -41q16 27 39 41t47.5 19.5t42.5 5.5q48 0 89.5 -19t60.5 -68l-39 -13q-10 27 -37 43.5
t-74 16.5q-39 0 -63 -16t-35 -41t-11 -52v-36h-40zM310 498l223 298l30 -22l-208 -276h-45z" />
    <glyph glyph-name="sinJha" unicode="&#xda3;" horiz-adv-x="1103" 
d="M30 196v50l290 248q53 41 112 62t115 21q46 0 86.5 -14.5t71.5 -45t48 -77.5h-47q-13 33 -38 55t-58 32.5t-70 10.5q-47 0 -97 -18t-94 -54l-280 -241zM72 440l-39 12q16 41 39.5 65.5t52 36t57.5 11.5q47 0 87 -25.5t51 -66.5l-31 -28q-10 35 -40.5 55.5t-67.5 20.5
q-31 0 -61.5 -18.5t-47.5 -62.5zM694 0q-41 0 -73 16.5t-50 46.5t-18 70v174q0 41 17 80.5t55 66t99 26.5h5l24 -40h-19q-47 0 -75 -16.5t-41.5 -40t-18 -46.5t-4.5 -36v-162q0 -17 9 -40.5t30.5 -41t59.5 -17.5t59 17.5t30 41t9 40.5v53h42v-53q0 -17 9 -40.5t30.5 -41
t58.5 -17.5q38 0 59.5 17.5t30.5 41t9 40.5v103h42v-109q0 -61 -39.5 -97t-101.5 -36q-39 0 -70 15t-49 43q-18 -28 -49 -43t-70 -15zM622 628l-39 15q15 39 46.5 64t71.5 36.5t79 11.5v-40q-33 0 -65.5 -9t-57.5 -28t-35 -50zM1031 241v273q0 77 -23.5 121t-66.5 62
t-104 18v40q84 0 136 -26t76 -79.5t24 -135.5v-273h-42zM330 373l35 30q38 -6 69.5 -21t50 -48t18.5 -94v-126q0 -39 -17 -65.5t-44.5 -39.5t-59.5 -13q-28 0 -55.5 10.5t-50.5 29.5q-19 -21 -43 -31t-49 -10q-30 0 -57.5 14t-44.5 41t-17 64v32q0 17 -3 35t-18 18
q-2 0 -6.5 -1t-7.5 -2v50q35 -4 51 -20t20.5 -33t4.5 -27v-52q0 -37 25 -56.5t54 -19.5q27 0 49 18t22 58v78h40v-78q0 -40 24.5 -58t54.5 -18q32 0 60 19.5t28 56.5v126q0 45 -13 70.5t-42 38.5t-78 20v4z" />
    <glyph glyph-name="sinNya" unicode="&#xda4;" horiz-adv-x="1113" 
d="M838 0q-60 0 -112 21t-83.5 65t-31.5 113q0 68 29 113t80.5 67.5t116.5 22.5h136q0 49 -22.5 78.5t-57.5 44.5t-72.5 20t-66.5 5v42q37 0 81.5 -8t85 -29.5t66.5 -61.5t26 -104v-27h-186q-58 0 -96.5 -21t-58 -58t-19.5 -84q0 -45 20.5 -81t61.5 -57t103 -21h39
q53 0 96.5 26.5t68.5 81.5l37 -10q-16 -43 -41 -70.5t-54.5 -42t-57.5 -20t-49 -5.5h-39zM94 -24q-30 39 -43.5 71t-17 66.5t-3.5 79.5v130q0 64 17.5 101t46.5 52.5t61 15.5q14 0 28 -2t27 -7v-43q-16 6 -29.5 9t-25.5 3q-31 0 -50 -17.5t-27 -46.5t-8 -65v-130
q0 -40 3 -71t17 -61t46 -69zM322 -5q-30 0 -57.5 14t-44.5 41t-17 64v32q0 17 -3 35t-18 18q-2 0 -6.5 -1t-7.5 -2v50q35 -4 51 -20t20.5 -33t4.5 -27v-52q0 -37 25 -56.5t54 -19.5q27 0 49 18t22 58v78h40v-78q0 -40 24.5 -58t54.5 -18q32 0 60 19.5t28 56.5v126
q0 46 -13.5 71.5t-43 38.5t-79.5 20l38 33q38 -6 69.5 -21t50 -48t18.5 -94v-126q0 -39 -17 -65.5t-44.5 -39.5t-59.5 -13q-28 0 -55.5 10.5t-50.5 29.5q-19 -21 -43 -31t-49 -10zM210 440l-39 12q16 41 39.5 65.5t52 36t57.5 11.5q47 0 87 -25.5t51 -66.5l-31 -28
q-10 35 -40.5 55.5t-67.5 20.5q-31 0 -61.5 -18.5t-47.5 -62.5zM942 -204q-42 0 -80.5 17.5t-63 53t-24.5 88.5h40q0 -38 19.5 -64.5t49.5 -40.5t63 -14q42 0 79 23.5t49 74.5l39 -10q-9 -42 -35 -70.5t-62 -43t-74 -14.5zM168 196v50l290 248q45 35 87.5 56.5t81.5 31.5
t72 10v-42q-49 0 -104 -20t-108 -64l-280 -241z" />
    <glyph glyph-name="sinJnya" unicode="&#xda5;" horiz-adv-x="1051" 
d="M776 0q-60 0 -112 21t-83.5 65t-31.5 113q0 68 29 110t80.5 61t116.5 19h136q0 48 -22.5 76.5t-57.5 43t-72.5 19.5t-66.5 5v41q29 0 64 -3.5t69.5 -14.5t63 -32.5t45.5 -57.5t17 -90v-27h-186q-87 0 -130.5 -39.5t-43.5 -110.5q0 -68 46 -113.5t139 -45.5h39
q53 0 96.5 26.5t68.5 81.5l37 -10q-16 -43 -41 -70.5t-54.5 -42t-57.5 -20t-49 -5.5h-39zM94 -9q-30 39 -43.5 71t-17 66.5t-3.5 79.5v79q0 62 8.5 113t32.5 87.5t71 56.5t123 20h91v-40h-118q-64 0 -98.5 -24t-49 -61t-17.5 -78t-3 -74v-79q0 -40 3 -71t17 -61t46 -69z
M356 -8q-59 0 -101 27.5t-63.5 78t-21.5 118.5v124q0 68 21.5 118.5t63.5 78t101 27.5v-40q-47 0 -80 -21.5t-49.5 -62.5t-16.5 -100v-124q0 -59 17.5 -100t50 -62.5t78.5 -21.5v-40zM412 -8v40q40 0 68.5 12t43.5 38.5t15 69.5q0 24 -5.5 51.5t-25 47.5t-62.5 20h-37v40h37
q51 0 80 -22.5t41 -56t12 -68.5v-19q0 -76 -46 -114.5t-121 -38.5zM880 -204q-42 0 -80.5 17.5t-63 53t-24.5 88.5h40q0 -38 19.5 -64.5t49.5 -40.5t63 -14q42 0 79 23.5t49 74.5l39 -10q-9 -42 -35 -70.5t-62 -43t-74 -14.5zM392 271v89q0 78 34.5 124.5t89.5 67.5t115 22
h5v-40h-5q-52 -1 -97.5 -19t-73 -56t-27.5 -98v-90h-41z" />
    <glyph glyph-name="sinNyja" unicode="&#xda6;" horiz-adv-x="765" 
d="M94 -8q-30 39 -43.5 71t-17 66.5t-3.5 79.5v140q0 38 6.5 66.5t18.5 48t28 31.5t34.5 17.5t37.5 5.5q14 0 28 -2t27 -7v-43q-16 6 -29.5 9t-25.5 3q-31 0 -50 -17.5t-27 -46.5t-8 -65v-140q0 -40 3 -71t17 -61t46 -69zM424 -6q-133 0 -191 46t-58 153h40
q0 -66 24.5 -100.5t71.5 -46.5t113 -12h62q67 0 113.5 12.5t71 47t24.5 99.5h40q0 -107 -58 -153t-191 -46h-62zM175 242q0 61 21 96t58 49.5t85 14.5h225q54 0 92 -13.5t58.5 -48.5t20.5 -98h-40q0 39 -9.5 66t-37 40.5t-82.5 13.5h-226q-54 0 -81 -16t-35.5 -43.5
t-8.5 -60.5h-40zM435 379v36q0 27 -11 52t-35 41t-63 16q-47 0 -74 -16.5t-37 -43.5l-39 13q20 49 61 68t89 19q19 0 43 -5.5t47.5 -19.5t38.5 -41q16 27 39 41t47.5 19.5t42.5 5.5q48 0 89.5 -19t60.5 -68l-39 -13q-10 27 -37 43.5t-74 16.5q-39 0 -63 -16t-35 -41t-11 -52
v-36h-40zM455 498l223 298l30 -22l-208 -276h-45z" />
    <glyph glyph-name="sinTta" unicode="&#xda7;" horiz-adv-x="551" 
d="M296 0v40q57 0 98 20t63.5 64t22.5 117v273q0 74 -22.5 118t-63.5 63.5t-98 19.5v40q119 0 172 -61.5t53 -179.5v-273q0 -59 -13 -104t-40 -75.5t-69.5 -46t-102.5 -15.5zM240 0q-56 0 -95 19t-63 49.5t-34.5 65.5t-10.5 66v70q0 32 9.5 67t32 65t62 49t99.5 19v-40
q-56 0 -92 -22t-53 -58t-17 -80v-70q0 -44 19.5 -80.5t56 -58t86.5 -21.5v-40zM69 553l-39 10q0 42 19 77t50 60.5t68 40t73 14.5v-40q-42 0 -81.5 -21.5t-64.5 -58t-25 -82.5z" />
    <glyph glyph-name="sinTtha" unicode="&#xda8;" horiz-adv-x="593" 
d="M184 0q-41 0 -73 16.5t-50 46.5t-18 70v174q0 30 9.5 60.5t31 56t56 41t84.5 15.5h39v-40h-39q-47 0 -75 -16.5t-41.5 -40t-18 -46.5t-4.5 -36v-162q0 -17 9 -40.5t30.5 -41t59.5 -17.5t59 17.5t30 41t9 40.5v53h42v-53q0 -17 9 -40.5t30.5 -41t58.5 -17.5
q38 0 59.5 17.5t30.5 41t9 40.5v61h42v-67q0 -61 -39.5 -97t-101.5 -36q-39 0 -70 15t-49 43q-18 -28 -49 -43t-70 -15zM336 755q65 0 116.5 -21.5t81 -73t29.5 -143.5v-319h-42v300q0 109 -41 163t-143 54h-1v-78q0 -50 19.5 -79t49.5 -41.5t61 -12.5v-40q-58 0 -96 23
t-56 62.5t-18 87.5v118h40z" />
    <glyph glyph-name="sinDda" unicode="&#xda9;" horiz-adv-x="624" 
d="M215 0q-41 0 -73 16.5t-50 46.5t-18 70v102q0 24 6 45t22 29h-72v40h285q0 44 -30.5 66.5t-66.5 22.5q-25 0 -48 -12t-34 -37l-39 10q7 27 25.5 44.5t44 26.5t52.5 9q25 0 49.5 -7.5t43.5 -23.5q20 -16 31.5 -39t11.5 -55v-45h-164q-18 0 -35.5 -4.5t-28.5 -20t-11 -49.5
v-96q0 -17 9 -40.5t30.5 -41t59.5 -17.5t59 17.5t30 41t9 40.5v53h42v-53q0 -17 9 -40.5t30.5 -41t58.5 -17.5q38 0 59.5 17.5t30.5 41t9 40.5v58h42v-64q0 -61 -39.5 -97t-101.5 -36q-39 0 -70 15t-49 43q-18 -28 -49 -43t-70 -15zM123 553l-39 10q0 44 19.5 79.5
t52.5 60.5t72 38.5t78 13.5v-40q-46 0 -88 -20t-68.5 -56.5t-26.5 -85.5zM552 197v317q0 76 -23 120t-65.5 62.5t-101.5 18.5v40q82 0 133 -26.5t75 -80t24 -134.5v-317h-42z" />
    <glyph glyph-name="sinDdha" unicode="&#xdaa;" horiz-adv-x="624" 
d="M215 0q-41 0 -73 16.5t-50 46.5t-18 70v102q0 24 6 45t22 29h-72v40h285q0 44 -30.5 66.5t-66.5 22.5q-25 0 -48 -12t-34 -37l-39 10q7 27 25.5 44.5t44 26.5t52.5 9q25 0 49.5 -7.5t43.5 -23.5q20 -16 31.5 -39t11.5 -55v-45h-164q-18 0 -35.5 -4.5t-28.5 -20t-11 -49.5
v-96q0 -17 9 -40.5t30.5 -41t59.5 -17.5t59 17.5t30 41t9 40.5v53h42v-53q0 -17 9 -40.5t30.5 -41t58.5 -17.5q38 0 59.5 17.5t30.5 41t9 40.5v59h42v-65q0 -61 -39.5 -97t-101.5 -36q-39 0 -70 15t-49 43q-18 -28 -49 -43t-70 -15zM367 755q65 0 116.5 -21.5t81 -73
t29.5 -143.5v-259h-42v240q0 109 -41 163t-143 54h-1v-78q0 -50 19.5 -79t49.5 -41.5t61 -12.5v-40q-58 0 -96 23t-56 62.5t-18 87.5v118h40z" />
    <glyph glyph-name="sinNna" unicode="&#xdab;" horiz-adv-x="963" 
d="M49 -5l-39 10q19 39 44 55.5t48.5 20.5t37.5 4q40 0 68 -11t53.5 -22t55.5 -11q22 0 50.5 12t50 41.5t21.5 81.5v207q0 48 -13 83t-36.5 57t-54.5 32.5t-67 10.5q-58 0 -92.5 -20.5t-51.5 -50t-22.5 -56.5t-5.5 -41q0 -12 4.5 -39t19.5 -56t47.5 -49.5t89.5 -20.5h46v-40
l-67 -1q-48 0 -89 26t-66 72.5t-25 107.5q0 69 30 115t78.5 69.5t103.5 23.5q63 0 103 -18t62.5 -46.5t32.5 -59.5t12 -58t2 -41v-207q0 -51 -17 -85.5t-43 -54t-53.5 -28t-48.5 -8.5q-36 0 -64 11t-54.5 21.5t-59.5 10.5q-26 0 -52 -9.5t-39 -38.5zM734 -7q-49 0 -95 18.5
t-75 56t-29 92.5v33h40v-33q0 -42 23.5 -70t60 -42t75.5 -14q40 0 76.5 14t59.5 42t23 70v33h40v-33q0 -55 -29 -92.5t-74.5 -56t-95.5 -18.5zM680 272v160q0 45 -27 67.5t-60 22.5q-17 0 -34 -6.5t-30 -20.5l-19 39q17 16 39 23.5t44 7.5q32 0 60.5 -14t46.5 -43
q18 29 46.5 43t59.5 14q32 0 61 -15t47.5 -44.5t18.5 -73.5v-190h-40v190q0 45 -27 67.5t-60 22.5q-32 0 -59 -22.5t-27 -67.5v-160h-40zM397 544l-29 24l174 228l30 -22z" />
    <glyph glyph-name="sinNndda" unicode="&#xdac;" horiz-adv-x="728" 
d="M319 0q-41 0 -73 16.5t-50 46.5t-18 70v102q0 24 6 45t22 29h-72v40h285q0 44 -30.5 66.5t-66.5 22.5q-25 0 -48 -12t-34 -37l-39 10q7 27 25.5 44.5t44 26.5t52.5 9q34 0 65 -13.5t51 -41.5t20 -70v-45h-164q-18 0 -35.5 -4.5t-28.5 -20t-11 -49.5v-96q0 -17 9 -40.5
t30.5 -41t59.5 -17.5t59 17.5t30 41t9 40.5v53h42v-53q0 -17 9 -40.5t30.5 -41t58.5 -17.5q38 0 59.5 17.5t30.5 41t9 40.5v143h42v-149q0 -61 -39.5 -97t-101.5 -36q-39 0 -70 15t-49 43q-18 -28 -49 -43t-70 -15zM83 -8q-24 32 -35.5 58.5t-14.5 54t-3 58.5v127
q0 52 17.5 86t48 51.5t70.5 17.5q39 0 80 -16l-17 -37q-18 5 -33 8t-29 3q-39 0 -60 -18t-29 -44.5t-8 -50.5v-131q0 -26 3.5 -49.5t15 -47.5t36.5 -54zM227 553l-39 10q0 44 19.5 79.5t52.5 60.5t72 38.5t78 13.5v-40q-46 0 -88 -20t-68.5 -56.5t-26.5 -85.5zM656 241v273
q0 76 -23 120t-65.5 62.5t-101.5 18.5v40q82 0 133 -26.5t75 -80t24 -134.5v-273h-42z" />
    <glyph glyph-name="sinTa" unicode="&#xdad;" horiz-adv-x="760" 
d="M554 -1v40q23 0 47 4t44 18.5t32.5 45.5t12.5 85v122q0 70 -27 116t-70.5 68.5t-93.5 22.5q-39 0 -78.5 -14t-71.5 -41l-280 -241l-39 -29v50l290 248q28 22 59 36.5t64 22t65 7.5q58 0 108.5 -26t82 -80t31.5 -140v-122q0 -63 -15 -106t-53 -65t-108 -22zM314 -4
q-60 0 -99 14.5t-62 38t-37 48.5t-23.5 48t-20 38t-29.5 15q-4 0 -7 -0.5t-6 -1.5l20 38q3 1 6 1h5q22 0 35 -14.5t22.5 -37t21.5 -48t32.5 -48t54.5 -37t87 -14.5q52 0 86 21t51 55.5t17 76.5q0 43 -7.5 79t-37.5 62.5t-98 40.5l37 32q66 -15 97 -48.5t40 -76.5t9 -89
q0 -54 -21 -97.5t-64 -69.5t-109 -26zM104 440l-39 12q16 41 39.5 65.5t52 36t57.5 11.5q32 0 60.5 -11.5t49.5 -32.5t28 -48l-31 -28q-10 35 -40.5 55.5t-67.5 20.5q-31 0 -61.5 -18.5t-47.5 -62.5z" />
    <glyph glyph-name="sinTha" unicode="&#xdae;" horiz-adv-x="544" 
d="M233 0q-56 0 -94.5 19t-62.5 49.5t-35 65.5t-11 66v70q0 39 9 74.5t29.5 64t56 45t87.5 16.5h21v-40h-21q-68 0 -105 -40t-36 -120v-70q1 -44 20 -80.5t55.5 -58t86.5 -21.5v-40zM289 0v40q57 0 98 20t63 64t22 117h42q0 -118 -53 -179.5t-172 -61.5zM287 755
q65 0 116.5 -21.5t81 -73t29.5 -143.5v-276h-42v257q0 109 -41 163t-143 54h-1v-78q0 -50 19.5 -79t49.5 -41.5t61 -12.5v-40q-58 0 -96 23t-56 62.5t-18 87.5v118h40z" />
    <glyph glyph-name="sinDa" unicode="&#xdaf;" horiz-adv-x="532" 
d="M257 0q-60 0 -111.5 21t-83.5 65t-32 113q0 68 29 113t80.5 67.5t116.5 22.5h136q0 46 -21 76t-55 45t-73 15q-46 0 -84.5 -24t-51.5 -71l-39 13q11 40 37 67.5t61.5 41.5t74.5 14q49 0 92.5 -20.5t71 -62.5t27.5 -107v-27h-186q-58 0 -96.5 -21t-58 -58t-19.5 -84
q0 -45 20.5 -81t61.5 -57t103 -21h39q53 0 96.5 26.5t68.5 81.5l37 -10q-16 -43 -41 -70.5t-54.5 -42t-57.5 -20t-49 -5.5h-39zM361 -204q-42 0 -80.5 17.5t-63 53t-24.5 88.5h40q0 -38 19.5 -64.5t49.5 -40.5t63 -14q42 0 79 23.5t49 74.5l39 -10q-9 -42 -35 -70.5t-62 -43
t-74 -14.5z" />
    <glyph glyph-name="sinDha" unicode="&#xdb0;" horiz-adv-x="580" 
d="M171 0q-41 0 -73 16.5t-50 46.5t-18 70v174q0 30 9.5 60.5t31 56t56 41t84.5 15.5h39v-40h-39q-47 0 -75 -16.5t-41.5 -40t-18 -46.5t-4.5 -36v-162q0 -17 9 -40.5t30.5 -41t59.5 -17.5t59 17.5t30 41t9 40.5v53h42v-53q0 -17 9 -40.5t30.5 -41t58.5 -17.5
q38 0 59.5 17.5t30.5 41t9 40.5v61h42v-67q0 -61 -39.5 -97t-101.5 -36q-39 0 -70 15t-49 43q-18 -28 -49 -43t-70 -15zM79 553l-39 10q0 44 19.5 79.5t52.5 60.5t72 38.5t78 13.5v-40q-46 0 -88 -20t-68.5 -56.5t-26.5 -85.5zM508 200v314q0 76 -23 120t-65.5 62.5
t-101.5 18.5v40q82 0 133 -26.5t75 -80t24 -134.5v-314h-42z" />
    <glyph glyph-name="sinNa" unicode="&#xdb1;" horiz-adv-x="728" 
d="M522 -1v40q23 0 47 4t44 18.5t32.5 45.5t12.5 85v144q0 59 -27.5 100.5t-71 63.5t-91.5 22q-40 0 -78.5 -17.5t-65.5 -52.5l-78 -103q-24 -32 -52.5 -63.5t-60 -52t-66.5 -20.5l-17 1v44l14 -2q24 0 50 18.5t48.5 42t34.5 39.5l97 129q29 38 77.5 58.5t101.5 20.5
q42 0 82 -13.5t72.5 -41t51.5 -70.5t19 -103v-144q0 -63 -15 -106t-53 -65t-108 -22zM273 -5q-45 0 -88 16t-78 48t-56 81.5t-21 115.5v88h41v-74q0 -60 17.5 -103.5t47 -72.5t66 -43t73.5 -14q44 0 83.5 19.5t64.5 58t25 93.5q0 31 -10 61.5t-35.5 57t-72.5 43.5l25 33
q48 -15 78.5 -46t44.5 -70t14 -79q0 -69 -31.5 -116.5t-81.5 -72t-106 -24.5zM72 440l-39 12q16 41 39.5 65.5t52 36t57.5 11.5q32 0 60.5 -11.5t49.5 -32.5t28 -48l-31 -28q-10 35 -40.5 55.5t-67.5 20.5q-31 0 -61.5 -18.5t-47.5 -62.5z" />
    <glyph glyph-name="sinNda" unicode="&#xdb3;" horiz-adv-x="672" 
d="M397 0q-60 0 -111.5 21t-83.5 65t-32 113q0 68 29 113t80.5 67.5t116.5 22.5h136q0 46 -21 76t-55 45t-73 15q-30 0 -58 -11t-48.5 -32t-29.5 -52l-39 13q11 40 37 67.5t61.5 41.5t74.5 14q49 0 92.5 -20.5t71 -62.5t27.5 -107v-27h-186q-58 0 -96.5 -21t-58 -58
t-19.5 -84q0 -45 20.5 -81t61.5 -57t103 -21h39q53 0 96.5 26.5t68.5 81.5l37 -10q-16 -43 -41 -70.5t-54.5 -42t-57.5 -20t-49 -5.5h-39zM501 -204q-42 0 -80.5 17.5t-63 53t-24.5 88.5h40q0 -38 19.5 -64.5t49.5 -40.5t63 -14q42 0 79 23.5t49 74.5l39 -10
q-9 -42 -35 -70.5t-62 -43t-74 -14.5zM94 -8q-30 39 -43.5 71t-17 66.5t-3.5 79.5v88q0 69 23.5 113t60 65.5t76.5 21.5q22 0 48 -8v-43q-13 5 -25.5 7t-23.5 2q-40 0 -66.5 -24t-39.5 -60t-13 -74v-88q0 -40 3 -71t17 -61t46 -69z" />
    <glyph glyph-name="sinPa" unicode="&#xdb4;" 
d="M279 -6q-133 0 -191 46t-58 153h40q0 -66 24.5 -100.5t71.5 -46.5t113 -12h62q67 0 113.5 12.5t71 47t24.5 99.5h40q0 -107 -58 -153t-191 -46h-62zM30 242q0 61 21 96t58 49.5t85 14.5h225q54 0 92 -13.5t58.5 -48.5t20.5 -98h-40q0 39 -9.5 66t-37 40.5t-82.5 13.5
h-226q-54 0 -81 -16t-35.5 -43.5t-8.5 -60.5h-40zM290 379v36q0 27 -11 52t-35 41t-63 16q-47 0 -74 -16.5t-37 -43.5l-39 13q20 49 61 68t89 19q19 0 43 -5.5t47.5 -19.5t38.5 -41q16 27 39 41t47.5 19.5t42.5 5.5q48 0 89.5 -19t60.5 -68l-39 -13q-10 27 -37 43.5
t-74 16.5q-39 0 -63 -16t-35 -41t-11 -52v-36h-40z" />
    <glyph glyph-name="sinPha" unicode="&#xdb5;" horiz-adv-x="548" 
d="M175 479q34 0 65 -13.5t51 -41.5t20 -70v-45h-49q-69 0 -111 -10t-61.5 -37.5t-19.5 -80.5q0 -34 19.5 -66.5t57 -53.5t90.5 -21v-40q-59 0 -106 25.5t-74 67t-27 88.5q0 25 4 46t12 38t21 31q32 35 82.5 44t121.5 9q0 44 -30.5 66.5t-66.5 22.5q-25 0 -48 -12t-34 -37
l-39 10q7 27 25.5 44.5t44 26.5t52.5 9zM293 0v40q57 0 98 20t63 64t22 117h42q0 -118 -53 -179.5t-172 -61.5zM291 755q65 0 116.5 -21.5t81 -73t29.5 -143.5v-276h-42v257q0 109 -41 163t-143 54h-1v-78q0 -50 19.5 -79t49.5 -41.5t61 -12.5v-40q-58 0 -96 23t-56 62.5
t-18 87.5v118h40z" />
    <glyph glyph-name="sinBa" unicode="&#xdb6;" horiz-adv-x="586" 
d="M421 -4q-42 0 -75 19t-52 51.5t-19 74.5v179q0 50 -29.5 82t-75.5 32q-45 0 -72 -31t-27 -83v-143q0 -74 32 -105.5t108 -31.5v-40q-95 0 -138 41.5t-43 135.5v143q0 48 17.5 83.5t49 55.5t73.5 20q43 0 76 -20.5t51.5 -56t18.5 -82.5v-179q0 -43 30 -71.5t76 -28.5
q45 0 73.5 28.5t28.5 71.5v123h42v-120q0 -43 -18.5 -76.5t-51 -52.5t-75.5 -19zM80 553l-39 10q0 52 28 95.5t76 70t108 26.5v-40q-51 0 -90 -21.5t-61 -58.5t-22 -82zM524 264v240q0 66 -22.5 113t-65.5 72.5t-105 25.5h-21v40h21q77 0 129 -28t79 -85.5t27 -147.5v-230
h-42z" />
    <glyph glyph-name="sinBha" unicode="&#xdb7;" horiz-adv-x="743" 
d="M256 -8q-59 0 -101 27t-63.5 73t-21.5 104v54q0 98 54 144h-94v40h265q0 44 -30.5 66.5t-66.5 22.5q-25 0 -48 -12t-34 -37l-39 10q11 40 46 60t76 20q34 0 65 -13.5t51 -41.5t20 -70l-10 -45h-69q-47 0 -80 -13.5t-49.5 -45t-16.5 -85.5v-54q0 -49 17.5 -86t50 -57.5
t78.5 -20.5v-40zM312 -8v40q40 0 68.5 12t43.5 38.5t15 69.5q0 24 -5.5 51.5t-25 47.5t-62.5 20h-54v89q0 59 19.5 105t59 72.5t100.5 26.5v-40q-53 0 -83.5 -23.5t-42.5 -61t-12 -78.5v-50q58 0 89.5 -22.5t44 -56t12.5 -68.5v-19q0 -76 -46 -114.5t-121 -38.5zM527 -8v40
q46 0 78.5 21.5t50 62.5t17.5 100v124q0 59 -16.5 100t-49 62.5t-80.5 21.5v40q60 0 101.5 -27.5t63 -78t21.5 -118.5v-124q0 -68 -21.5 -118.5t-63 -78t-101.5 -27.5z" />
    <glyph glyph-name="sinMa" unicode="&#xdb8;" horiz-adv-x="570" 
d="M317 469h40v-159q0 -26 -12 -44t-30.5 -27t-39.5 -9q-30 0 -55.5 20t-25.5 60v70q0 26 -17 42t-39 16q-25 0 -46.5 -23.5t-21.5 -78.5v-84q0 -59 14 -98t35.5 -62t45.5 -34t45 -14.5t33 -3.5v-40q-66 0 -108 23.5t-64.5 61.5t-31.5 82t-9 85v84q0 49 16.5 80.5t42.5 47
t53 15.5q35 0 63.5 -25.5t28.5 -73.5v-65q0 -19 13 -29t28 -10q16 0 29 10t13 29v154zM30 563q0 42 19.5 77t51 60.5t69 40t73.5 14.5v-40q-42 0 -82 -21.5t-66 -58t-26 -82.5zM299 755q60 0 105 -15.5t75 -46t45.5 -75.5t15.5 -104v-273q0 -59 -15.5 -104t-45.5 -75.5
t-75 -46t-105 -15.5v40q57 0 102 20t71.5 64t26.5 117v273q0 74 -26.5 118t-71.5 63.5t-102 19.5v40z" />
    <glyph glyph-name="sinMba" unicode="&#xdb9;" horiz-adv-x="583" 
d="M185 -11q-47 0 -82 23.5t-54 63.5t-19 91v199q0 38 16.5 63t42 38t53.5 13q26 0 50 -12t39 -36.5t15 -61.5v-55q0 -19 13 -29t28 -10q16 0 29 10t13 29v154h40v-159q0 -26 -12 -44t-30.5 -27t-39.5 -9q-30 0 -55.5 20t-25.5 60v60q0 35 -20.5 52t-46.5 17
q-25 0 -46.5 -18t-21.5 -55v-199q0 -32 13.5 -64t39 -53t61.5 -21q23 0 30.5 10t7.5 30q0 12 -3.5 34t-3 45t12.5 39.5t43 16.5h39q31 0 43 -16.5t12.5 -39.5t-3 -45t-3.5 -34q0 -20 7.5 -30t30.5 -10q36 0 62 21t39.5 53t13.5 64v347q0 74 -26.5 118t-72 63.5t-102.5 19.5
v40q119 0 180 -61.5t61 -179.5v-347q0 -51 -19 -91t-53.5 -63.5t-82.5 -23.5q-41 0 -59 19t-18 50q0 15 3.5 40.5t3.5 39.5q0 25 -11.5 29t-25.5 4q-13 0 -24.5 -4.5t-11.5 -28.5q0 -14 3.5 -39.5t3.5 -40.5q0 -31 -18 -50t-59 -19zM74 553l-39 10q0 44 19.5 79.5t52.5 60.5
t72 38.5t78 13.5v-40q-46 0 -88 -20t-68.5 -56.5t-26.5 -85.5z" />
    <glyph glyph-name="sinYa" unicode="&#xdba;" horiz-adv-x="630" 
d="M182 0q-42 0 -76.5 17.5t-55 49t-20.5 73.5v52h40v-51q0 -50 32.5 -75.5t79.5 -25.5q48 0 80.5 25.5t32.5 75.5v51h40v-51q0 -50 32.5 -75.5t80.5 -25.5q47 0 79.5 25.5t32.5 75.5v51h40v-52q0 -42 -20.5 -73.5t-55 -49t-76.5 -17.5q-43 0 -78 18t-55 49
q-19 -31 -54.5 -49t-78.5 -18zM30 242v98q0 77 30.5 126t80 73t107.5 24h17v-40h-19q-85 0 -130.5 -49.5t-45.5 -132.5v-99h-40zM560 242v56q0 31 -11 44.5t-27.5 16.5t-33.5 3h-193v53q0 47 15.5 76t39.5 45t49.5 22t44.5 6q48 0 89.5 -19t60.5 -68l-39 -13
q-10 27 -37 43.5t-74 16.5q-64 0 -86.5 -31.5t-22.5 -90.5h144q56 0 81.5 -16t32.5 -39.5t7 -48.5v-56h-40z" />
    <glyph glyph-name="sinRa" unicode="&#xdbb;" horiz-adv-x="515" 
d="M234 -6q-38 0 -74.5 12t-65.5 39.5t-46.5 74t-17.5 115.5v182q0 34 6 65t26 67.5t60 84.5l135 162l31 -24l-138 -168q-31 -37 -48 -66.5t-24.5 -59t-7.5 -69.5v-174q0 -106 44.5 -153.5t119.5 -47.5v-40zM304 564q67 0 106.5 -25t57 -70.5t17.5 -107.5v-126
q0 -96 -25 -148t-69 -72t-101 -20v40q83 0 119 50.5t36 149.5v125q0 67 -20.5 102.5t-52.5 48.5t-69 13h-150v3l28 37h123z" />
    <glyph glyph-name="sinLa" unicode="&#xdbd;" horiz-adv-x="606" 
d="M270 -169q-40 0 -82 10.5t-78 37t-58 74.5t-22 123v250q0 75 22 123t58 74t78 36.5t82 10.5v-40q-54 0 -99 -20.5t-71.5 -65t-26.5 -118.5v-250q0 -74 26.5 -119t71.5 -65.5t99 -20.5v-40zM330 -169v40q74 0 121.5 31t72.5 98l39 -11q-16 -48 -41 -78.5t-55.5 -48
t-65.5 -24.5t-71 -7zM203 291v40h190v-40h-190zM420 95q-22 0 -43 5.5t-39 17t-32 28.5t-22 39t-8 50v65h43v-65q0 -48 31 -72.5t69 -24.5q28 0 54.5 13.5t43.5 41.5t17 70v73q0 79 -27.5 120.5t-73.5 57.5t-103 16v40q41 0 84 -7.5t80 -31t59.5 -70t22.5 -125.5v-73
q0 -57 -23 -94t-58.5 -55.5t-74.5 -18.5z" />
    <glyph glyph-name="sinVa" unicode="&#xdc0;" horiz-adv-x="551" 
d="M296 0v40q57 0 98 20t63.5 64t22.5 117v273q0 111 -49.5 156t-134.5 45v40q80 0 129.5 -27.5t72.5 -81t23 -132.5v-273q0 -118 -53 -179.5t-172 -61.5zM240 0q-59 0 -106 25.5t-74 67t-27 88.5q0 25 4 46t12 38t21 31q32 35 82.5 44t121.5 9q0 44 -30.5 66.5t-66.5 22.5
q-25 0 -48 -12t-34 -37l-39 10q7 27 25.5 44.5t44 26.5t52.5 9q34 0 65 -13.5t51 -41.5t20 -70v-45h-49q-69 0 -111 -10t-61.5 -37.5t-19.5 -80.5q0 -34 19.5 -66.5t57 -53.5t90.5 -21v-40zM69 553l-39 10q0 42 19 77t50 60.5t68 40t73 14.5v-40q-42 0 -81.5 -21.5
t-64.5 -58t-25 -82.5z" />
    <glyph glyph-name="sinSha" unicode="&#xdc1;" horiz-adv-x="703" 
d="M30 340q0 68 21.5 118.5t63.5 78t101 27.5v-40q-47 0 -80 -21.5t-49.5 -62.5t-16.5 -100v-124q0 -59 17.5 -100t50 -62.5t78.5 -21.5v-40q-59 0 -101 27.5t-63.5 78t-21.5 118.5v124zM252 360q0 59 19.5 105t59 72.5t100.5 26.5v-40q-53 0 -83.5 -23.5t-42.5 -61
t-12 -78.5v-50h13q51 0 80 -22.5t41 -56t12 -68.5v-19q0 -76 -46 -114.5t-121 -38.5v40q40 0 68.5 12t43.5 38.5t15 69.5q0 24 -5.5 51.5t-25 47.5t-62.5 20h-54v89zM633 216v124q0 59 -16.5 100t-49 62.5t-80.5 21.5v40q60 0 101.5 -27.5t63 -78t21.5 -118.5v-124
q0 -68 -21.5 -118.5t-63 -78t-101.5 -27.5v40q46 0 78.5 21.5t50 62.5t17.5 100zM401 124v20.5t5.5 38.5t21 43t46 35t81.5 14h19v-40h-29q-37 0 -58.5 -12.5t-32 -30.5t-13.5 -37t-3 -31h-37z" />
    <glyph glyph-name="sinSsa" unicode="&#xdc2;" 
d="M279 -6q-133 0 -191 46t-58 153h40q0 -66 24.5 -100.5t71.5 -46.5t113 -12h62q67 0 113.5 12.5t71 47t24.5 99.5h40q0 -107 -58 -153t-191 -46h-62zM30 242q0 61 21 96t58 49.5t85 14.5h225q54 0 92 -13.5t58.5 -48.5t20.5 -98h-40q0 39 -9.5 66t-37 40.5t-82.5 13.5
h-226q-54 0 -81 -16t-35.5 -43.5t-8.5 -60.5h-40zM282 168q0 45 19 85t55 69.5t88 44.5h66q-40 -18 -74.5 -36.5t-60 -40.5t-39.5 -51.5t-14 -70.5h-40zM290 379v36q0 27 -11 52t-35 41t-63 16q-47 0 -74 -16.5t-37 -43.5l-39 13q20 49 61 68t89 19q19 0 43 -5.5t47.5 -19.5
t38.5 -41q16 27 39 41t47.5 19.5t42.5 5.5q48 0 89.5 -19t60.5 -68l-39 -13q-10 27 -37 43.5t-74 16.5q-39 0 -63 -16t-35 -41t-11 -52v-36h-40z" />
    <glyph glyph-name="sinSa" unicode="&#xdc3;" horiz-adv-x="677" 
d="M229 0q-42 0 -76.5 17.5t-55 49t-20.5 73.5v53h40v-52q0 -50 32.5 -75.5t79.5 -25.5q48 0 80.5 25.5t32.5 75.5v52h40v-52q0 -50 32.5 -75.5t80.5 -25.5q47 0 79.5 25.5t32.5 75.5v52h40v-53q0 -42 -20.5 -73.5t-55 -49t-76.5 -17.5q-43 0 -78 18t-55 49
q-19 -31 -54.5 -49t-78.5 -18zM77 242v46q0 24 6 45t22 29h-75v40h501q42 0 65.5 -10.5t34 -28t13.5 -37.5t3 -38v-46h-40v46q0 34 -11 49.5t-28.5 20t-35.5 4.5h-340q-18 0 -35.5 -4.5t-28.5 -20t-11 -49.5v-46h-40zM343 379v36q0 27 -11 52t-35 41t-63 16q-47 0 -74 -16.5
t-37 -43.5l-39 13q20 49 61 68t89 19q19 0 43 -5.5t47.5 -19.5t38.5 -41q16 27 39 41t47.5 19.5t42.5 5.5q48 0 89.5 -19t60.5 -68l-39 -13q-10 27 -37 43.5t-74 16.5q-39 0 -63 -16t-35 -41t-11 -52v-36h-40z" />
    <glyph glyph-name="sinHa" unicode="&#xdc4;" horiz-adv-x="703" 
d="M216 -8q-59 0 -101 27t-63.5 73t-21.5 104v54q0 62 19 103t60 61t106 20h40q0 44 -30.5 66.5t-66.5 22.5q-25 0 -48 -12t-34 -37l-39 10q11 40 46 60t76 20q34 0 65 -13.5t51 -41.5t20 -70v-45h-79q-47 0 -80 -13.5t-49.5 -45t-16.5 -85.5v-54q0 -49 17.5 -86t50 -57.5
t78.5 -20.5v-40zM272 -8v40q40 0 68.5 12t43.5 38.5t15 69.5q0 24 -5.5 51.5t-25 47.5t-62.5 20h-54v89q0 59 19.5 105t59 72.5t100.5 26.5v-40q-53 0 -83.5 -23.5t-42.5 -61t-12 -78.5v-50q58 0 89.5 -22.5t44 -56t12.5 -68.5v-19q0 -76 -46 -114.5t-121 -38.5zM487 -8v40
q46 0 78.5 21.5t50 62.5t17.5 100v124q0 59 -16.5 100t-49 62.5t-80.5 21.5v40q60 0 101.5 -27.5t63 -78t21.5 -118.5v-124q0 -68 -21.5 -118.5t-63 -78t-101.5 -27.5z" />
    <glyph glyph-name="sinLla" unicode="&#xdc5;" horiz-adv-x="609" 
d="M283 -170q-113 0 -183 61t-70 186v117q0 64 29 107t72 65t84 22h325v-40h-322q-34 0 -68 -17t-56 -51t-22 -85v-118q0 -61 18.5 -101t49.5 -63t68.5 -32.5t74.5 -9.5v-41zM344 -170v40q46 0 88 11.5t73 42t44 86.5l40 -11q-11 -52 -36.5 -85t-60 -51.5t-73 -25.5
t-75.5 -7zM367 99h-52q-57 0 -96 21t-62 55t-33 73t-9 75l41 26q0 -14 2 -39.5t9.5 -54.5t24.5 -55.5t47 -43.5t76 -17h52q49 0 82.5 20.5t49.5 56.5l41 -11q-12 -29 -34.5 -53.5t-56.5 -38.5t-82 -14zM108 415v22q0 62 33.5 94.5t90.5 32.5q22 0 49 -11t44 -37q17 26 44 37
t49 11q59 0 90.5 -32.5t31.5 -94.5h-40q0 44 -22 64.5t-57 20.5q-31 0 -53.5 -22t-22.5 -64h-40q0 42 -22.5 64t-54.5 22q-37 0 -58.5 -22t-21.5 -75z" />
    <glyph glyph-name="sinFa" unicode="&#xdc6;" horiz-adv-x="630" 
d="M30 242v182q0 42 20.5 73.5t55 49t76.5 17.5q43 0 78.5 -17.5t54.5 -49.5q20 32 55 49.5t78 17.5q42 0 76.5 -17.5t55 -49t20.5 -73.5v-182h-40v181q0 50 -32.5 75.5t-79.5 25.5q-48 0 -80.5 -25.5t-32.5 -75.5v-181h-40v181q0 50 -32.5 75.5t-80.5 25.5
q-47 0 -79.5 -25.5t-32.5 -75.5v-181h-40zM225 0q-69 0 -112 27t-63 71t-20 94h40q0 -32 13.5 -67.5t47 -60t94.5 -24.5v-40zM405 0v40q61 0 94.5 24.5t47 60t13.5 67.5h40q0 -50 -20 -94t-62.5 -71t-112.5 -27z" />
    <glyph glyph-name="sinVirama" unicode="&#xdca;" horiz-adv-x="100" 
d="M30 619v200h40v-200h-40z" />
    <glyph glyph-name="sinMatraAa" unicode="&#xdcf;" horiz-adv-x="260" 
d="M30 0v40h20q20 0 43.5 3.5t45.5 18t36 46.5t14 89v170q0 57 -14 89t-36 46.5t-45.5 18t-43.5 3.5h-20v40h20q65 0 104.5 -22.5t57.5 -66t18 -108.5v-170q0 -64 -18 -108t-57.5 -66.5t-104.5 -22.5h-20z" />
    <glyph glyph-name="sinMatraAe" unicode="&#xdd0;" horiz-adv-x="257" 
d="M216 0q-58 0 -100 19.5t-64 59.5t-22 104v106q0 41 5 70.5t19 55.5t41 54t72 65h-137v40h197v-40q-57 -47 -89.5 -79.5t-46.5 -57.5t-17.5 -50t-3.5 -58v-106q0 -18 3 -42.5t16 -47.5t43 -38t83 -15h12v-40h-11z" />
    <glyph glyph-name="sinMatraAae" unicode="&#xdd1;" horiz-adv-x="257" 
d="M196 0q-48 0 -85.5 13t-59 46t-21.5 91v46q0 37 8.5 64t36 55.5t84.5 67.5h-129v40l134 111h-134v40h197v-40l-135 -111h135v-40q-58 -40 -90.5 -66.5t-46.5 -44.5t-17 -33t-3 -33v-56q0 -15 2.5 -33.5t14 -36t37 -29t71.5 -11.5h32v-40h-31z" />
    <glyph glyph-name="sinMatraI" unicode="&#xdd2;" horiz-adv-x="0" 
d="M-584 602v28q0 47 23 82.5t63 56t90 20.5h171q50 0 90 -20.5t63 -56t23 -82.5v-28h-40q0 20 -4 45t-18.5 48t-45 38.5t-84.5 15.5h-139q-54 0 -84.5 -15.5t-45 -38.5t-18.5 -48t-4 -45h-40z" />
    <glyph glyph-name="sinMatraIi" unicode="&#xdd3;" horiz-adv-x="0" 
d="M-530 671v-34h-42v35q0 64 39.5 105.5t115.5 41.5h81v-40h-64q-67 0 -98.5 -27t-31.5 -81zM-239 819q95 0 138 -34.5t43 -102.5q0 -49 -30 -82t-75 -34q-34 0 -61 14.5t-42 42t-15 62.5v41h38v-41q0 -36 21.5 -58.5t54.5 -22.5q31 0 51 22.5t20 55.5q0 48 -33 72.5
t-93 24.5h-59v40h42z" />
    <glyph glyph-name="sinMatraU" unicode="&#xdd4;" horiz-adv-x="0" 
d="M-100 -205v338h40v-338h-40zM-508 -205v40h182v-40h-182zM-270 -205v40h180v-40h-180z" />
    <glyph glyph-name="sinMatraUu" unicode="&#xdd6;" horiz-adv-x="0" 
d="M-100 -205v328h40v-328h-40zM-100 -205q-44 23 -78 31t-56.5 9t-30.5 1v42q5 0 27 -0.5t58 -8.5t80 -30v-44zM-441 -199q-16 0 -34 7.5t-41 27.5v42q23 -20 41.5 -28t34.5 -8q21 0 38.5 9t37 18t43.5 9v-42q-24 0 -43 -8.5t-37.5 -17.5t-39.5 -9z" />
    <glyph glyph-name="sinMatraR" unicode="&#xdd8;" horiz-adv-x="314" 
d="M146 0q-37 0 -68.5 18.5t-50 50t-18.5 68.5q0 38 18.5 69t50 49.5t68.5 18.5h41v-40h-41q-40 0 -68.5 -28.5t-28.5 -68.5t28.5 -68.5t68.5 -28.5t68.5 28.5t28.5 68.5v262q0 40 -10.5 67.5t-29.5 42.5t-45 15h-90v40h88q45 0 73 -20.5t41 -57.5t13 -87v-262
q0 -37 -18.5 -68.5t-49.5 -50t-69 -18.5z" />
    <glyph glyph-name="sinMatraE" unicode="&#xdd9;" horiz-adv-x="457" 
d="M188 -5q-54 0 -86 23t-47.5 57t-20 67.5t-4.5 55.5v173q0 29 7.5 62.5t27 63t54.5 48.5t89 19h41v-40h-40q-54 0 -84.5 -22t-42.5 -56.5t-12 -74.5v-173q0 -49 12.5 -86t42.5 -57t84 -20v-40h-21zM257 -5v40q70 0 100 32t30 87v99q0 29 -11 42t-26.5 16t-29.5 3h-87v40
h87q30 0 54 -8t38.5 -29.5t14.5 -61.5v-98q0 -43 -15 -80t-48 -59.5t-86 -22.5h-21zM383 421q-1 8 -5.5 25t-18 35t-39.5 30.5t-71 12.5v40h21q49 0 81.5 -21.5t51 -52.5t21.5 -59z" />
    <glyph glyph-name="sinMatraEe" unicode="&#xdda;" horiz-adv-x="700" 
d="M630 619v200h40v-200h-40zM188 -5q-54 0 -86 23t-47.5 57t-20 67.5t-4.5 55.5v173q0 29 7.5 62.5t27 63t54.5 48.5t89 19h41v-40h-40q-54 0 -84.5 -22t-42.5 -56.5t-12 -74.5v-173q0 -49 12.5 -86t42.5 -57t84 -20v-40h-21zM257 -5v40q70 0 100 32t30 87v99q0 29 -11 42
t-26.5 16t-29.5 3h-87v40h87q30 0 54 -8t38.5 -29.5t14.5 -61.5v-98q0 -43 -15 -80t-48 -59.5t-86 -22.5h-21zM383 421q-1 8 -5.5 25t-18 35t-39.5 30.5t-71 12.5v40h21q49 0 81.5 -21.5t51 -52.5t21.5 -59z" />
    <glyph glyph-name="sinMatraAi" unicode="&#xddb;" horiz-adv-x="914" 
d="M188 -5q-54 0 -86 23t-47.5 57t-20 67.5t-4.5 55.5v173q0 29 7.5 62.5t27 63t54.5 48.5t89 19h41v-40h-40q-54 0 -84.5 -22t-42.5 -56.5t-12 -74.5v-173q0 -49 12.5 -86t42.5 -57t84 -20v-40h-21zM257 -5v40q70 0 100 32t30 87v99q0 29 -11 42t-26.5 16t-29.5 3h-87v40
h87q30 0 54 -8t38.5 -29.5t14.5 -61.5v-98q0 -43 -15 -80t-48 -59.5t-86 -22.5h-21zM383 421q-1 8 -5.5 25t-18 35t-39.5 30.5t-71 12.5v40h21q49 0 81.5 -21.5t51 -52.5t21.5 -59zM645 -5q-54 0 -86 23t-47.5 57t-20 67.5t-4.5 55.5v173q0 29 7.5 62.5t27 63t54.5 48.5
t89 19h41v-40h-40q-54 0 -84.5 -22t-42.5 -56.5t-12 -74.5v-173q0 -49 12.5 -86t42.5 -57t84 -20v-40h-21zM714 -5v40q70 0 100 32t30 87v99q0 29 -11 42t-26.5 16t-29.5 3h-87v40h87q30 0 54 -8t38.5 -29.5t14.5 -61.5v-98q0 -43 -15 -80t-48 -59.5t-86 -22.5h-21zM840 421
q-1 8 -5.5 25t-18 35t-39.5 30.5t-71 12.5v40h21q49 0 81.5 -21.5t51 -52.5t21.5 -59z" />
    <glyph glyph-name="sinMatraO" unicode="&#xddc;" horiz-adv-x="717" 
d="M487 0v40h20q20 0 43.5 3.5t45.5 18t36 46.5t14 89v170q0 57 -14 89t-36 46.5t-45.5 18t-43.5 3.5h-20v40h20q65 0 104.5 -22.5t57.5 -66t18 -108.5v-170q0 -64 -18 -108t-57.5 -66.5t-104.5 -22.5h-20zM188 -5q-54 0 -86 23t-47.5 57t-20 67.5t-4.5 55.5v173
q0 29 7.5 62.5t27 63t54.5 48.5t89 19h41v-40h-40q-54 0 -84.5 -22t-42.5 -56.5t-12 -74.5v-173q0 -49 12.5 -86t42.5 -57t84 -20v-40h-21zM257 -5v40q70 0 100 32t30 87v99q0 29 -11 42t-26.5 16t-29.5 3h-87v40h87q30 0 54 -8t38.5 -29.5t14.5 -61.5v-98q0 -43 -15 -80
t-48 -59.5t-86 -22.5h-21zM383 421q-1 8 -5.5 25t-18 35t-39.5 30.5t-71 12.5v40h21q49 0 81.5 -21.5t51 -52.5t21.5 -59z" />
    <glyph glyph-name="sinMatraOo" unicode="&#xddd;" horiz-adv-x="784" 
d="M553 619v200h40v-200h-40zM554 0v40h20q20 0 43.5 3.5t45.5 18t36 46.5t14 89v170q0 57 -14 89t-36 46.5t-45.5 18t-43.5 3.5h-20v40h20q65 0 104.5 -22.5t57.5 -66t18 -108.5v-170q0 -64 -18 -108t-57.5 -66.5t-104.5 -22.5h-20zM188 -5q-54 0 -86 23t-47.5 57t-20 67.5
t-4.5 55.5v173q0 29 7.5 62.5t27 63t54.5 48.5t89 19h41v-40h-40q-54 0 -84.5 -22t-42.5 -56.5t-12 -74.5v-173q0 -49 12.5 -86t42.5 -57t84 -20v-40h-21zM257 -5v40q70 0 100 32t30 87v99q0 29 -11 42t-26.5 16t-29.5 3h-87v40h87q30 0 54 -8t38.5 -29.5t14.5 -61.5v-98
q0 -43 -15 -80t-48 -59.5t-86 -22.5h-21zM383 421q-1 8 -5.5 25t-18 35t-39.5 30.5t-71 12.5v40h21q49 0 81.5 -21.5t51 -52.5t21.5 -59z" />
    <glyph glyph-name="sinMatraAu" unicode="&#xdde;" horiz-adv-x="857" 
d="M658 -8q-42 0 -81.5 17.5t-64.5 52.5t-25 87v53h40v-54q0 -36 19.5 -61t49.5 -37.5t63 -12.5q32 0 61.5 12t48 37t18.5 62v318q0 29 -17 43t-38 14q-20 0 -37.5 -14t-17.5 -43v-52q0 -50 -30 -75.5t-65 -25.5q-24 0 -45.5 11t-35.5 33.5t-14 56.5v150h40v-151
q0 -28 17.5 -42.5t37.5 -14.5q21 0 38 14.5t17 42.5v52q0 34 14 56.5t35.5 33.5t45.5 11q35 0 65 -25.5t30 -75.5v-316q0 -52 -24.5 -87t-63 -52.5t-81.5 -17.5zM188 -5q-54 0 -86 23t-47.5 57t-20 67.5t-4.5 55.5v173q0 29 7.5 62.5t27 63t54.5 48.5t89 19h41v-40h-40
q-54 0 -84.5 -22t-42.5 -56.5t-12 -74.5v-173q0 -49 12.5 -86t42.5 -57t84 -20v-40h-21zM257 -5v40q70 0 100 32t30 87v99q0 29 -11 42t-26.5 16t-29.5 3h-87v40h87q30 0 54 -8t38.5 -29.5t14.5 -61.5v-98q0 -43 -15 -80t-48 -59.5t-86 -22.5h-21zM383 421q-1 8 -5.5 25
t-18 35t-39.5 30.5t-71 12.5v40h21q49 0 81.5 -21.5t51 -52.5t21.5 -59z" />
    <glyph glyph-name="sinMatraLs" unicode="&#xddf;" horiz-adv-x="380" 
d="M181 -8q-42 0 -81.5 17.5t-64.5 52.5t-25 87v53h40v-54q0 -36 19.5 -61t49.5 -37.5t63 -12.5q32 0 61.5 12t48 37t18.5 62v318q0 29 -17 43t-38 14q-20 0 -37.5 -14t-17.5 -43v-52q0 -50 -30 -75.5t-65 -25.5q-24 0 -45.5 11t-35.5 33.5t-14 56.5v150h40v-151
q0 -28 17.5 -42.5t37.5 -14.5q21 0 38 14.5t17 42.5v52q0 34 14 56.5t35.5 33.5t45.5 11q35 0 65 -25.5t30 -75.5v-316q0 -52 -24.5 -87t-63 -52.5t-81.5 -17.5z" />
    <glyph glyph-name="sinOnelith" unicode="&#xde7;" horiz-adv-x="798" 
d="M280 284q0 23 19.5 39.5t45.5 16.5t45.5 -16.5t19.5 -39.5q0 -22 -19.5 -39t-45.5 -17t-45.5 17t-19.5 39zM40 245q0 -75 36.5 -131.5t100 -87.5t143.5 -31q85 0 143 25t88 69.5t30 103.5q0 60 -30 100.5t-79.5 61t-110.5 20.5q-50 0 -85 -26t-35 -69q0 -26 15 -46
t39 -31.5t51 -11.5q26 0 49.5 10t38.5 29.5t15 47.5q0 14 -5 28.5t-17 26.5q44 -7 78 -36t34 -78q0 -50 -33 -81t-83 -45.5t-103 -14.5q-63 0 -115 25t-83 67.5t-31 92.5t22.5 87.5t60.5 63t85.5 38t97.5 12.5q71 0 137 -23t118.5 -76t83 -144t30.5 -226h35q0 139 -32.5 236
t-89 157.5t-129.5 88.5t-153 28q-62 0 -119 -18t-101.5 -52t-70.5 -82t-26 -108z" />
    <glyph glyph-name="sinTwolith" unicode="&#xde8;" horiz-adv-x="1132" 
d="M1068 190q0 -82 -35.5 -133t-100.5 -51q-21 0 -36.5 4t-24.5 10v-31q11 -8 28 -11.5t31 -3.5q62 0 100.5 32t57 84t18.5 112q0 30 -3.5 67.5t-15 75.5t-33.5 70t-58.5 51.5t-91.5 19.5q-37 0 -73 -15.5t-64 -48t-41.5 -84.5t-6.5 -125l6 -58l31 -69q-2 24 -4.5 46.5
t-2.5 42.5q0 71 12.5 121t46 76.5t96.5 26.5q53 0 89.5 -27t55.5 -74t19 -108zM280 284q0 23 19.5 39.5t45.5 16.5t45.5 -16.5t19.5 -39.5q0 -22 -19.5 -39t-45.5 -17t-45.5 17t-19.5 39zM40 245q0 -75 36.5 -131.5t100 -87.5t143.5 -31q85 0 143 25t88 69.5t30 103.5
q0 60 -30 100.5t-79.5 61t-110.5 20.5q-50 0 -85 -26t-35 -69q0 -26 15 -46t39 -31.5t51 -11.5q26 0 49.5 10t38.5 29.5t15 47.5q0 14 -5 28.5t-17 26.5q44 -7 78 -36t34 -78q0 -50 -33 -81t-83 -45.5t-103 -14.5q-63 0 -115 25t-83 67.5t-31 92.5t22.5 87.5t60.5 63
t85.5 38t97.5 12.5q71 0 137 -23t118.5 -76t83 -144t30.5 -226h35q0 139 -32.5 236t-89 157.5t-129.5 88.5t-153 28q-62 0 -119 -18t-101.5 -52t-70.5 -82t-26 -108z" />
    <glyph glyph-name="sinThreelith" unicode="&#xde9;" horiz-adv-x="1522" 
d="M1164 125q0 -61 36 -95.5t95 -34.5q80 0 121 62.5t41 175.5t-41 176.5t-121 63.5q-35 0 -65 -16t-48 -45.5t-18 -70.5v-13t1 -13h31q-1 5 -1 9v8q0 29 11.5 50.5t30.5 33.5t41 12q35 0 57.5 -22t33 -65t10.5 -108q0 -64 -10.5 -107.5t-33 -65t-57.5 -22.5q-27 0 -45.5 12
t-28 34t-9.5 50v9.5t1 8.5h-31q-1 -7 -1 -13.5v-13.5zM280 284q0 23 19.5 39.5t45.5 16.5t45.5 -16.5t19.5 -39.5q0 -22 -19.5 -39t-45.5 -17t-45.5 17t-19.5 39zM40 245q0 -75 36.5 -131.5t100 -87.5t143.5 -31q85 0 143 25t88 69.5t30 103.5q0 60 -30 100.5t-79.5 61
t-110.5 20.5q-50 0 -85 -26t-35 -69q0 -26 15 -46t39 -31.5t51 -11.5q26 0 49.5 10t38.5 29.5t15 47.5q0 14 -5 28.5t-17 26.5q44 -7 78 -36t34 -78q0 -50 -33 -81t-83 -45.5t-103 -14.5q-63 0 -115 25t-83 67.5t-31 92.5t22.5 87.5t60.5 63t85.5 38t97.5 12.5q71 0 137 -23
t118.5 -76t83 -144t30.5 -226h35q0 139 -32.5 236t-89 157.5t-129.5 88.5t-153 28q-62 0 -119 -18t-101.5 -52t-70.5 -82t-26 -108zM1068 190q0 -82 -35.5 -133t-100.5 -51q-21 0 -36.5 4t-24.5 10v-31q11 -8 28 -11.5t31 -3.5q62 0 100.5 32t57 84t18.5 112q0 30 -3.5 67.5
t-15 75.5t-33.5 70t-58.5 51.5t-91.5 19.5q-37 0 -73 -15.5t-64 -48t-41.5 -84.5t-6.5 -125l6 -58l31 -69q-2 24 -4.5 46.5t-2.5 42.5q0 71 12.5 121t46 76.5t96.5 26.5q53 0 89.5 -27t55.5 -74t19 -108z" />
    <glyph glyph-name="sinFourlith" unicode="&#xdea;" horiz-adv-x="690" 
d="M27 197q0 -56 25.5 -94.5t69.5 -62t100.5 -34t117.5 -10.5q56 0 109 10.5t95.5 34t67.5 61.5t25 92q0 51 -20 84t-53.5 52t-73.5 26.5t-81 7.5q-11 0 -19.5 -1t-16.5 -2q-3 17 -3 29q0 35 23 60.5t85 25.5q39 0 64 -15.5t25 -44.5q0 -23 -16 -37.5t-42 -14.5
q-29 0 -43.5 21t-14.5 52q0 42 11.5 73.5t27 53.5t28.5 35q22 23 46.5 37t46.5 24t35.5 19t13.5 21q0 9 -7.5 17t-21.5 8q-18 0 -45 -12t-59 -42q-26 -23 -51.5 -58t-42 -79t-16.5 -95q0 -25 9 -50t28.5 -41t51.5 -16q38 0 59 13t29.5 32t8.5 36q0 35 -20 56t-47.5 30.5
t-52.5 9.5q-40 0 -74 -11.5t-54.5 -38t-20.5 -72.5q0 -26 9 -55q13 1 29.5 3t35.5 2q68 0 109.5 -17.5t60 -45.5t18.5 -58q0 -39 -23 -65.5t-61.5 -42.5t-85 -22.5t-93.5 -6.5q-46 0 -92 6.5t-84.5 22.5t-62 42.5t-23.5 65.5q0 21 10 42.5t31.5 39.5t58 29t88.5 11
q8 0 18.5 -0.5t20.5 -1.5q3 11 4 22.5t1 21.5q0 59 -37 92.5t-96 33.5q-28 0 -54.5 -8.5t-44 -27t-17.5 -47.5q0 -22 12.5 -34.5t29.5 -12.5q24 0 35 13.5t21 34.5q6 14 20 24t33 10q22 0 36 -10t20.5 -26.5t6.5 -34.5q0 -7 -0.5 -12t-2.5 -11q-7 1 -10.5 1h-20.5
q-66 0 -112 -22.5t-70.5 -60.5t-24.5 -85z" />
    <glyph glyph-name="sinFivelith" unicode="&#xdeb;" horiz-adv-x="540" 
d="M282 -21q24 0 46.5 2t53.5 11q-41 -56 -62 -100.5t-21 -79.5q0 -34 14 -60t42 -41t70 -16q19 0 34.5 1t28.5 4v32q-37 9 -64.5 23.5t-42 39t-14.5 62.5q0 33 13 64.5t32.5 59t39.5 50t33 38.5l-26 20q-35 -40 -69.5 -58.5t-75.5 -18.5q-49 0 -90.5 22.5t-66.5 62
t-25 88.5q0 74 40 108.5t119 34.5h162q-16 84 -56.5 124t-116.5 40q-49 0 -81 -20t-32 -52q0 -19 11.5 -31t33.5 -12q14 0 26.5 8t21.5 27q8 17 21.5 27t30.5 10q39 0 64 -26.5t34 -67.5h-141q-106 0 -167 -40.5t-61 -134.5q0 -89 62.5 -145t178.5 -56z" />
    <glyph glyph-name="sinSixlith" unicode="&#xdec;" horiz-adv-x="828" 
d="M406 380q28 0 70 -4t88 -16.5t86.5 -36.5t66 -64.5t25.5 -100.5q0 -51 -16.5 -85t-42 -54t-54 -29t-52.5 -10v-24q34 0 70 11t66.5 36t49.5 65.5t19 100.5q0 73 -26.5 124.5t-69 85.5t-93 53t-100 26.5t-87.5 7.5q-39 0 -86.5 -9t-95.5 -29t-88.5 -54.5t-65 -85.5
t-24.5 -122q0 -57 18.5 -97.5t47.5 -65t63 -36t65 -11.5q68 0 104.5 35.5t36.5 94.5v14t-1 13h-31q1 -4 1 -8.5v-9.5q0 -50 -28 -79t-82 -29q-21 0 -47 7.5t-50.5 26.5t-40.5 52t-16 84q0 57 23.5 96.5t61.5 64.5t82 38.5t84.5 18.5t68.5 5zM577 -44q29 0 53.5 14.5t39 38.5
t14.5 53t-14.5 53.5t-39 39t-53.5 14.5t-53 -14.5t-38.5 -39t-14.5 -53.5q0 -43 31.5 -74.5t74.5 -31.5zM577 136q30 0 51 -21.5t21 -51.5t-21 -51t-51 -21t-51 21t-21 51t21 51.5t51 21.5z" />
    <glyph glyph-name="sinSevenlith" unicode="&#xded;" horiz-adv-x="704" 
d="M284 483q-56 0 -92 -20t-36 -60q0 -18 12.5 -31t31.5 -13q22 0 32.5 10.5t17.5 21.5q13 20 30 31t41 11q32 0 53.5 -15.5t33 -40.5t11.5 -55h-110q-84 0 -145.5 -31.5t-95 -87.5t-33.5 -130q0 -65 27.5 -118.5t76 -92t111.5 -59.5t134 -21q67 0 122.5 20t95.5 56.5
t61.5 86t21.5 108.5h-33q0 -48 -18 -90t-51.5 -74t-80 -50t-102.5 -18q-80 0 -142 35t-97.5 95t-35.5 134q0 96 57.5 152t166.5 56h108v3v3q0 56 -20.5 97t-59 64t-93.5 23z" />
    <glyph glyph-name="sinEightlith" unicode="&#xdee;" horiz-adv-x="613" 
d="M39 189q0 -73 33.5 -129.5t92 -89t131.5 -32.5q81 0 143.5 36.5t98 97t35.5 132.5q0 50 -15 90.5t-47 75.5q-34 38 -77 58.5t-87 22.5q26 7 59.5 20.5t65.5 29t54 27.5q54 31 76.5 57t22.5 48q0 11 -8 16.5t-20 5.5q-13 0 -23 -8.5t-21.5 -22.5t-26.5 -31t-38 -33
q-51 -37 -104 -61t-100 -40t-81 -31q-44 -19 -81.5 -50.5t-60 -77.5t-22.5 -111zM80 217q0 45 20 83t54 65.5t76 42.5t85 15q55 0 99 -21t70.5 -62t26.5 -102q0 -62 -30 -110.5t-81 -76t-114 -27.5t-109.5 25.5t-71.5 69t-25 98.5z" />
    <glyph glyph-name="sinNinelith" unicode="&#xdef;" horiz-adv-x="1172" 
d="M722 678q0 33 23 54.5t55 21.5t55 -22t23 -54q0 -28 -22.5 -50.5t-55.5 -22.5q-34 0 -56 22.5t-22 50.5zM312 670q0 -44 34 -81t98 -52l7 12q-60 20 -83 50t-23 53q0 48 38 77t98.5 42.5t128.5 13.5q34 0 66.5 -3.5t56 -8.5t30.5 -9l19 20q-31 0 -52 -16.5t-32 -41
t-11 -49.5q0 -30 15.5 -54t41.5 -38t56 -14q48 0 81.5 31.5t33.5 78.5q0 46 -28 81t-73.5 59t-99.5 36t-106 12q-79 0 -135.5 -19t-92 -49t-52 -64.5t-16.5 -66.5zM280 284q0 23 19.5 39.5t45.5 16.5t45.5 -16.5t19.5 -39.5q0 -22 -19.5 -39t-45.5 -17t-45.5 17t-19.5 39z
M40 245q0 -75 36.5 -131.5t100 -87.5t143.5 -31q85 0 143 25t88 69.5t30 103.5q0 60 -30 100.5t-79.5 61t-110.5 20.5q-50 0 -85 -26t-35 -69q0 -26 15 -46t39 -31.5t51 -11.5q26 0 49.5 10t38.5 29.5t15 47.5q0 14 -5 28.5t-17 26.5q44 -7 78 -36t34 -78q0 -50 -33 -81
t-83 -45.5t-103 -14.5q-63 0 -115 25t-83 67.5t-31 92.5t22.5 87.5t60.5 63t85.5 38t97.5 12.5q71 0 137 -23t118.5 -76t83 -144t30.5 -226h35q0 139 -32.5 236t-89 157.5t-129.5 88.5t-153 28q-62 0 -119 -18t-101.5 -52t-70.5 -82t-26 -108zM1068 190q0 -82 -35.5 -133
t-100.5 -51q-21 0 -36.5 4t-24.5 10v-31q11 -8 28 -11.5t31 -3.5q62 0 100.5 32t57 84t18.5 112q0 30 -3.5 67.5t-15 75.5t-33.5 70t-58.5 51.5t-91.5 19.5q-37 0 -73 -15.5t-64 -48t-41.5 -84.5t-6.5 -125l6 -58l31 -69q-2 24 -4.5 46.5t-2.5 42.5q0 71 12.5 121t46 76.5
t96.5 26.5q53 0 89.5 -27t55.5 -74t19 -108z" />
    <glyph glyph-name="sinMatraRr" unicode="&#xdf2;" horiz-adv-x="628" 
d="M146 0q-37 0 -68.5 18.5t-50 50t-18.5 68.5q0 38 18.5 69t50 49.5t68.5 18.5h41v-40h-41q-40 0 -68.5 -28.5t-28.5 -68.5t28.5 -68.5t68.5 -28.5t68.5 28.5t28.5 68.5v262q0 40 -10.5 67.5t-29.5 42.5t-45 15h-90v40h88q45 0 73 -20.5t41 -57.5t13 -87v-262
q0 -37 -18.5 -68.5t-49.5 -50t-69 -18.5zM460 0q-37 0 -68.5 18.5t-50 50t-18.5 68.5q0 38 18.5 69t50 49.5t68.5 18.5h41v-40h-41q-40 0 -68.5 -28.5t-28.5 -68.5t28.5 -68.5t68.5 -28.5t68.5 28.5t28.5 68.5v262q0 40 -10.5 67.5t-29.5 42.5t-45 15h-90v40h88
q45 0 73 -20.5t41 -57.5t13 -87v-262q0 -37 -18.5 -68.5t-49.5 -50t-69 -18.5z" />
    <glyph glyph-name="sinMatraLl" unicode="&#xdf3;" horiz-adv-x="380" 
d="M181 -8q-42 0 -81.5 17.5t-64.5 52.5t-25 87v53h40v-54q0 -36 19.5 -61t49.5 -37.5t63 -12.5q32 0 61.5 12t48 37t18.5 62v318q0 29 -17 43t-38 14q-20 0 -37.5 -14t-17.5 -43v-52q0 -50 -30 -75.5t-65 -25.5q-24 0 -45.5 11t-35.5 33.5t-14 56.5v150h40v-151
q0 -28 17.5 -42.5t37.5 -14.5q21 0 38 14.5t17 42.5v52q0 34 14 56.5t35.5 33.5t45.5 11q35 0 65 -25.5t30 -75.5v-316q0 -52 -24.5 -87t-63 -52.5t-81.5 -17.5z" />
    <glyph glyph-name="sinkundaliya" unicode="&#xdf4;" horiz-adv-x="1345" 
d="M50 0v40h150q59 0 99.5 5t72 23t62 58t68 109.5t91.5 177.5l37 -19q-53 -106 -91.5 -177t-71 -114.5t-68 -65.5t-83 -29.5t-116.5 -7.5h-150zM543 0l-38 20l206 396l37 -19zM659 0l-38 20l160 301l37 -19zM777 0l-37 21l112 209q24 -24 61 -56t83 -62.5t97 -51t103 -20.5
h99v-40h-101q-72 0 -130 22t-107 58t-94 76z" />
    <glyph glyph-name="uni200C" unicode="&#x200c;" horiz-adv-x="0" 
d="M-20 9v752h40v-752h-40z" />
    <glyph glyph-name="uni200D" unicode="&#x200d;" horiz-adv-x="0" 
d="M-145 489l-22 33l323 223l23 -33zM-20 9v620h40v-620h-40zM145 489l-323 223l23 33l323 -223z" />
    <glyph glyph-name="endash" unicode="&#x2013;" horiz-adv-x="532" 
d="M26 275v38h480v-38h-480z" />
    <glyph glyph-name="emdash" unicode="&#x2014;" horiz-adv-x="906" 
d="M26 274v38h854v-38h-854z" />
    <glyph glyph-name="quoteleft" unicode="&#x2018;" horiz-adv-x="120" 
d="M40 465v271h40v-271h-40z" />
    <glyph glyph-name="quoteright" unicode="&#x2019;" horiz-adv-x="120" 
d="M40 465v271h40v-271h-40z" />
    <glyph glyph-name="quotesinglbase" unicode="&#x201a;" horiz-adv-x="120" 
d="M40 465v271h40v-271h-40z" />
    <glyph glyph-name="quotedblleft" unicode="&#x201c;" horiz-adv-x="213" 
d="M133 465v271h40v-271h-40zM40 465v271h40v-271h-40z" />
    <glyph glyph-name="quotedblright" unicode="&#x201d;" horiz-adv-x="213" 
d="M133 465v271h40v-271h-40zM40 465v271h40v-271h-40z" />
    <glyph glyph-name="quotedblbase" unicode="&#x201e;" horiz-adv-x="228" 
d="M106 -23l37 152h39l-37 -152h-39zM26 -23l37 152h39l-37 -152h-39z" />
    <glyph glyph-name="dagger" unicode="&#x2020;" horiz-adv-x="453" 
d="M206 -56v549h-180v38h180v233h40v-233h181v-38h-181v-549h-40z" />
    <glyph glyph-name="daggerdbl" unicode="&#x2021;" horiz-adv-x="453" 
d="M207 -56v230h-181v38h181v284h-181v38h181v230h40v-230h180v-38h-180v-284h180v-38h-180v-230h-40z" />
    <glyph glyph-name="bullet" unicode="&#x2022;" horiz-adv-x="352" 
d="M176 285q-17 0 -30.5 8t-21.5 21.5t-8 30.5t8 30.5t21.5 21.5t30.5 8t30.5 -8t21.5 -21.5t8 -30.5t-8 -30.5t-21.5 -21.5t-30.5 -8z" />
    <glyph glyph-name="ellipsis" unicode="&#x2026;" horiz-adv-x="656" 
d="M580 -22q-10 0 -18 8t-8 18q0 11 8 18.5t18 7.5q11 0 18.5 -7.5t7.5 -18.5q0 -10 -7.5 -18t-18.5 -8zM76 -22q-10 0 -18 8t-8 18q0 11 8 18.5t18 7.5q11 0 18.5 -7.5t7.5 -18.5q0 -10 -7.5 -18t-18.5 -8zM328 -22q-10 0 -18 8t-8 18q0 11 8 18.5t18 7.5q11 0 18.5 -7.5
t7.5 -18.5q0 -10 -7.5 -18t-18.5 -8z" />
    <glyph glyph-name="perthousand" unicode="&#x2030;" horiz-adv-x="897" 
d="M89 0l432 700h36l-432 -700h-36zM120 352q-12 1 -29 7.5t-33.5 25t-27.5 53t-11 91.5q0 66 16 103t40 52.5t46 16.5v-29q-13 0 -29.5 -11.5t-28.5 -38t-13 -71.5v-29q0 -60 13.5 -90t30 -40t26.5 -11v-29zM487 0q-12 1 -29 7.5t-33.5 25t-27.5 53t-11 91.5q0 66 16 103
t40 52.5t46 16.5v-29q-13 0 -29.5 -11.5t-28.5 -38t-13 -71.5v-29q0 -61 13.5 -90.5t30 -39.5t26.5 -11v-29zM151 352v29q11 1 27.5 11t30 40t13.5 90v29q0 45 -12.5 71.5t-29 38t-29.5 11.5v29q22 -1 45.5 -16.5t39.5 -52.5t16 -103q0 -57 -11 -91.5t-27.5 -53t-33.5 -25
t-29 -7.5zM518 0v29q11 1 27.5 11t30 39.5t13.5 90.5v29q0 45 -12.5 71.5t-29 38t-29.5 11.5v29q22 -1 45.5 -16.5t39.5 -52.5t16 -103q0 -57 -11 -91.5t-27.5 -53t-33.5 -25t-29 -7.5zM746 0q-12 1 -29 7.5t-33.5 25t-27.5 53t-11 91.5q0 66 16 103t40 52.5t46 16.5v-29
q-13 0 -29.5 -11.5t-28.5 -38t-13 -71.5v-29q0 -61 13.5 -90.5t30 -39.5t26.5 -11v-29zM777 0v29q11 1 27.5 11t30 39.5t13.5 90.5v29q0 45 -12.5 71.5t-29 38t-29.5 11.5v29q22 -1 45.5 -16.5t39.5 -52.5t16 -103q0 -57 -11 -91.5t-27.5 -53t-33.5 -25t-29 -7.5z" />
    <glyph glyph-name="guilsinglleft" unicode="&#x2039;" horiz-adv-x="338" 
d="M207 79l-131 213l131 208h50l-131 -208l131 -213h-50z" />
    <glyph glyph-name="guilsinglright" unicode="&#x203a;" horiz-adv-x="338" 
d="M78 79l131 213l-131 208h50l131 -208l-131 -213h-50z" />
    <glyph glyph-name="fraction" unicode="&#x2044;" horiz-adv-x="468" 
d="M0 0l432 700h36l-432 -700h-36z" />
    <glyph glyph-name="uni2074" unicode="&#x2074;" horiz-adv-x="273" 
d="M30 441v27l131 221v-52l-99 -169h99v-27h-131zM181 386v314h28v-232h24v-27h-24v-55h-28z" />
    <glyph glyph-name="Euro" unicode="&#x20ac;" horiz-adv-x="494" 
d="M489 507q0 10 -1 20.5t-6 22.5q-15 43 -41 68.5t-54.5 37t-51.5 11.5v39q36 0 70 -16t61 -43t43 -61t16 -70zM290 -5q-55 0 -93.5 20t-62.5 50.5t-34.5 62t-10.5 53.5v101h-38v35h38v60h-38v35h38v106q0 23 11 54.5t34.5 62t62 51t93.5 20.5v-39q-43 0 -73.5 -16t-50 -40
t-28.5 -49t-9 -44v-106h280v-35h-280v-60h280v-35h-280v-101q0 -19 9.5 -44t29 -49t50 -39.5t72.5 -15.5v-38zM335 -5v38q25 1 55 11.5t55.5 33.5t36.5 61q5 15 7 31t2 20l34 -8q0 -40 -16 -74t-43 -59.5t-61 -39.5t-70 -14z" />
    <glyph glyph-name="uni2113" unicode="&#x2113;" horiz-adv-x="184" 
d="M212 -5q-22 0 -47 7.5t-46 26t-34.5 53t-13.5 88.5v530h40v-530q0 -48 11.5 -76t28.5 -41t34 -16.5t27 -3.5v-38z" />
    <glyph glyph-name="trademark" unicode="&#x2122;" horiz-adv-x="463" 
d="M81 485v194h-55v20h132v-20h-55v-194h-22zM180 485v159h5l17 -40v-119h-22zM267 485l-86 207v7h21l71 -172l62 136h7v-34l-63 -144h-12zM355 485v214h22v-214h-22z" />
    <glyph glyph-name="uni2126" unicode="&#x2126;" horiz-adv-x="420" 
d="M20 -1v30h81q-34 24 -50 56.5t-16 55.5v235q0 18 10 42t30.5 46.5t51.5 37t72 14.5v-38q-40 0 -67.5 -19t-42 -45.5t-14.5 -50.5v-209q0 -21 16 -48.5t44 -48t64 -20.5v-38h-179zM240 -1v38q38 0 64.5 19.5t40.5 46.5t14 49v211q0 23 -14 49.5t-40.5 46t-64.5 19.5v38
q41 0 70.5 -14.5t49.5 -37t29.5 -46.5t9.5 -42v-235q0 -23 -16 -55.5t-48 -56.5h79v-30h-174z" />
    <glyph glyph-name="estimated" unicode="&#x212e;" horiz-adv-x="531" 
d="M214 1q-60 0 -101 30t-62 78t-21 102v285q0 49 21 97t62 80t101 32v-38q-40 0 -72.5 -22t-52 -62t-19.5 -95v-153h342v153q0 83 -41.5 131t-101.5 48v38q60 0 101 -32t61.5 -79.5t20.5 -96.5v-200h-382v-78q0 -91 42 -135.5t102 -44.5v-38zM270 0v41q36 0 67 14.5t52 36
t25 42.5l39 -14q-9 -32 -36 -59.5t-65 -44t-82 -16.5z" />
    <glyph glyph-name="partialdiff" unicode="&#x2202;" horiz-adv-x="420" 
d="M233 -1v38q38 0 64.5 19.5t40.5 46.5t14 49l-1 221q0 23 -15 47t-41.5 41t-61.5 17v38q38 0 66.5 -12.5t47.5 -32.5q0 67 -24 109.5t-64.5 65.5t-89.5 31.5t-99 8.5v28q110 0 181.5 -24.5t106 -82.5t34.5 -157v-309q0 -18 -9.5 -42.5t-29.5 -47t-49.5 -37.5t-70.5 -15z
M192 -1q-42 0 -73 15t-51 38t-30 47t-10 42v235q0 18 10 42t30.5 46.5t51.5 37t72 14.5v-38q-40 0 -67.5 -19t-42 -45.5t-14.5 -50.5v-209q0 -21 16 -48.5t44 -48t64 -20.5v-38z" />
    <glyph glyph-name="uni2206" unicode="&#x2206;" horiz-adv-x="476" 
d="M30 0l166 615h8l13 -61l-138 -514h312l-177 666h38l194 -706h-416z" />
    <glyph glyph-name="product" unicode="&#x220f;" horiz-adv-x="458" 
d="M63 -140v799h-61v35h454v-35h-62v-799h-37v799h-257v-799h-37z" />
    <glyph glyph-name="summation" unicode="&#x2211;" horiz-adv-x="558" 
d="M30 -140v40l290 388l-290 375v40h20l321 -416l-291 -388l448 1v-40h-498zM138 663l-26 31v9h416v-40h-390z" />
    <glyph glyph-name="minus" unicode="&#x2212;" horiz-adv-x="416" 
d="M40 275v38h316v-38h-316z" />
    <glyph glyph-name="uni2215" unicode="&#x2215;" horiz-adv-x="468" 
d="M0 0l432 700h36l-432 -700h-36z" />
    <glyph glyph-name="uni2219" unicode="&#x2219;" horiz-adv-x="250" 
d="M79 365q-16 0 -27.5 11.5t-11.5 27.5t11.5 27.5t27.5 11.5t27.5 -11.5t11.5 -27.5t-11.5 -27.5t-27.5 -11.5z" />
    <glyph glyph-name="radical" unicode="&#x221a;" horiz-adv-x="559" 
d="M353 -2l-212 522l-124 -43l-11 36l162 56l200 -497l141 747h40l-149 -821h-47z" />
    <glyph glyph-name="infinity" unicode="&#x221e;" horiz-adv-x="798" 
d="M235 -1v38q24 0 48.5 14.5t34.5 42.5l63 164l-63 163q-10 29 -34.5 43t-48.5 14v38q38 0 72 -22.5t47 -57.5l48 -124l47 123q14 35 48 57.5t71 22.5v-38q-24 0 -48 -14t-35 -43l-62 -162l62 -163q11 -28 35 -42.5t48 -14.5v-38q-37 0 -71 22.5t-48 57.5l-47 123l-48 -124
q-13 -35 -47 -57.5t-72 -22.5zM194 -1q-42 0 -73 15t-51 38t-30 47t-10 42v235q0 18 10 42t30.5 46.5t51.5 37t72 14.5v-38q-40 0 -67.5 -19t-42 -45.5t-14.5 -50.5v-209q0 -21 16 -48.5t44 -48t64 -20.5v-38zM609 -2v38q37 0 64.5 20.5t43.5 48t16 48.5v209
q0 24 -14.5 50.5t-42 45.5t-67.5 19v38q41 0 72 -14.5t51.5 -37t30.5 -46.5t10 -42v-235q0 -18 -10 -42t-30 -47t-51 -38t-73 -15z" />
    <glyph glyph-name="integral" unicode="&#x222b;" horiz-adv-x="285" 
d="M1 -171v27q18 -5 39.5 -3.5t41 15t32.5 44.5t13 85v628q0 54 15.5 90t39.5 56.5t51 26t49 -2.5v-27q-19 7 -40 4t-40 -19t-31 -47t-12 -81v-628q0 -54 -15 -90t-39 -55.5t-51.5 -24.5t-52.5 2z" />
    <glyph glyph-name="approxequal" unicode="&#x2248;" horiz-adv-x="568" 
d="M381 365q-34 0 -62 11t-53.5 25.5t-51.5 25.5t-57 11q-22 0 -48.5 -8t-58.5 -28v37q34 20 62 27.5t51 7.5q33 0 59.5 -11t52 -25.5t52.5 -25.5t60 -11q26 0 58.5 10t72.5 35v-35q-42 -25 -75.5 -35.5t-61.5 -10.5zM381 224q-34 0 -62 11t-53.5 25.5t-51.5 25.5t-57 11
q-22 0 -48.5 -8t-58.5 -28v36q34 20 62 27.5t51 7.5q33 0 59.5 -11t52 -25.5t52.5 -25.5t60 -11q26 0 58.5 10t72.5 35v-34q-42 -25 -75.5 -35.5t-61.5 -10.5z" />
    <glyph glyph-name="notequal" unicode="&#x2260;" horiz-adv-x="418" 
d="M83 -68l175 739h40l-174 -739h-41zM50 325v40h318v-40h-318zM50 218v40h318v-40h-318z" />
    <glyph glyph-name="lessequal" unicode="&#x2264;" horiz-adv-x="414" 
d="M370 145l-354 197v32l354 192v-40l-308 -168l308 -173v-40zM27 53v38h357v-38h-357z" />
    <glyph glyph-name="greaterequal" unicode="&#x2265;" horiz-adv-x="414" 
d="M30 145v40l308 173l-308 168v40l354 -192v-32zM27 53v38h357v-38h-357z" />
    <glyph glyph-name="lozenge" unicode="&#x25ca;" horiz-adv-x="427" 
d="M189 -2l-192 354l197 354h32l192 -354l-197 -354h-32zM205 44l173 308l-168 308l-173 -308z" />
    <glyph glyph-name="uni25CC" unicode="&#x25cc;" horiz-adv-x="636" 
d="M442 450q-14 0 -24 10t-10 24t10 24t24 10t24 -10t10 -24t-10 -24t-24 -10zM202 38q-14 0 -24 10t-10 24t10 24t24 10t24 -10t10 -24t-10 -24t-24 -10zM116 124q-14 0 -24 10t-10 24t10 24t24 10t24 -10t10 -24t-10 -24t-24 -10zM322 6q-14 0 -24 10t-10 24t10 24t24 10
t24 -10t10 -24t-10 -24t-24 -10zM84 244q-14 0 -24 10t-10 24t10 24t24 10t24 -10t10 -24t-10 -24t-24 -10zM116 364q-14 0 -24 10t-10 24t10 24t24 10t24 -10t10 -24t-10 -24t-24 -10zM442 38q-14 0 -24 10t-10 24t10 24t24 10t24 -10t10 -24t-10 -24t-24 -10zM202 450
q-14 0 -24 10t-10 24t10 24t24 10t24 -10t10 -24t-10 -24t-24 -10zM528 124q-14 0 -24 10t-10 24t10 24t24 10t24 -10t10 -24t-10 -24t-24 -10zM560 244q-14 0 -24 10t-10 24t10 24t24 10t24 -10t10 -24t-10 -24t-24 -10zM322 482q-14 0 -24 10t-10 24t10 24t24 10t24 -10
t10 -24t-10 -24t-24 -10zM528 364q-14 0 -24 10t-10 24t10 24t24 10t24 -10t10 -24t-10 -24t-24 -10z" />
    <glyph glyph-name="u111E1" unicode="&#x111e1;" horiz-adv-x="870" 
d="M727 480v-485h34v485h-34zM280 284q0 23 19.5 39.5t45.5 16.5t45.5 -16.5t19.5 -39.5q0 -22 -19.5 -39t-45.5 -17t-45.5 17t-19.5 39zM40 245q0 -75 36.5 -131.5t100 -87.5t143.5 -31q85 0 143 25t88 69.5t30 103.5q0 60 -30 100.5t-79.5 61t-110.5 20.5q-50 0 -85 -26
t-35 -69q0 -26 15 -46t39 -31.5t51 -11.5q26 0 49.5 10t38.5 29.5t15 47.5q0 14 -5 28.5t-17 26.5q44 -7 78 -36t34 -78q0 -50 -33 -81t-83 -45.5t-103 -14.5q-63 0 -115 25t-83 67.5t-31 92.5t22.5 87.5t60.5 63t85.5 38t97.5 12.5q71 0 137 -23t118.5 -76t83 -144
t30.5 -226h35q0 139 -32.5 236t-89 157.5t-129.5 88.5t-153 28q-62 0 -119 -18t-101.5 -52t-70.5 -82t-26 -108z" />
    <glyph glyph-name="u111E2" unicode="&#x111e2;" horiz-adv-x="1150" 
d="M361 309q27 0 46.5 -16.5t19.5 -39.5q0 -22 -19.5 -38.5t-46.5 -16.5q-26 0 -45.5 16.5t-19.5 38.5q0 23 19.5 39.5t45.5 16.5zM57 215q0 -74 35.5 -130.5t98.5 -88.5t145 -32t140 24t89.5 68.5t31.5 106.5q0 54 -27.5 95t-77 63.5t-115.5 22.5q-52 0 -86 -26.5
t-34 -67.5q0 -37 31.5 -63.5t74.5 -26.5q44 0 73.5 25t29.5 62q0 17 -5.5 30.5t-16.5 25.5q51 -9 81 -40.5t30 -74.5q0 -42 -27.5 -73.5t-77 -49t-114.5 -17.5q-63 0 -115 25t-83 67t-31 93q0 59 34.5 104t95 71t137.5 26q82 0 139 -25.5t99.5 -82t79.5 -149.5
q40 -99 73 -160.5t64 -94t63.5 -44t70.5 -11.5q60 0 104 41.5t66 108.5l-33 17q-23 -39 -58.5 -63.5t-78.5 -24.5q-53 0 -92 23.5t-72.5 77t-71.5 143.5q-41 100 -89 162.5t-112 92.5t-152 30q-90 0 -162 -34.5t-113.5 -93t-41.5 -132.5z" />
    <glyph glyph-name="u111E3" unicode="&#x111e3;" horiz-adv-x="1355" 
d="M729 187l15 -170l15 -22v167q0 26 6.5 49.5t21.5 38.5t40 15q35 0 52.5 -23.5t34.5 -66.5q35 -87 62.5 -141.5t53.5 -84t55.5 -40.5t67.5 -11q60 0 104.5 41.5t66.5 108.5l-34 17q-22 -39 -58 -63.5t-79 -24.5q-53 0 -89 23.5t-67 77t-68 143.5q-16 42 -33.5 64.5
t-36.5 31t-41 8.5q-45 0 -70 -37.5t-19 -100.5zM278 284q0 23 19.5 39.5t45.5 16.5t45.5 -16.5t19.5 -39.5q0 -22 -19.5 -39t-45.5 -17t-45.5 17t-19.5 39zM38 245q0 -75 36.5 -131.5t100 -87.5t143.5 -31q85 0 143 25t88 69.5t30 103.5q0 60 -30 100.5t-79.5 61
t-110.5 20.5q-50 0 -85 -26t-35 -69q0 -26 15 -46t39 -31.5t51 -11.5q26 0 49.5 10t38.5 29.5t15 47.5q0 14 -5 28.5t-17 26.5q44 -7 78 -36t34 -78q0 -50 -33 -81t-83 -45.5t-103 -14.5q-63 0 -115 25t-83 67.5t-31 92.5t22.5 87.5t60.5 63t85.5 38t97.5 12.5q71 0 137 -23
t118.5 -76t83 -144t30.5 -226h35q0 139 -32.5 236t-89 157.5t-129.5 88.5t-153 28q-62 0 -119 -18t-101.5 -52t-70.5 -82t-26 -108z" />
    <glyph glyph-name="u111E4" unicode="&#x111e4;" horiz-adv-x="964" 
d="M213 485q-48 0 -85.5 -31t-59 -85.5t-21.5 -126.5q0 -83 23 -143t65.5 -92t100.5 -32q25 0 45 8v30q-10 -4 -19.5 -5.5t-19.5 -1.5q-48 0 -82.5 25.5t-53 74.5t-18.5 117q0 80 34.5 128t90.5 48q55 0 84.5 -40t29.5 -111v-82h38v82q0 75 28 113t80 38q53 0 80.5 -38
t27.5 -113v-82h38v82q0 71 28 111t80 40q62 0 90.5 -50.5t28.5 -162.5v-387h-61q-46 0 -75 23.5t-29 60.5t18.5 62.5t60.5 45.5q6 3 9 5t10.5 5t28 11.5t61.5 24.5l-12 29q-25 -10 -53 -20.5t-66 -27.5q-67 -29 -98 -65.5t-31 -85.5q0 -55 48 -88t128 -33h102v484
q0 133 -38.5 194t-121.5 61q-58 0 -95.5 -40t-37.5 -103h12q0 67 -35.5 105t-97.5 38q-61 0 -97 -38t-36 -105h12q0 65 -38.5 104t-100.5 39z" />
    <glyph glyph-name="u111E5" unicode="&#x111e5;" horiz-adv-x="1297" 
d="M850 325q-26 0 -54 -15.5t-47 -44t-17 -67.5l10 -182l19 -21v126q0 47 14.5 73.5t35.5 37t39 10.5q23 0 45.5 -10.5t37.5 -37t15 -73.5v-126h34v201q0 31 -16 60.5t-45.5 49t-70.5 19.5zM970 67l12 -36v45q0 44 16.5 69.5t47.5 25.5q38 0 55.5 -26t33.5 -72
q18 -54 53.5 -73.5t91.5 -3.5v30q-38 -10 -60.5 -5t-36 23.5t-24.5 49.5q-15 45 -25.5 80t-29 55t-58.5 20q-41 0 -66 -38t-15 -111zM278 284q0 23 19.5 39.5t45.5 16.5t45.5 -16.5t19.5 -39.5q0 -22 -19.5 -39t-45.5 -17t-45.5 17t-19.5 39zM38 245q0 -75 36.5 -131.5
t100 -87.5t143.5 -31q85 0 143 25t88 69.5t30 103.5q0 60 -30 100.5t-79.5 61t-110.5 20.5q-50 0 -85 -26t-35 -69q0 -26 15 -46t39 -31.5t51 -11.5q26 0 49.5 10t38.5 29.5t15 47.5q0 14 -5 28.5t-17 26.5q44 -7 78 -36t34 -78q0 -50 -33 -81t-83 -45.5t-103 -14.5
q-63 0 -115 25t-83 67.5t-31 92.5t22.5 87.5t60.5 63t85.5 38t97.5 12.5q71 0 137 -23t118.5 -76t83 -144t30.5 -226h35q0 139 -32.5 236t-89 157.5t-129.5 88.5t-153 28q-62 0 -119 -18t-101.5 -52t-70.5 -82t-26 -108z" />
    <glyph glyph-name="u111E6" unicode="&#x111e6;" horiz-adv-x="839" 
d="M445 271v29h-86q-90 0 -143 -44.5t-53 -119.5q0 -53 23 -90t62.5 -60.5t89 -34t102.5 -10.5q109 0 182.5 41.5t111.5 115t38 167.5q0 75 -23.5 140t-66.5 113.5t-102 76t-130 27.5q-87 0 -150.5 -32t-107.5 -94h38q40 50 95 74t125 24q60 0 111 -22.5t89.5 -63.5
t60 -95.5t21.5 -117.5q0 -126 -76.5 -198.5t-211.5 -72.5q-40 0 -82 6t-78 20.5t-58 40t-22 63.5t21.5 64t58 39.5t79.5 13.5h82zM175 -59v35q-93 81 -93 223q0 60 20.5 111t66 82.5t119.5 31.5q26 1 52 0.5t52 -2.5v26q-22 1 -46.5 2.5t-47.5 1.5q-124 0 -187.5 -66.5
t-63.5 -183.5q0 -90 35 -161t93 -100zM232 361q0 -38 30 -64.5t97 -25.5l45 14v14h-35q-43 0 -72.5 14t-29.5 48q0 23 19 43t72 20v25q-48 0 -75.5 -13.5t-39 -33.5t-11.5 -41z" />
    <glyph glyph-name="u111E7" unicode="&#x111e7;" horiz-adv-x="849" 
d="M568 134v-357h-29q-44 0 -71 11.5t-40.5 29t-18 34.5t-4.5 28q0 23 10 47.5t33.5 41.5t62.5 17q17 0 32.5 -0.5t31.5 -5.5l20 -7q39 -12 70 -32.5t70 -61.5h19v609h-34v-573l25 -9q-27 29 -63 55.5t-87 42.5l-15 7q-33 6 -69 6q-53 0 -93 -20t-62.5 -51t-22.5 -66
q0 -32 17.5 -63t58 -51t107.5 -20h93v395q0 74 -15 136.5t-49 109t-88.5 72.5t-134.5 26q-79 0 -133.5 -26t-87 -67.5t-47 -88.5t-14.5 -89q0 -45 11 -88t32.5 -77.5t55 -54.5t78.5 -20q22 0 44 9v30q-18 -7 -38 -7q-42 0 -74 23t-50 65.5t-18 99.5q0 34 11.5 70t39 67
t74 50.5t116.5 19.5q93 0 147 -35.5t77 -96t22 -135.5z" />
    <glyph glyph-name="u111E8" unicode="&#x111e8;" horiz-adv-x="934" 
d="M213 485q-73 0 -119.5 -57t-46.5 -171q0 -68 23 -121t65.5 -83t100.5 -30q12 0 23 2t22 7v30q-20 -7 -39 -7q-73 0 -113.5 51t-40.5 131q0 87 34.5 124.5t90.5 37.5q55 0 84.5 -40t29.5 -111v-82h38v82q0 76 28 113.5t80 37.5q53 0 80.5 -37.5t27.5 -113.5v-82h38v82
q0 71 28 111t80 40q47 0 72.5 -29t36 -76t10.5 -100q0 -98 -30.5 -168.5t-79 -116.5t-104.5 -73t-108 -38t-87 -12q-56 0 -106.5 7.5t-82 26t-31.5 51.5q0 32 57 57.5t163 25.5q59 0 120 -18.5t120.5 -48.5t113 -67t96.5 -75v40q-38 35 -89 71.5t-110.5 67.5t-123.5 50
t-127 19q-53 0 -104.5 -5.5t-94 -18.5t-67.5 -37t-25 -61q0 -38 24 -62.5t65 -38t93 -19t109 -5.5q48 0 108 13.5t120 44.5t110.5 84.5t81 133.5t30.5 191q0 48 -9 96t-27.5 88t-49 64t-74.5 24q-58 0 -95.5 -40t-37.5 -103h12q0 67 -35.5 105t-97.5 38q-61 0 -97 -38
t-36 -105h12q0 65 -38.5 104t-100.5 39z" />
    <glyph glyph-name="u111E9" unicode="&#x111e9;" horiz-adv-x="1371" 
d="M377 466q-73 0 -119.5 -58t-46.5 -177q0 -65 23 -119.5t65.5 -87t100.5 -32.5q25 0 45 8v30q-10 -4 -19 -5.5t-20 -1.5q-48 0 -82.5 26t-52.5 69t-18 94q0 92 34 130t90 38q55 0 84.5 -40t29.5 -111v-83h39v83q0 75 27.5 113t79.5 38q53 0 80.5 -38t27.5 -113v-83h39v83
q0 71 28 111t79 40q47 0 73 -29t36 -76t10 -101q0 -82 -23.5 -146.5t-74 -109t-130.5 -68t-193 -23.5q-116 0 -208 27t-156 77.5t-98 123t-34 162.5q0 136 62 231.5t178 146.5t278 51q296 0 457 -192t203 -594h28v609h-34v-464l17 -118q0 130 -25.5 249.5t-78 220
t-132.5 175t-188.5 115.5t-246.5 41q-174 0 -299 -56.5t-192.5 -161.5t-67.5 -253q0 -113 37.5 -203.5t109 -154.5t172 -98t226.5 -34q149 0 250 58t152.5 163.5t51.5 245.5q0 48 -8.5 96t-27.5 88t-49.5 64t-74.5 24q-58 0 -95.5 -40t-37.5 -103h12q0 66 -35.5 104.5
t-97.5 38.5q-61 0 -97 -38.5t-36 -104.5h12q0 65 -38 104t-101 39z" />
    <glyph glyph-name="u111EA" unicode="&#x111ea;" horiz-adv-x="1098" 
d="M658 466q-45 0 -84 -23t-69.5 -63t-49.5 -90.5t-23 -106.5l27 -12q6 20 17 27.5t23 7.5q18 0 29.5 -14.5t11.5 -42.5q0 -37 -20 -61.5t-52.5 -36t-71.5 -11.5q-43 0 -80.5 13.5t-60 41t-22.5 68.5q0 62 45 92.5t115 30.5v28h-14q-85 0 -137.5 -48t-52.5 -127
q0 -54 25 -95.5t69.5 -65t103.5 -23.5q89 0 142 47.5t53 125.5q0 47 -21 77t-56 30q-21 0 -34 -8q19 78 61 117.5t107 39.5q54 0 97.5 -26.5t69 -72t25.5 -102.5v-196h-27q-51 0 -78.5 24t-27.5 67t24.5 68.5t65.5 25.5q17 0 29.5 -1t21.5 -3l19 -7q32 -12 55.5 -33.5
t44 -62t44.5 -109.5h22v510h-34v-474l25 -8q-22 64 -43 103.5t-47.5 63t-65.5 40.5l-15 6q-10 2 -28.5 4t-27.5 2q-75 0 -122 -34.5t-47 -90.5q0 -57 47.5 -89.5t131.5 -32.5h67v249q0 77 -26.5 135.5t-73 92t-107.5 33.5zM162 -44v35q-93 81 -93 223q0 60 20.5 111t66 82.5
t119.5 31.5h104v26q-23 0 -47 0.5t-47 0.5q-124 0 -187.5 -66t-63.5 -183q0 -90 35 -161t93 -100zM219 376q0 -38 30 -64.5t97 -25.5l45 13v15h-35q-43 0 -72.5 14t-29.5 48q0 23 19 43t72 20v25q-48 0 -75.5 -13.5t-39 -33.5t-11.5 -41z" />
    <glyph glyph-name="u111EB" unicode="&#x111eb;" horiz-adv-x="1003" 
d="M302 271h196v30h-364v-38q14 3 60 5.5t108 2.5zM189 118q0 -46 21 -88t61.5 -68.5t96.5 -26.5q59 0 96.5 26t56.5 72q17 -45 55 -70.5t95 -25.5q88 0 143.5 50.5t55.5 145.5q0 91 -57.5 134t-158.5 43q-20 0 -42 -2t-33 -5q5 50 31.5 74t72.5 24h54v32q-38 -1 -71 12.5
t-52.5 38.5t-19.5 56q0 38 27 67.5t83 29.5q42 0 75 -18t57.5 -46t42 -60.5t29 -62t17.5 -49.5h27v268h-34v-198l10 -4q-6 18 -18.5 44t-31.5 53.5t-46 51t-63 38.5t-83 15q-40 0 -77.5 -14t-61.5 -42.5t-24 -72.5q0 -36 19 -59t47.5 -36t58 -18.5t50.5 -5.5v12
q-65 0 -108.5 -38t-43.5 -115v-5.5v-5.5q33 7 59 9t54 2q77 0 122 -29t45 -99q0 -60 -40 -96t-101 -36q-37 0 -70.5 10t-54.5 31.5t-21 54.5v36h-32v-36q0 -30 -18 -51.5t-47.5 -33t-62.5 -11.5q-41 0 -74.5 16t-52.5 44t-19 63q0 43 24.5 71.5t59.5 42.5t66 14h115l-36 30
h-16q-32 0 -74.5 -8.5t-72.5 -19.5q-46 -14 -78 -52.5t-32 -102.5zM41 198q0 -60 16 -112.5t45 -91t67 -57.5v35q-93 80 -93 222q0 60 21 111.5t69 82.5t128 31h92v28h-95q-123 0 -186.5 -66t-63.5 -183zM251 360q0 -38 31.5 -60.5t94.5 -22.5l45 12v12h-53q-35 0 -60 15.5
t-25 43.5q0 23 17 41t55 18h20v21q-125 0 -125 -80z" />
    <glyph glyph-name="u111EC" unicode="&#x111ec;" horiz-adv-x="914" 
d="M289 416q67 0 109 -28.5t61 -87.5q53 0 73.5 -20.5t20.5 -53.5q0 -35 -20.5 -56t-55.5 -21q-22 0 -40 11t-28.5 31.5t-10.5 47.5q0 52 -26 79t-76 27t-82 -43.5t-32 -110.5q0 -78 39 -136.5t108.5 -91t162.5 -32.5q150 0 233.5 85.5t83.5 242.5l-48 24q0 -125 -72 -197
t-200 -72q-122 0 -194 53t-72 144q0 45 20.5 73.5t52.5 28.5q39 0 55 -19t16 -63q0 -35 13.5 -61t38.5 -40.5t58 -14.5q48 0 78 30.5t30 80.5q0 51 -28.5 77.5t-75.5 27.5q-22 59 -72 89.5t-126 30.5q-64 0 -113.5 -34t-77.5 -95t-28 -142q0 -85 34.5 -149.5t97.5 -98.5v35
q-44 30 -71.5 88.5t-27.5 124.5q0 72 24 125t67 82t101 29zM435 660q79 0 150 -25t122.5 -67t68.5 -95h27v255h-34v-221l9 2q-15 45 -49 85t-81.5 70.5t-102 47.5t-110.5 17q-69 0 -122.5 -17t-83.5 -47t-30 -70q0 -34 20.5 -53.5t75 -29.5t157.5 -16q62 -3 104 -8t70 -13
t48.5 -21.5t39.5 -33.5q23 -25 35 -61.5t12 -78.5l48 -25q0 68 -27.5 126t-74.5 92q-22 16 -54 26t-80.5 17t-122.5 10q-84 4 -127.5 9.5t-59 18t-15.5 34.5q0 33 50.5 52.5t136.5 19.5z" />
    <glyph glyph-name="u111ED" unicode="&#x111ed;" horiz-adv-x="1282" 
d="M177 -44v35q-49 35 -71 79.5t-22 101.5q0 55 16.5 92t43.5 55.5t56 18.5q16 0 29.5 -3t30.5 -8l1 34q-15 5 -28 8.5t-29 3.5q-39 0 -74.5 -20.5t-58 -64.5t-22.5 -115q0 -38 12.5 -79t41 -77t74.5 -61zM430 377q0 44 -29 67t-69 23q-18 0 -38.5 -7.5t-34.5 -26.5t-14 -53
q0 -10 3 -23.5t12 -29.5l23 13q-4 9 -6 17t-2 17q0 33 18 45.5t42 12.5q32 0 48 -19t16 -45q0 -17 -8.5 -30t-15.5 -21q-33 -37 -68 -91.5t-61 -116.5t-34 -124l27 -19q8 40 20 61.5t33 21.5q18 0 30.5 -9.5t25.5 -24t33 -29t53 -24t86 -9.5q65 0 111.5 26t72 70t25.5 98
q0 63 -27.5 104.5t-75 61.5t-107.5 20q-57 0 -95 -16q35 44 93.5 65t116.5 21q31 0 69 -14t69 -42t42 -70h24l1 22q3 48 25 76t62 28q33 0 50.5 -16t24 -39.5t6.5 -47.5v-313h-27q-47 0 -69.5 15t-29.5 36.5t-7 39.5q0 38 22 66t68 28h18.5t32.5 -5l19 -6q32 -12 58.5 -34
t50 -62.5t47.5 -108.5h22v510h-34v-474l25 -9q-22 65 -46 104t-53.5 62.5t-68.5 40.5l-15 6q-16 4 -35 5t-21 1q-62 0 -99.5 -19t-54 -47.5t-16.5 -57.5q0 -57 48.5 -89.5t131.5 -32.5h67v369q0 34 -10 67t-34.5 55.5t-68.5 22.5q-36 0 -58.5 -15.5t-34.5 -39t-17 -47.5
t-5 -41h20q0 17 -13 41t-38 47.5t-62.5 39t-85.5 15.5q-49 0 -98 -21t-107 -83q1 6 1 11zM372 263q27 21 66.5 31.5t82.5 10.5q40 0 76 -14t59.5 -42t23.5 -71q0 -50 -27 -80t-70.5 -43.5t-95.5 -13.5q-46 0 -77.5 11t-55 21.5t-45.5 10.5q-10 0 -20 -1.5t-18 -8.5
q19 57 46.5 106t54.5 83z" />
    <glyph glyph-name="u111EE" unicode="&#x111ee;" horiz-adv-x="880" 
d="M226 19q-10 -19 -16.5 -36t-26.5 -17q-25 0 -45 20.5t-33 52t-20 65.5t-7 60q0 127 42 186.5t118 59.5q44 0 83.5 -25.5t57.5 -57.5l20 23q-12 21 -33.5 42.5t-52.5 36.5t-74 15q-53 0 -98 -26.5t-71.5 -86.5t-26.5 -163q0 -40 9 -81.5t26.5 -77t43.5 -57t61 -21.5
q29 0 42.5 19.5t24.5 46.5zM314 -70q35 0 64.5 24.5t29.5 67.5q0 37 -28 63t-66 26q-37 0 -59.5 -20.5t-26.5 -51.5q-7 14 -11.5 37.5t-4.5 45.5q0 63 29 104t75.5 61.5t100.5 20.5q42 0 83.5 -9.5t68.5 -31t27 -57.5q0 -28 -13.5 -43.5t-34 -25.5l-41 -20t-34 -28
t-13.5 -51q0 -52 37 -83t90 -31q61 0 104.5 28t71.5 76t41 107t13 120l-47 28q0 -49 -15.5 -98.5t-44.5 -91t-69 -66.5t-89 -25q-27 0 -41 11.5t-14 33.5q0 23 14 34.5t35 19.5t42 20.5t35 38t14 71.5q0 52 -29.5 88.5t-76.5 56t-102 19.5q-75 0 -132 -30.5t-89 -86
t-32 -130.5q0 -56 14.5 -107t45 -83t78.5 -32zM314 79q23 0 40.5 -18t17.5 -41q0 -22 -17.5 -40t-40.5 -18q-22 0 -39.5 18t-17.5 40q0 23 17.5 41t39.5 18zM443 661q81 0 142 -20t102.5 -50t65.5 -62t32 -56h26v255h-34v-221l10 2q-8 23 -31.5 60t-65 74t-103 62t-144.5 25
q-46 0 -88 -9t-75.5 -26t-53 -42t-19.5 -58q0 -38 24.5 -57.5t63 -27.5t82.5 -10t83 -4q60 -3 107.5 -7t86.5 -19t71 -50q25 -26 35 -63.5t10 -75.5l47 -26q0 73 -27.5 130t-71.5 88q-32 24 -78.5 34.5t-94.5 14t-86 4.5q-60 3 -105.5 6t-71 15.5t-25.5 40.5q0 22 17 36
t45 22t60.5 11.5t63.5 3.5z" />
    <glyph glyph-name="u111EF" unicode="&#x111ef;" horiz-adv-x="1018" 
d="M553 311q0 -69 -17 -109t-42.5 -59.5t-52.5 -25t-47 -5.5h-94v33h106q31 0 55.5 13.5t39 45t14.5 85.5q0 28 -8 54t-27.5 42.5t-53.5 16.5q-40 0 -64 -38.5t-24 -100.5v-13h-38v13q0 62 -22 100.5t-73 38.5q-33 0 -58.5 -21t-40 -60.5t-14.5 -94.5q0 -107 41.5 -163.5
t112.5 -56.5q21 0 39 7v-30q-12 -4 -23 -6t-22 -2q-66 0 -108 37t-62 100.5t-20 141.5q0 46 10 87.5t30 74t48.5 51t65.5 18.5q59 0 90 -35t31 -103h-12q0 68 31.5 103t84.5 35q40 0 67.5 -22.5t42 -62t14.5 -89.5zM326 142q76 0 146 -23.5t125.5 -64t88 -93.5t32.5 -112
q0 -41 -17 -72t-44 -31q-41 0 -63.5 43.5t-22.5 152.5v51t2.5 86t9.5 105.5t20 108.5t35 96.5t54.5 69.5t77.5 26q41 0 70 -27.5t48.5 -72.5t31 -98t17 -104.5t7.5 -92t2 -59.5l-12 65v389h34v-509h-36q0 48 -5 104.5t-16 112.5t-30 102t-46 74t-65 28q-24 0 -48 -9t-46 -35
t-39 -76.5t-26.5 -132t-9.5 -202.5q0 -63 6.5 -97.5t19.5 -48t30 -13.5q11 0 17.5 11t9.5 26.5t3 28.5q0 57 -31 105t-83 83.5t-115.5 55t-129.5 19.5z" />
    <glyph glyph-name="u111F0" unicode="&#x111f0;" horiz-adv-x="1570" 
d="M421 485q-53 0 -84.5 -35t-31.5 -103h12q0 68 -31 103t-90 35q-37 0 -65.5 -18.5t-48 -51t-29.5 -74t-10 -87.5q0 -78 20 -141.5t62 -101t108 -37.5q22 0 44 9v30q-18 -7 -38 -7q-72 0 -113.5 56.5t-41.5 163.5q0 55 14.5 94.5t40 60.5t59.5 21q50 0 72 -39t22 -101v-12
h39v12q0 62 23.5 101t63.5 39q35 0 54 -16.5t27 -42.5t8 -54q0 -54 -14.5 -85.5t-39 -45t-55.5 -13.5h-106v-33h94q20 0 47 5.5t52.5 25t42.5 59.5t17 109q0 50 -14.5 89.5t-42 62t-67.5 22.5zM605 -58v169q0 49 5.5 102t21.5 100.5t45 81.5t75 44l46 42q-91 -10 -139 -62.5
t-66 -141t-18 -207.5v-128q0 -109 22.5 -152.5t63.5 -43.5q27 0 44.5 31t17.5 72q0 59 -34 111.5t-92 93t-130 64t-148 23.5l1 -29q66 0 131.5 -19.5t119.5 -55t87 -83.5t33 -105q0 -13 -3 -28.5t-9.5 -26.5t-17.5 -11q-17 0 -30 13.5t-19.5 48t-6.5 97.5zM706 396
q0 -38 28.5 -64.5t98.5 -25.5l45 13v15h-36q-43 0 -72 14t-29 48q0 23 18.5 42.5t72.5 19.5v26q-48 0 -75.5 -13.5t-39 -33.5t-11.5 -41zM1145 486q-45 0 -84 -23t-69.5 -63t-49.5 -90.5t-23 -106.5l26 -12q7 19 17.5 27t22.5 8q18 0 29.5 -14.5t11.5 -42.5
q0 -37 -19.5 -61.5t-52.5 -36t-72 -11.5q-43 0 -80.5 13.5t-60 41t-22.5 68.5t20.5 68.5t57 41t83.5 13.5v28h-15q-85 0 -137.5 -48t-52.5 -128q0 -54 25 -95.5t70 -65t104 -23.5q88 0 141.5 47.5t53.5 125.5q0 47 -21.5 77.5t-56.5 30.5q-21 0 -34 -8q20 78 61.5 117.5
t107.5 39.5q54 0 97.5 -26.5t69 -72t25.5 -102.5v-196h-28q-51 0 -78 24t-27 67t24.5 68.5t64.5 25.5q17 0 29.5 -1t21.5 -4l20 -6q32 -12 55 -34t44 -62.5t45 -108.5h21v510h-34v-474l26 -9q-22 65 -43.5 104t-47.5 62.5t-65 40.5l-16 6q-9 2 -27.5 4t-28.5 2
q-75 0 -122 -34t-47 -90q0 -57 48 -89.5t131 -32.5h68v249q0 76 -26.5 135t-73 92.5t-107.5 33.5z" />
    <glyph glyph-name="u111F1" unicode="&#x111f1;" horiz-adv-x="959" 
d="M57 198q0 -90 35 -161.5t93 -100.5v36q-46 40 -69.5 95.5t-23.5 126.5q0 60 21 111.5t69 82.5t127 31q23 0 46.5 -0.5t45.5 -4.5v26q-23 4 -46.5 5.5t-47.5 1.5q-123 0 -186.5 -66t-63.5 -183zM241 370q0 -26 20.5 -40.5t51 -20.5t61.5 -6v19q-94 5 -94 50q0 9 7 21
t26 20t55 5l3 25l-39 -14q-39 3 -65 -11.5t-26 -47.5zM492 20q-50 0 -100 8.5t-91 26.5t-66 47.5t-25 71.5q0 44 25 70t65.5 37.5t85.5 11.5q1 0 12 -0.5t26 -1.5t26 -2q2 7 2.5 13.5t0.5 12.5q-20 3 -44 5t-35 2q-95 0 -151.5 -43.5t-56.5 -124.5q0 -61 26 -103t71.5 -67
t104 -36.5t124.5 -11.5q63 0 119.5 13t101 39.5t70 68.5t25.5 100q0 66 -30 102.5t-76.5 50.5t-95.5 14q-14 0 -28.5 -1t-29.5 -3q-1 4 -1 7v6q0 41 26 54.5t73 13.5h41v32q-38 -1 -70.5 12.5t-52.5 38.5t-20 56q0 38 27 67.5t83 29.5q42 0 75 -18t57.5 -46.5t42 -60.5
t29 -61.5t18.5 -49.5h26v268h-33v-198l9 -5q-6 19 -18 45t-31 53.5t-46.5 51t-63.5 38.5t-83 15q-40 0 -77.5 -14t-61.5 -42.5t-24 -72.5q0 -36 19 -59t47.5 -36.5t58 -19t50.5 -5.5v13q-64 0 -102 -24t-38 -85q0 -9 1 -17.5t3 -19.5q20 4 41.5 6.5t41.5 2.5q46 0 85 -11.5
t63 -37.5t24 -69q0 -42 -25 -72t-65.5 -49t-89 -28t-95.5 -9z" />
    <glyph glyph-name="u111F2" unicode="&#x111f2;" horiz-adv-x="966" 
d="M46 198q0 -90 35 -161.5t93 -100.5v36q-46 40 -69.5 95.5t-23.5 126.5q0 60 21 111.5t69 82.5t128 31q23 0 46 -0.5t46 -4.5v26q-24 4 -47.5 5.5t-47.5 1.5q-123 0 -186.5 -66t-63.5 -183zM230 370q0 -26 20.5 -40.5t51 -20.5t61.5 -6v19q-93 5 -93 50q0 9 7 21t25.5 20
t54.5 5l3 11h-38q-39 3 -65.5 -11.5t-26.5 -47.5zM481 -64q63 0 119.5 13t101 39.5t70 68.5t25.5 100q0 96 -71 138q17 13 24 27.5t7 32.5q0 35 -30.5 64t-88.5 29q-64 0 -102.5 -31.5t-38.5 -92.5q0 -18 4 -37q20 4 42 6.5t41 2.5q46 0 85 -11.5t63 -37.5t24 -69
q0 -42 -25 -72t-65.5 -49t-89 -28t-95.5 -9q-50 0 -100 8.5t-91 26.5t-65.5 47.5t-24.5 71.5q0 44 25 70t65 37.5t85 11.5q1 0 12 -0.5t26 -1.5t26 -2q4 12 4 26q-21 3 -44.5 5t-35.5 2q-95 0 -151.5 -43.5t-56.5 -124.5q0 -61 26 -103t71.5 -67t104 -36.5t124.5 -11.5z
M629 416q42 0 64 -19.5t22 -44.5t-18 -43q-22 8 -47.5 11.5t-54.5 3.5q-14 0 -28 -1t-30 -3q-1 4 -1 7v6q0 41 27.5 62t65.5 21zM420 83q74 -14 120 -5t67.5 33.5t21.5 53.5q0 22 -13.5 36.5t-39.5 21.5l-3 -5q38 7 78 23.5t59 36.5l-37 8q-8 -8 -34 -21.5t-61 -19.5
q-27 -5 -59 -6.5t-54 -1.5v-26q66 0 97.5 -10.5t31.5 -35.5q0 -15 -14.5 -33t-52.5 -25.5t-107 6.5v-30zM638 420h62v13q-62 -1 -97 12.5t-49 36.5t-14 51q0 43 27 73t83 31q42 2 74 -15.5t56 -46.5t40.5 -61.5t27 -62.5l17.5 -50h35v268h-42v-198l9 3q-6 18 -17 43
t-27.5 51.5t-40.5 49.5t-56.5 37t-74.5 14q-44 0 -86 -14.5t-69.5 -44.5t-27.5 -77q0 -33 16.5 -55t42.5 -34.5t55.5 -18t55.5 -5.5z" />
    <glyph glyph-name="u111F3" unicode="&#x111f3;" horiz-adv-x="1382" 
d="M848 194q0 -85 -25.5 -158.5t-77.5 -129t-131.5 -87.5t-186.5 -34q-50 -1 -98 9.5t-79 30t-31 45.5q0 43 63.5 58.5t194.5 15.5v32q-117 0 -195.5 -8t-117.5 -30.5t-39 -67.5q0 -39 40.5 -67t106.5 -42.5t143 -14.5q152 0 258 58.5t161 163.5t55 245q0 48 -8.5 96
t-27.5 88t-49 64t-74 24q-58 0 -96 -40t-38 -103h13q0 67 -36 105t-98 38q-61 0 -97 -38t-36 -105h12q0 65 -38 104t-101 39q-72 0 -118.5 -57t-46.5 -172q0 -68 22.5 -120.5t65 -82.5t100.5 -30q12 0 23.5 2t21.5 6v31q-10 -4 -19 -6t-20 -2q-72 0 -112.5 51t-40.5 132
q0 87 34 124.5t90 37.5q55 0 84.5 -40t29.5 -111v-82h39v82q0 75 27.5 113t79.5 38q53 0 80.5 -38t27.5 -113v-82h39v82q0 71 28 111t80 40q47 0 72.5 -29t35.5 -76t10 -100zM926 14q0 -127 36.5 -197.5t91.5 -70.5q22 0 38 15.5t16 46.5q0 49 -60 87t-184.5 59.5
t-319.5 21.5h-67v-32h67q192 0 309.5 -19t170.5 -49.5t53 -64.5q0 -28 -28 -28q-36 0 -64 61.5t-28 169.5q0 106 13 179t35.5 118t51 65.5t59.5 20.5q40 0 69 -28t49 -74t31.5 -102t16.5 -112.5t5 -104.5h35v509h-33v-389l12 -65q0 19 -2 59.5t-8 92t-18 104.5t-32 98
t-51 72.5t-74 27.5q-54 0 -89 -29.5t-56 -77t-31 -103.5t-12.5 -109t-2 -94t0.5 -58z" />
    <glyph glyph-name="u111F4" unicode="&#x111f4;" horiz-adv-x="1113" 
d="M220 490q-48 0 -85 -31t-58.5 -85.5t-21.5 -126.5q0 -83 22.5 -143t65 -92t100.5 -32q12 0 23.5 2t21.5 6v31q-10 -4 -19 -6t-20 -2q-48 0 -82 25.5t-52.5 74.5t-18.5 117q0 80 34 128t90 48q55 0 84.5 -40t29.5 -111v-82h39v82q0 76 27.5 113.5t80.5 37.5t80 -37.5
t27 -113.5v-82h39v82q0 71 28 111t80 40q62 0 90 -50.5t28 -161.5v-388l41 -53v484q0 133 -38 194t-121 61q-58 0 -95.5 -40t-37.5 -102h12q0 66 -35.5 104t-97.5 38t-98 -38t-36 -104h13q0 65 -38.5 103.5t-101.5 38.5zM732 110q-67 0 -112.5 -19t-83.5 -57l28 -19
q30 36 73.5 50.5t97.5 14.5q48 0 98 -19t97 -61.5t87 -115.5h21v608h-34v-572l26 -8q-55 105 -134.5 151.5t-163.5 46.5zM594 -47q0 -13 -7 -25t-23 -12q-14 0 -24 9.5t-10 27.5q0 14 8.5 31t24.5 30l-21 13q-23 -13 -33 -33.5t-10 -40.5q0 -34 19.5 -51.5t45.5 -17.5
q21 0 41.5 16t20.5 53q0 38 -31.5 64t-99.5 26q-44 0 -84.5 -22.5t-66.5 -62.5t-26 -93q0 -57 25 -96t65.5 -59.5t87.5 -20.5q30 0 51.5 11t38.5 27.5t35 33t41 27.5t55 11q40 0 69.5 -16.5t49.5 -40.5t29 -45h29v522l-41 -70v-379q-23 29 -62.5 45t-77.5 16
q-42 0 -70.5 -11t-51.5 -26t-48 -26t-60 -11q-28 0 -56 14t-47 41t-19 64q0 41 20 71.5t52.5 47t67.5 16.5q55 0 74 -19t19 -39z" />
    <glyph glyph-name="sinKSsa" horiz-adv-x="1155" 
d="M182 565q47 0 87 -25.5t51 -66.5l-31 -28q-10 35 -40.5 55.5t-67.5 20.5q-31 0 -61.5 -18.5t-47.5 -62.5l-39 12q16 41 39.5 65.5t52 36t57.5 11.5zM30 196v50l252 216q66 56 150 84.5t165 28.5q71 0 130.5 -21.5t97 -65t40.5 -109.5h-40q-3 47 -34 81t-82.5 52.5
t-114.5 18.5q-73 0 -155.5 -28.5t-156.5 -93.5l-213 -184zM184 -5q-30 0 -57.5 14t-44.5 41t-17 64v32q0 17 -3 35t-18 18q-2 0 -6.5 -1t-7.5 -2v50q35 -4 51 -20t20.5 -33t4.5 -27v-52q0 -37 25 -56.5t54 -19.5q27 0 49 18t22 58v78h40v-78q0 -40 24.5 -58t54.5 -18
q32 0 60 19.5t28 56.5v126q0 46 -13.5 71.5t-43 38.5t-79.5 20l38 33q38 -6 69.5 -21t50 -48t18.5 -94v-126q0 -39 -17 -65.5t-44.5 -39.5t-59.5 -13q-28 0 -55.5 10.5t-50.5 29.5q-19 -21 -43 -31t-49 -10zM729 402h225q54 0 92 -13.5t58.5 -48.5t20.5 -98h-40
q0 39 -9.5 66t-37 40.5t-82.5 13.5h-226q-54 0 -81 -16t-35.5 -43.5t-8.5 -60.5h-40q0 61 21 96t58 49.5t85 14.5zM814 -6q-133 0 -191 46t-58 153h40q0 -66 24.5 -100.5t71.5 -46.5t113 -12h62q67 0 113.5 12.5t71 47t24.5 99.5h40q0 -107 -58 -153t-191 -46h-62zM974 564
q48 0 89.5 -19t60.5 -68l-39 -13q-10 27 -37 43.5t-74 16.5q-39 0 -63 -16t-35 -41t-11 -52v-36h-40v36q0 37 10.5 63t27.5 43t37 26.5t39.5 13t34.5 3.5zM817 168q0 45 19 85t55 69.5t88 44.5h66q-40 -18 -74.5 -36.5t-60 -40.5t-39.5 -51.5t-14 -70.5h-40z" />
    <glyph glyph-name="sinKVa" horiz-adv-x="1091" 
d="M182 565q47 0 87 -25.5t51 -66.5l-31 -28q-10 35 -40.5 55.5t-67.5 20.5q-31 0 -61.5 -18.5t-47.5 -62.5l-39 12q16 41 39.5 65.5t52 36t57.5 11.5zM184 -5q-30 0 -57.5 14t-44.5 41t-17 64v32q0 17 -3 35t-18 18q-2 0 -6.5 -1t-7.5 -2v50q35 -4 51 -20t20.5 -33t4.5 -27
v-52q0 -37 25 -56.5t54 -19.5q27 0 49 18t22 58v78h40v-78q0 -40 24.5 -58t54.5 -18q32 0 60 19.5t28 56.5v126q0 46 -13.5 71.5t-43 38.5t-79.5 20l38 33q38 -6 69.5 -21t50 -48t18.5 -94v-126q0 -39 -17 -65.5t-44.5 -39.5t-59.5 -13q-28 0 -55.5 10.5t-50.5 29.5
q-19 -21 -43 -31t-49 -10zM573 181q0 38 9 66t28 49q32 35 82 44t121 9q0 50 -37 90t-96.5 63t-128.5 23q-58 0 -118 -19t-110 -63l-254 -218l-39 -29v50l264 225q59 50 128.5 73t138.5 23q78 0 144.5 -26.5t107.5 -75t41 -115.5v-41h-49q-69 0 -111 -10t-61.5 -37.5
t-19.5 -80.5q0 -34 19.5 -66.5t57 -53.5t90.5 -21v-40q-59 0 -106 25.5t-74 67t-27 88.5zM1020 514q0 111 -49.5 156t-134.5 45v40q80 0 129.5 -27.5t72.5 -81t23 -132.5v-273q0 -118 -53 -179.5t-172 -61.5v40q57 0 98 20t63.5 64t22.5 117v273zM780 755v-40
q-43 0 -84.5 -23.5t-64.5 -61.5l-39 14q19 34 49.5 58.5t67 38.5t71.5 14z" />
    <glyph glyph-name="sinTVa" horiz-adv-x="1070" 
d="M759 0q-59 0 -106 25.5t-74 67t-27 88.5q0 38 9 66t28 49q32 35 82.5 44t121.5 9q0 42 -22 75t-59 56t-83 35t-94 12q-52 0 -101 -14.5t-85 -46.5l-280 -241l-39 -29v50l290 248q43 37 100 54t117 17q56 0 108.5 -14t95 -41t67.5 -66.5t25 -89.5v-45h-49q-69 0 -111 -10
t-61.5 -37.5t-19.5 -80.5q0 -34 19.5 -66.5t57 -53.5t90.5 -21v-40zM314 -4q-68 0 -109 18.5t-64 46t-35.5 56.5t-23.5 50q-7 14 -16 22.5t-23 8.5q-4 0 -7 -0.5t-6 -1.5l20 38q3 1 6 1h5q22 0 35 -14.5t22.5 -37t21.5 -48t32.5 -48t54.5 -37t87 -14.5q52 0 86 21t51 55.5
t17 76.5q0 43 -7.5 79t-37.5 62.5t-98 40.5l37 32q66 -15 97 -48.5t40 -76.5t9 -89q0 -54 -21 -97.5t-64 -69.5t-109 -26zM104 440l-39 12q16 41 39.5 65.5t52 36t57.5 11.5q32 0 60.5 -11.5t49.5 -32.5t28 -48l-31 -28q-10 35 -40.5 55.5t-67.5 20.5q-31 0 -61.5 -18.5
t-47.5 -62.5zM815 0v40q57 0 98 20t63.5 64t22.5 117v273q0 111 -49.5 156t-134.5 45v40q80 0 129.5 -27.5t72.5 -81t23 -132.5v-273q0 -118 -53 -179.5t-172 -61.5zM610 630l-39 14q19 34 49.5 58.5t67 38.5t71.5 14v-40q-43 0 -84.5 -23.5t-64.5 -61.5z" />
    <glyph glyph-name="sinTTha" horiz-adv-x="1061" 
d="M104 440l-39 12q16 41 39.5 65.5t52 36t57.5 11.5q32 0 60.5 -11.5t49.5 -32.5t28 -48l-31 -28q-10 35 -40.5 55.5t-67.5 20.5q-31 0 -61.5 -18.5t-47.5 -62.5zM314 -4q-59 0 -97.5 14t-62 36.5t-37.5 48t-23.5 48.5t-20.5 38q-6 8 -13 12.5t-17 4.5q-4 0 -7 -0.5
t-6 -1.5l20 38q3 1 6 1h5q22 0 35 -14.5t22.5 -37t21.5 -48t32.5 -48t54.5 -37t87 -14.5q52 0 86 21t51 55.5t17 76.5q0 43 -7.5 79t-37.5 62.5t-98 40.5l37 32q66 -15 97 -48.5t40 -76.5t9 -89q0 -54 -21 -97.5t-64 -69.5t-109 -26zM30 196v50l290 248q32 25 67.5 41.5
t72.5 24.5t72 8q38 0 72.5 -9t63.5 -26t50 -43t32 -60h-40q-14 31 -42.5 52.5t-66 33.5t-78.5 12q-44 0 -89.5 -15t-84.5 -47l-280 -241zM750 0q-56 0 -94.5 19t-62.5 49.5t-35 65.5t-11 66v70q0 30 8 62.5t27.5 61.5t53 49.5t84.5 25.5l30 -39h-11q-52 0 -85.5 -22.5
t-49.5 -59t-16 -78.5v-70q0 -44 19.5 -80.5t56 -58t86.5 -21.5v-40zM806 0v40q57 0 98 20t63 64t22 117h42q0 -118 -53 -179.5t-172 -61.5zM804 755q65 0 116.5 -21.5t81 -73t29.5 -143.5v-282h-42v263q0 109 -40.5 163t-142.5 54h-2v-78q0 -50 19.5 -79t49.5 -41.5
t61 -12.5v-40q-58 0 -96 23t-56 62.5t-18 87.5v118h40z" />
    <glyph glyph-name="sinNDa" horiz-adv-x="962" 
d="M687 0q-60 0 -112 21t-83.5 65t-31.5 113q0 68 29 113t80.5 67.5t116.5 22.5h136q0 46 -22 79t-71 51t-132 18v42q69 0 119.5 -13.5t82.5 -39.5t47.5 -63.5t15.5 -86.5v-27h-186q-58 0 -96.5 -21t-58 -58t-19.5 -84q0 -45 20.5 -81t61.5 -57t103 -21h39q53 0 96.5 26.5
t68.5 81.5l37 -10q-16 -43 -41 -70.5t-54.5 -42t-57.5 -20t-49 -5.5h-39zM791 -204q-42 0 -80.5 17.5t-63 53t-24.5 88.5h40q0 -38 19.5 -64.5t49.5 -40.5t63 -14q42 0 79 23.5t49 74.5l39 -10q-9 -42 -35 -70.5t-62 -43t-74 -14.5zM182 565q32 0 60.5 -11.5t49.5 -32.5
t28 -48l-31 -28q-10 35 -40.5 55.5t-67.5 20.5q-31 0 -61.5 -18.5t-47.5 -62.5l-39 12q16 41 39.5 65.5t52 36t57.5 11.5zM273 -5q-45 0 -88 16t-78 48t-56 81.5t-21 115.5v88h41v-74q0 -60 17.5 -103.5t47 -72.5t66 -43t73.5 -14q44 0 83.5 19.5t64.5 58t25 93.5
q0 31 -10 61.5t-35.5 57t-72.5 43.5l25 33q48 -15 78.5 -46t44.5 -70t14 -79q0 -69 -31.5 -116.5t-81.5 -72t-106 -24.5zM50 212v44h14q24 0 50 18.5t48.5 42t34.5 39.5l97 129q46 61 110.5 84t137.5 23v-42q-40 0 -78 -7.5t-73 -28t-67 -62.5l-78 -103q-24 -32 -52.5 -63.5
t-60 -52t-66.5 -20.5z" />
    <glyph glyph-name="sinNDha" horiz-adv-x="1097" 
d="M182 565q32 0 60.5 -11.5t49.5 -32.5t28 -48l-31 -28q-10 35 -40.5 55.5t-67.5 20.5q-31 0 -61.5 -18.5t-47.5 -62.5l-39 12q16 41 39.5 65.5t52 36t57.5 11.5zM273 -5q-45 0 -88 16t-78 48t-56 81.5t-21 115.5v88h41v-74q0 -60 17.5 -103.5t47 -72.5t66 -43t73.5 -14
q44 0 83.5 19.5t64.5 58t25 93.5q0 31 -10 61.5t-35.5 57t-72.5 43.5l25 33q48 -15 78.5 -46t44.5 -70t14 -79q0 -69 -31.5 -116.5t-81.5 -72t-106 -24.5zM531 589q55 0 104.5 -16.5t85 -49.5t46.5 -83h-40q-9 23 -28.5 42t-47.5 33.5t-61 22.5t-68 8q-54 0 -107 -22
t-91 -72l-78 -103q-24 -32 -52.5 -63.5t-60 -52.5t-66.5 -20h-17v43h14q24 0 50 18.5t48.5 42t34.5 39.5l97 129q27 35 65 58t82.5 34.5t89.5 11.5zM688 0q-41 0 -73 16.5t-50 46.5t-18 70v174q0 41 17.5 80.5t57.5 66t106 26.5h19l20 -40h-39q-47 0 -75 -16.5t-41.5 -40
t-18 -46.5t-4.5 -36v-162q0 -17 9 -40.5t30.5 -41t59.5 -17.5t59 17.5t30 41t9 40.5v53h42v-53q0 -17 9 -40.5t30.5 -41t58.5 -17.5q38 0 59.5 17.5t30.5 41t9 40.5v103h42v-109q0 -61 -39.5 -97t-101.5 -36q-39 0 -70 15t-49 43q-18 -28 -49 -43t-70 -15zM1025 514
q0 74 -22.5 118t-65 63.5t-102.5 19.5v40q83 0 134 -27.5t74.5 -81t23.5 -132.5v-273h-42v273zM617 630l-39 14q28 50 83 80.5t118 30.5v-40q-53 0 -96 -23.5t-66 -61.5z" />
    <glyph glyph-name="sinNVa" horiz-adv-x="1065" 
d="M72 440l-39 12q16 41 39.5 65.5t52 36t57.5 11.5q32 0 60.5 -11.5t49.5 -32.5t28 -48l-31 -28q-10 35 -40.5 55.5t-67.5 20.5q-31 0 -61.5 -18.5t-47.5 -62.5zM273 -5q-45 0 -88 16t-78 48t-56 81.5t-21 115.5v88h41v-74q0 -79 30.5 -131t77.5 -77t96 -25q44 0 83.5 19.5
t64.5 58t25 93.5q0 31 -10 61.5t-35.5 57t-72.5 43.5l25 33q48 -15 78.5 -46t44.5 -70t14 -79q0 -69 -31.5 -116.5t-81.5 -72t-106 -24.5zM754 0q-59 0 -106 25.5t-74 67t-27 88.5q0 71 28.5 107t82 48.5t127.5 13.5q0 62 -36.5 105t-94 65t-120.5 22q-61 0 -118 -22
t-92 -68l-78 -103q-24 -32 -52.5 -63t-60 -51.5t-66.5 -21.5l-17 -1v44h14q24 0 50 18.5t48.5 42t34.5 39.5q24 32 48.5 64.5t48.5 64.5q37 49 103 74t139 25q54 0 106 -14t94 -43t67 -73t25 -104v-41h-49q-69 0 -111 -10t-61.5 -37.5t-19.5 -80.5q0 -34 19.5 -66.5
t57 -53.5t90.5 -21v-40zM810 0v40q57 0 98 20t63.5 64t22.5 117v273q0 111 -49.5 156t-134.5 45v40q80 0 129.5 -27.5t72.5 -81t23 -132.5v-273q0 -118 -53 -179.5t-172 -61.5zM605 630l-39 14q19 34 49.5 58.5t67 38.5t71.5 14v-40q-43 0 -84.5 -23.5t-64.5 -61.5z" />
    <glyph glyph-name="sinNTha" horiz-adv-x="1061" 
d="M50 212v44h14q24 0 50 18.5t48.5 42t34.5 39.5l97 129q40 53 101.5 78t125.5 25q56 0 107.5 -18t89 -53.5t49.5 -86.5h-40q-11 34 -42.5 60t-74.5 41t-90 15q-54 0 -106 -22t-90 -72l-78 -103q-24 -32 -52.5 -63.5t-60 -52t-66.5 -20.5zM273 -5q-45 0 -88 16t-78 48
t-56 81.5t-21 115.5v88h41v-74q0 -60 17.5 -103.5t47 -72.5t66 -43t73.5 -14q44 0 83.5 19.5t64.5 58t25 93.5q0 31 -10 61.5t-35.5 57t-72.5 43.5l25 33q48 -15 78.5 -46t44.5 -70t14 -79q0 -69 -31.5 -116.5t-81.5 -72t-106 -24.5zM72 440l-39 12q16 41 39.5 65.5t52 36
t57.5 11.5q32 0 60.5 -11.5t49.5 -32.5t28 -48l-31 -28q-10 35 -40.5 55.5t-67.5 20.5q-31 0 -61.5 -18.5t-47.5 -62.5zM750 0q-56 0 -94.5 19t-62.5 49.5t-35 65.5t-11 66v70q0 32 9.5 67t32 65t62 49t99.5 19v-40h10q-62 1 -100 -21.5t-55 -59t-17 -79.5v-70
q0 -44 19.5 -80.5t56 -58t86.5 -21.5v-40zM806 0v40q57 0 98 20t63 64t22 117h42q0 -118 -53 -179.5t-172 -61.5zM804 755q65 0 116.5 -21.5t81 -73t29.5 -143.5v-282h-42v263q0 108 -40.5 162.5t-141.5 54.5h-3v-78q0 -50 19.5 -79t49.5 -41.5t61 -12.5v-40q-58 0 -96 23
t-56 62.5t-18 87.5v118h40z" />
    <glyph glyph-name="sinDVa" horiz-adv-x="687" 
d="M94 -8q-30 39 -43.5 71t-17 66.5t-3.5 79.5v31q0 72 19.5 117t51.5 66t69 21q12 0 24.5 -2t24.5 -7v-43q-14 5 -26 7t-23 2q-38 0 -60 -23t-31 -59.5t-9 -78.5v-31q0 -40 3 -71t17 -61t46 -69zM432 0v40q57 0 98 20t63.5 64t22.5 117v273q0 111 -49.5 156t-134.5 45v40
q80 0 129.5 -27.5t72.5 -81t23 -132.5v-273q0 -118 -53 -179.5t-172 -61.5zM376 0q-59 0 -106 25.5t-74 67t-27 88.5q0 25 4 46t12 38t21 31q32 35 82.5 44t121.5 9q0 44 -30.5 66.5t-66.5 22.5q-25 0 -48 -12t-34 -37l-39 10q7 27 25.5 44.5t44 26.5t52.5 9q34 0 65 -13.5
t51 -41.5t20 -70v-45h-49q-69 0 -111 -10t-61.5 -37.5t-19.5 -80.5q0 -34 19.5 -66.5t57 -53.5t90.5 -21v-40zM205 553l-39 10q0 42 19 77t50 60.5t68 40t73 14.5v-40q-42 0 -81.5 -21.5t-64.5 -58t-25 -82.5z" />
    <glyph glyph-name="sinDDha" horiz-adv-x="721" 
d="M84 -8q-25 39 -36.5 71t-14.5 66.5t-3 79.5v88q0 66 20 103t52 54t68 21.5t67 4.5h154v-40h-153q-60 0 -97 -15t-54 -46.5t-17 -81.5v-88q0 -40 2.5 -71t14.5 -61t39 -69zM312 0q-41 0 -73 16.5t-50 46.5t-18 70v174q0 30 9.5 60.5t31 56t56 41t84.5 15.5h39v-40h-39
q-47 0 -75 -16.5t-41.5 -40t-18 -46.5t-4.5 -36v-162q0 -17 9 -40.5t30.5 -41t59.5 -17.5t59 17.5t30 41t9 40.5v53h42v-53q0 -17 9 -40.5t30.5 -41t58.5 -17.5q38 0 59.5 17.5t30.5 41t9 40.5v61h42v-67q0 -61 -39.5 -97t-101.5 -36q-39 0 -70 15t-49 43q-18 -28 -49 -43
t-70 -15zM220 553l-39 10q0 44 19.5 79.5t52.5 60.5t72 38.5t78 13.5v-40q-46 0 -88 -20t-68.5 -56.5t-26.5 -85.5zM649 200v314q0 76 -23 120t-65.5 62.5t-101.5 18.5v40q82 0 133 -26.5t75 -80t24 -134.5v-314h-42z" />
    <glyph glyph-name="sinTtTtha" horiz-adv-x="721" 
d="M84 -8q-25 39 -36.5 71t-14.5 66.5t-3 79.5v88q0 66 20 103t52 54t68 21.5t67 4.5h154v-40h-153q-60 0 -97 -15t-54 -46.5t-17 -81.5v-88q0 -40 2.5 -71t14.5 -61t39 -69zM312 0q-41 0 -73 16.5t-50 46.5t-18 70v174q0 30 9.5 60.5t31 56t56 41t84.5 15.5h39v-40h-39
q-47 0 -75 -16.5t-41.5 -40t-18 -46.5t-4.5 -36v-162q0 -17 9 -40.5t30.5 -41t59.5 -17.5t59 17.5t30 41t9 40.5v53h42v-53q0 -17 9 -40.5t30.5 -41t58.5 -17.5q38 0 59.5 17.5t30.5 41t9 40.5v61h42v-67q0 -61 -39.5 -97t-101.5 -36q-39 0 -70 15t-49 43q-18 -28 -49 -43
t-70 -15zM464 755q65 0 116.5 -21.5t81 -73t29.5 -143.5v-319h-42v300q0 109 -41 163t-143 54h-1v-78q0 -50 19.5 -79t49.5 -41.5t61 -12.5v-40q-58 0 -96 23t-56 62.5t-18 87.5v118h40z" />
    <glyph glyph-name="sinMatraU.sub" horiz-adv-x="164" 
d="M153 -277q-40 0 -70.5 13.5t-47.5 41.5t-17 73v72q0 38 7.5 62.5t28.5 48t60 57.5h-92v34h139v-34q-40 -33 -61.5 -56t-31 -40t-11.5 -33.5t-2 -37.5v-73q0 -16 6.5 -37.5t27.5 -37t63 -15.5h9v-38h-8z" />
    <glyph glyph-name="sinMatraUu.sub" horiz-adv-x="189" 
d="M138 -285q-33 0 -61 9.5t-45 33.5t-17 68v32q0 20 6.5 38.5t27 39.5t63.5 47h-90v28l94 79h-94v30h137v-30l-89 -77h89v-34q-52 -32 -74.5 -53t-28 -36t-5.5 -31v-39q0 -11 4.5 -28t23 -30.5t58.5 -13.5h22v-33h-21z" />
    <glyph glyph-name="sinRakar" horiz-adv-x="0" 
d="M-289 -225v40q63 0 104.5 19.5t62.5 51t21 67.5q0 31 -14 55t-42 40l27 31q36 -21 53 -53.5t17 -72.5q0 -57 -29 -96.5t-80.5 -60.5t-119.5 -21zM-345 -225q-51 0 -100 19.5t-80.5 56.5t-31.5 88v13h40q0 -42 20.5 -69t50 -41.5t58 -20.5t43.5 -6v-40z" />
    <glyph glyph-name="sinReph" horiz-adv-x="398" 
d="M138 638q-35 0 -59 16t-36.5 41t-12.5 53q0 30 14.5 58t45.5 45.5t78 17.5h60q61 0 100.5 -33t39.5 -86v-82h-40v84q0 35 -18.5 51t-42 21t-39.5 5h-60q-52 0 -76 -25.5t-24 -55.5q0 -27 18 -48.5t52 -21.5q32 0 45.5 14.5t16.5 31.5t3 23h40q0 -25 -8.5 -50t-31 -42
t-65.5 -17z" />
    <glyph glyph-name="sinYansaya" horiz-adv-x="498" 
d="M30 0l78 313q9 38 15 68.5t6 55.5q0 44 -22 65.5t-77 21.5v40q54 0 84 -18t42.5 -47.5t12.5 -64.5q0 -17 -2 -35.5t-7 -35.5l-90 -363h-40zM125 0l10 40h193q47 0 73.5 34.5t26.5 80.5v120q0 33 -15 51t-37 26t-43.5 9.5t-34.5 1.5h-145v40h145q31 0 61 -4t54.5 -19
t39.5 -48t15 -92v-80q0 -42 -14.5 -78.5t-43.5 -59t-74 -22.5h-211zM283 566q40 0 81.5 -18.5t68.5 -74.5l-38 -14q-5 11 -16.5 27t-33.5 28t-62 12q-39 0 -61.5 -18t-34 -44t-16.5 -50.5t-8 -37.5l-37 20q16 89 55.5 129.5t101.5 40.5z" />
    <glyph glyph-name="sinMatraAa.virama" horiz-adv-x="261" 
d="M31 619v200h40v-200h-40zM31 0v40h20q20 0 43.5 3.5t45.5 18t36 46.5t14 89v170q0 57 -14 89t-36 46.5t-45.5 18t-43.5 3.5h-20v40h20q65 0 104.5 -22.5t57.5 -66t18 -108.5v-170q0 -64 -18 -108t-57.5 -66.5t-104.5 -22.5h-20z" />
    <glyph glyph-name="sinK" horiz-adv-x="760" 
d="M580 619v200h40v-200h-40zM182 565q47 0 87 -25.5t51 -66.5l-31 -28q-10 35 -40.5 55.5t-67.5 20.5q-31 0 -61.5 -18.5t-47.5 -62.5l-39 12q16 41 39.5 65.5t52 36t57.5 11.5zM508 560q58 0 108.5 -26t82 -80t31.5 -140v-122q0 -63 -15 -106t-53 -65t-108 -22v40
q23 0 47 4t44 18.5t32.5 45.5t12.5 85v122q0 70 -27 116t-70.5 68.5t-93.5 22.5q-39 0 -78.5 -13.5t-71.5 -41.5l-280 -241l-39 -29v42l290 256q41 32 90 49t98 17zM184 -5q-30 0 -57.5 14t-44.5 41t-17 64v32q0 17 -6.5 35t-14.5 18q-2 0 -6.5 -1t-7.5 -2v42q35 -4 51 -18
t20.5 -29t4.5 -25v-52q0 -37 25 -56.5t54 -19.5q27 0 49 18t22 58v78h40v-78q0 -40 24.5 -58t54.5 -18q32 0 60 19.5t28 56.5v126q0 46 -13.5 71.5t-43 38.5t-79.5 20l38 33q38 -6 69.5 -21t50 -48t18.5 -94v-126q0 -39 -17 -65.5t-44.5 -39.5t-59.5 -13q-28 0 -55.5 10.5
t-50.5 29.5q-19 -21 -43 -31t-49 -10z" />
    <glyph glyph-name="sinKh" horiz-adv-x="586" 
d="M268 -65v349q0 38 -14.5 63.5t-36.5 38t-47 12.5q-37 0 -68 -28.5t-31 -85.5v-107q0 -56 16.5 -85.5t48 -40.5t75.5 -11v-40q-45 0 -79 9t-56.5 30t-34 55t-11.5 83v107q0 53 20.5 88.5t52.5 53t67 17.5t67 -17.5t52 -52.5t20 -89v-349h-41zM514 411q0 111 -49 156
t-134 45v40q80 0 129.5 -27.5t72.5 -81t23 -132.5v-269q0 -49 -21 -81.5t-54 -48.5t-69 -16t-69 16t-54 48.5t-21 81.5v50h41v-50q0 -50 32.5 -75t70.5 -25t70 25t32 75v269zM41 612v40h76l-22 -21q-22 14 -33 36.5t-11 47.5q0 26 12.5 50t37 39t61.5 15h94v-40h-104
q-31 0 -47 -20t-16 -44q0 -23 16 -43t47 -20h179v-40h-290zM494 673q0 49 -14 71t-35 28.5t-44 6.5h-89v40h89q29 0 53.5 -8.5t42.5 -26t27.5 -45t9.5 -66.5h-40z" />
    </font>
</defs>
</svg>
